<?xml version="1.0" encoding="utf-8"?>
<!-- Generator: Adobe Illustrator 15.0.0, SVG Export Plug-In . SVG Version: 6.00 Build 0)  -->
<!DOCTYPE svg PUBLIC "-//W3C//DTD SVG 1.1//EN" "http://www.w3.org/Graphics/SVG/1.1/DTD/svg11.dtd" [
	<!ENTITY ns_flows "http://ns.adobe.com/Flows/1.0/">
	<!ENTITY ns_extend "http://ns.adobe.com/Extensibility/1.0/">
	<!ENTITY ns_ai "http://ns.adobe.com/AdobeIllustrator/10.0/">
	<!ENTITY ns_graphs "http://ns.adobe.com/Graphs/1.0/">
	<!ENTITY ns_vars "http://ns.adobe.com/Variables/1.0/">
	<!ENTITY ns_imrep "http://ns.adobe.com/ImageReplacement/1.0/">
	<!ENTITY ns_sfw "http://ns.adobe.com/SaveForWeb/1.0/">
	<!ENTITY ns_custom "http://ns.adobe.com/GenericCustomNamespace/1.0/">
	<!ENTITY ns_adobe_xpath "http://ns.adobe.com/XPath/1.0/">
]>
<svg version="1.1"
	 xmlns:x="&ns_extend;" xmlns:i="&ns_ai;" xmlns:graph="&ns_graphs;" i:viewOrigin="0 0" i:rulerOrigin="0 424" i:pageBounds="0 0 717 -424"
	 xmlns="http://www.w3.org/2000/svg" xmlns:xlink="http://www.w3.org/1999/xlink" xmlns:a="http://ns.adobe.com/AdobeSVGViewerExtensions/3.0/"
	 x="0px" y="0px" width="717px" height="424px" viewBox="0 0 717 424" enable-background="new 0 0 717 424" xml:space="preserve">
<metadata><?xpacket begin="﻿" id="W5M0MpCehiHzreSzNTczkc9d"?>
<x:xmpmeta xmlns:x="adobe:ns:meta/" x:xmptk="Adobe XMP Core 5.0-c060 61.134777, 2010/02/12-17:32:00        ">
   <rdf:RDF xmlns:rdf="http://www.w3.org/1999/02/22-rdf-syntax-ns#">
      <rdf:Description rdf:about=""
            xmlns:dc="http://purl.org/dc/elements/1.1/">
         <dc:format>image/svg+xml</dc:format>
         <dc:title>
            <rdf:Alt>
               <rdf:li xml:lang="x-default">Print</rdf:li>
            </rdf:Alt>
         </dc:title>
      </rdf:Description>
      <rdf:Description rdf:about=""
            xmlns:xmp="http://ns.adobe.com/xap/1.0/"
            xmlns:xmpGImg="http://ns.adobe.com/xap/1.0/g/img/">
         <xmp:MetadataDate>2014-04-14T21:20:31-04:00</xmp:MetadataDate>
         <xmp:ModifyDate>2014-04-14T21:20:31-04:00</xmp:ModifyDate>
         <xmp:CreateDate>2014-04-14T21:20:31-04:00</xmp:CreateDate>
         <xmp:CreatorTool>Adobe Illustrator CS5</xmp:CreatorTool>
         <xmp:Thumbnails>
            <rdf:Alt>
               <rdf:li rdf:parseType="Resource">
                  <xmpGImg:width>256</xmpGImg:width>
                  <xmpGImg:height>140</xmpGImg:height>
                  <xmpGImg:format>JPEG</xmpGImg:format>
                  <xmpGImg:image>/9j/4AAQSkZJRgABAgEASABIAAD/7QAsUGhvdG9zaG9wIDMuMAA4QklNA+0AAAAAABAASAAAAAEA&#xA;AQBIAAAAAQAB/+4ADkFkb2JlAGTAAAAAAf/bAIQABgQEBAUEBgUFBgkGBQYJCwgGBggLDAoKCwoK&#xA;DBAMDAwMDAwQDA4PEA8ODBMTFBQTExwbGxscHx8fHx8fHx8fHwEHBwcNDA0YEBAYGhURFRofHx8f&#xA;Hx8fHx8fHx8fHx8fHx8fHx8fHx8fHx8fHx8fHx8fHx8fHx8fHx8fHx8fHx8f/8AAEQgAjAEAAwER&#xA;AAIRAQMRAf/EAaIAAAAHAQEBAQEAAAAAAAAAAAQFAwIGAQAHCAkKCwEAAgIDAQEBAQEAAAAAAAAA&#xA;AQACAwQFBgcICQoLEAACAQMDAgQCBgcDBAIGAnMBAgMRBAAFIRIxQVEGE2EicYEUMpGhBxWxQiPB&#xA;UtHhMxZi8CRygvElQzRTkqKyY3PCNUQnk6OzNhdUZHTD0uIIJoMJChgZhJRFRqS0VtNVKBry4/PE&#xA;1OT0ZXWFlaW1xdXl9WZ2hpamtsbW5vY3R1dnd4eXp7fH1+f3OEhYaHiImKi4yNjo+Ck5SVlpeYmZ&#xA;qbnJ2en5KjpKWmp6ipqqusra6voRAAICAQIDBQUEBQYECAMDbQEAAhEDBCESMUEFURNhIgZxgZEy&#xA;obHwFMHR4SNCFVJicvEzJDRDghaSUyWiY7LCB3PSNeJEgxdUkwgJChgZJjZFGidkdFU38qOzwygp&#xA;0+PzhJSktMTU5PRldYWVpbXF1eX1RlZmdoaWprbG1ub2R1dnd4eXp7fH1+f3OEhYaHiImKi4yNjo&#xA;+DlJWWl5iZmpucnZ6fkqOkpaanqKmqq6ytrq+v/aAAwDAQACEQMRAD8A9SNcx+g80f75UBNIyGJp&#xA;1A364qkv6evSTQRbduLVG1aH4uo74LRbf6dve6xf8C3/ADVja23+nb3+WP8A4Fv+asbW1n6fv+Ne&#xA;MVa0+y3jT+bG1tcNdvu6xf8AAt/zVja23+nb3+WP/gW/5qxtba/Tl/8Ayxf8C3/NWNrbv05f+EX/&#xA;AALf81Y2tu/Tl/4Rf8C3/NWNrbv05f8AhF/wLf8ANWNrbQ16+5EFYtgD9lu/+yxtbb/Tt72WL/gW&#xA;/wCasbW3DXb7usX/AALf81Y2tuOu33ZYv+Bb/mrG1tb+nL9qj92tD1VTXx7k4LW1kOpTpefWpB6j&#xA;8PTI2X4a1HQeONqmcOt2b19SsNO79PvH8cNraOEkZ40YHlutD1p4YUrsVdirsVdirsVdirsVdirs&#xA;VdirsVdirsVYvdRehdSxio4tse9DuNx7HIsVAKATTvufnireKuxVTA5GQf5W3tsD+vFV6tUb7EbE&#xA;Yq3irsVdirsVdiq0fbPyH8cVXYq7FXYqtGzn3Ffu2OKrsVdiqIstPa8cqKLGn2nIqPkOm+KU5WxS&#xA;1tTHDOYUryklah2pQ0rRV+eFKrZ3UM6EQ8ykdFEjA/F8idz74VRGKuxV2KuxV2KuxV2KuxV2KqVz&#xA;dwWyB5m4gmg/z9sVat7y2uOXovy4/aFCD+NMVSbXY3S7WXiCsi7UO/wdevzwFBQANRUdMCGmZV+0&#xA;QPnirXNff7jirSEFn9zWh2NKAYq2w+JSNiTSvt1xVdirsVdirsVdiqzkokNSBsOv04q36kf8w+/F&#xA;Xeon8w+/FXc17VPuAT+rFWgwMgAr0PUEdx44qvxVp2opPfsPfFVRJ7hPT4SsPS+xSlBUU6U4/TTF&#xA;XT3d3Mf3zmQeANB8+OwxVUs9RntgRG3JaU9OQsQPlvtjaVf6/q1wC0XPgdx6afDt4NSv44VTCzv7&#xA;t5eFzbuvP7DLGwUePIk4qmGFLsVdirsVdirsVdirHNUuDNePueEZ4KPl9r8ciUFX0I/6VIP8j+Iw&#xA;hQ7XnJuo07KlR/siQf8AiOJUpX6cf8op2B3p8sCHKiL9lQPkKYquxVaN3LeHwj+OKtsqsKEVGKrA&#xA;6oOLkLx2BJ6jt+rFW/VBbilGPU9h+rFW6yeA+8/0xV1ZPAfef6Yq6sngPvP9MVaXlzaoA2HQ18cV&#xA;X4q7FXYqtYfEp7k0PyoTiq7FVkhA4kmgB3PhscVX9cVdiqrYIZL+IKFf4gHRtxQbkn5LWnviqb6n&#xA;qf1akECj1TuxIPFQa+HfCSlKba+urXdHLKOqPUqfo7fRgQyjJMnYq7FXYqgJtbtIpCgV5OOxZAtK&#xA;/SRgtFqf+ILWtPSlr16J/wA1Y2toe819iAlqhRmB5NIAaVIA40b3xtbSwkkkncnck+JwIVLaaaG4&#xA;SSEcpAaBN/iBFKUBGKq2py+rfSkdFPAf7HY/jXEpKFxQ7FXYqtQAFwP5v1gHFV2KuoK17+OKrT9s&#xA;fI/wxVdirsVdiq0fbPyH8cVXYq7FXYqsdgGSvcn9RxVvmPf7j/TFXcx2BJ+RH68VaBIelCAa9adc&#xA;VX4qmOhwlrppO0a/i3T9RwhIQ1+7PezFuocj6BsPwwKoKVDAsOQG/HxPYHcbeOKGQ6XeSXUDNJTm&#xA;rlTx2FKAjbfxwhkjMKqb3NvG3GSVEbwZgD+OKoLV7uMWpSOYCViAFU1JFdxt02wFBSLAhaf7wfI/&#xA;rGKrdivP+YinyqMVTK30We5jDu4iicVWlS/tsQBhpNJxZ2FtaIVhXc/adjVj9JwpY1PxjmkjLCqM&#xA;y9fA0yLFZ6ifzD78Vd6kf8w+8Yq0ZYh1dfvGKtJJHVzyFK+I8Biq71I/5h94xV3qJ/MPvxVrkpda&#xA;EE7int1/hiq/FXYq7FVlAZGrX7I6EjufDFW/TXxb/gj/AFxV3pr4t/wR/riruHgxH01/XXFVpDqy&#xA;ktyWu9etT06YqqYq7FVrhtmX7Q7HuMVcGcgEAUO/U/0xVNfL70mnRiOTKrKAOykg/wDEhhCQhNRl&#xA;SW9mdDVSQAfHiAv8MCofFCfaNayQwGR+s1GC+AFafrwhIRVzeW9shaVwtBUL+0fkO+FLG7u7juLl&#xA;5hRA9PhrU7Cm/wB2RYqPNRsAfuP9MVbDqTQdfA7H8cVWSEFqEkUFdhXrt4HFXL6ZZVfmyVHJaFaq&#xA;DuAaDtirLLS4gmjPo/Yjb0xSlNgKUpXahyTJWxVicsvrSvLTj6hLU8KmuRYrcVWn7Y+R/hiq7FXY&#xA;qtk+w3yOKrsVWtUMCBXYjant44q4uRT4Tvt2/riruR/lP4f1xV3Jv5T+H9cVaHMOWK1BAGx8K+NP&#xA;HFWw29CCNq70xVdirsVaYVUj8cVWiRCASwB7iuKt+pH/ADD7xirRbkQFbr1pToMVXgAAAdB0xVaw&#xA;qy+1T9FKfxxV3pR/yL9wxVqNBxBFRXcCp774qjF1K/VeKzNTxNGP3sDjabQjGswJNWINSdzuR1xQ&#xA;uxV2Kqb7yKK0NCaint44qvtuMkxD8yNh+6UMxNT2JH8cVTm10WCSBvrMbqzggKXBIGxBqoWhw0mk&#xA;xtrdLeP00J41qAaCmwFNgPDClVxVjepoqX8wUUBINPcqCfxyJQULihaftj5H+GKrsVdiq2T7DfI4&#xA;quxV2KrW6r8/4HFV2KuxV2KrGrzWm2x67+GKt0fxH3f24q6j+I+7+3FXUfxH3f24qtQMrFWavLdd&#xA;qb9xiqpiqwgK5bsQAT8sVX4qtP8AeD5H+GKrsVWx/YX5DFV2KqXxF/UQAinHc02+44q160lARHUH&#xA;vypv4bgYquMjcOVBQ+FT+FMVXrDK1ulw28YJ5ECgVqAip38cVZJpUDw2ah9mclyPCvT8MIZBF4Vd&#xA;irsVS7WbP1YPWQfvIt2PcoNyPo64CgpFgQ0RX2PY4q4HseuKt4qtk+w3yOKrsVdiq1uq/P8AgcVX&#xA;Yq7FXYqtP94Pkf4YquxV2KuxVa3Vfn/A4quxVxFdj0xVYlAOPQipp269sVaLjn3ovcAnc9sVb5F/&#xA;s1A/mpT7q4q4RcR8Bp4gioPv23xVqjs3FjsKNUbV9sVXsSBtuew98Va4k7vQ+C9sVajRjJ6afDzq&#xA;EINB9k/D/sun04qmugQTk3AmQfVx8BRt6uDUim4+HphCQnmFLsVdirsVaZQylWFQRQj2OKsXu4Bb&#xA;3MkIYsEIAJ67gH+ORYqWKtEA/wADirgT0PX9eKtSfYb5HFXVk8B9/wDZirqP4j7v7cVabmCtd9+g&#xA;FOx8TirfJv5T+H9cVdWTwH3/ANmKtM0gUniNt+p/piq3m3IHj0BH7Xf6MVb9RqgU3PStR/DFV1X8&#xA;B9/9mKuq/gPv/sxVpiwKliAK/wAD3xVv1I/5h9+Ku5r3NPnt+vFVjsCV4k9913p298VXKyqKAGg/&#xA;yT/TFW+Y9/uP9MVdzXwP3H+mKqbOSQ2606VUmv3YquUivIlie3wkD9WKrua+B+4/0xVtJQjo4Bqj&#xA;K3Qj7JB8PbFWVWoh9BHiXgkg9QD/AF9/45Jkq4q7FXYq7FXYql+rWBnj9aMVmjG4HVl8Pn4YCgpC&#xA;DUVHTAh2KtEA4qsYFmCtWlD0JFenhiqpirsVWt1X5/wOKrsVdiq2T7DfI4quxVa3Vfn/AAOKrsVd&#xA;iq1+n0j9YxVdirsVUoig5EdyelW2BxVf6ifzAEdQdj+OKu9SMdWH3jFVrSitAVoOrE0GKuBT7Rqx&#xA;61oafRiq9WVun0jocVbxV25IAFSdgB1JOKsi0kzmxjEw+JfhU0K1UdNjv7e/XCGSMwq7FXYq7FXY&#xA;q4ioI8cVSOTRjzZIElAQfC8hj4MfAUIYfdgpFIGa3nhdlkQqVpyNKjfpuNsCFPFVr/s068uv6/wx&#xA;VdirsVWt1X5/wOKrsVdiq2T7DfI4quxVplDChr9BofwxVbxkHRuVP5v6jFXVl/lH3/2Yq05kAqQC&#xA;BQ7HfY174qqYqteuwBpyNK/j/DFVwFBQdMVWp+0fE/q2/hirn24nsD+vb+OKtkAgg7g7EYqtBKni&#xA;3f7J8fbFVxVW6gH5jFURZ6ddXPL0qCMftuaAHwFAa4qn1vp9pAE4xgum/qEVatKVrkqZInFXYq7F&#xA;XYq7FXYq7FXYqorbqROrqOMzGvEncEAVIPQ/LFUqXQLg7NMi+4Bb8PhwUiltxoFwpV4pBKVryWnE&#xA;mvhuR9+NLSAkjkjbhIpRv5WFDgQtxVa3Vfn/AAOKu5p/MPvxVwkjIryG+KtO6FG+IdD3xVfirsVd&#xA;irsVcQCCD0OKqaoCu5ao2PxN1+/FXcArrQk9diSfp3xVUxVbH9k/Nv1nFXP9g9qbgn23xVsGoB6V&#xA;7HFXMvJSPHocVRenafNefER6cIqGfxINKLXr88UshggigiEcS8UH+e+SSvxV2KuxV2KuxV2KuxV2&#xA;KuxV2KuxV2KrZIopV4yIHX+VgCPxxVAyaHZu1VZ4x/KpBH/DBjgpFLD5fsz1klI8Kr3FOy40tJnh&#xA;SlGp6V9u4twO7SR/iSv9MBCCEowIdirsVdirsVdiq1ftP8/4DFWiHD1UAggDc0/gcVcrnlxcBT23&#xA;rX8BirQYgAAAksRuaeJxVzeqwZeK7in2j/TFVwZqboa/R/XFVrTAUCqxY9BSn66Yqy62SNLeNY/s&#xA;BRxPjXv9OSZKmKuxV2KuxV2KuxV2KuxV2KuxV2KuxV2KuxV2KuxV2KuxVj13pNxbn90pli6KVFWH&#xA;sQP15GkUjo9CtzEvqM4lI+MqRSvelQcNLSU3VtJbTGKTcjcMOhB74EKWKuxVF6fp8l0/I/DAPtP4&#xA;+y4pR76BbUPpSOhJrvRh/A/jhpaQs2hXcaVikFwamqkBD12pufpxpaVtN0y6gu45plBHA7q32WPY&#xA;jvTEBU34Jz58RzAoGpvTwrhSo3llBdJxkBDD7LrQMPpIOKof9C2gt3jWvNt1mahYH26be2CkUkUs&#xA;bxSNFIKOhow/p88CE+0i5Wa0VCf3kQ4sPb9k/dhDII7CrsVdirsVdirsVdirsVdirsVdirsVdirs&#xA;VdirsVdirsVdirsVQOqWBuYw8f8AfR/ZGw5A9v6YChj4wITHSLCO4LSyjkiHiE7E0B3whIT0AAAA&#xA;UA6DCl2KuxV2KuxV2KuxVjOopKl/Pz35NyQ+Kkf5jIlBV9FmWO84mlJRxB8CNx9+EKE/wpdirsVd&#xA;irsVdirsVdirsVdirsVdirsVdirsVdirsVdirsVdirsVSO/0i4EzyQLzjY8uIPxAnc9eu+CkUitE&#xA;WaOOWKWNkowYcgRXkKfT9nEKEywpdirsVdirsVdirsVQOq2BuYw8YrPH9kbAMCRUGv4YCgpNZqfr&#xA;0CHZ/UA4nY1U1I+jicCsnySXYq7FXYq7FXYq7FXYq7FXYq7FXYq7FXYq7FXYq7FXYq7FXYq7FXYq&#xA;7FXYq7FXYq7FXYq7FXYqp3P1n0W+rcPW/Z9SvH36Yqlmn/Vfr7etx+vVenHjxr+3x/ar/re9O+BC&#xA;b4UuxV2KuxV2KuxV2Kv/2Q==</xmpGImg:image>
               </rdf:li>
            </rdf:Alt>
         </xmp:Thumbnails>
      </rdf:Description>
      <rdf:Description rdf:about=""
            xmlns:xmpMM="http://ns.adobe.com/xap/1.0/mm/"
            xmlns:stRef="http://ns.adobe.com/xap/1.0/sType/ResourceRef#"
            xmlns:stEvt="http://ns.adobe.com/xap/1.0/sType/ResourceEvent#">
         <xmpMM:InstanceID>xmp.iid:EE7F1174072068118F628D487CD66B8B</xmpMM:InstanceID>
         <xmpMM:DocumentID>xmp.did:EE7F1174072068118F628D487CD66B8B</xmpMM:DocumentID>
         <xmpMM:OriginalDocumentID>uuid:5D20892493BFDB11914A8590D31508C8</xmpMM:OriginalDocumentID>
         <xmpMM:RenditionClass>proof:pdf</xmpMM:RenditionClass>
         <xmpMM:DerivedFrom rdf:parseType="Resource">
            <stRef:instanceID>uuid:ae9148ef-3000-a144-9ee3-ddb3557e196e</stRef:instanceID>
            <stRef:documentID>xmp.did:8AF5709C0E20681188C6A12CE4B46A4D</stRef:documentID>
            <stRef:originalDocumentID>uuid:5D20892493BFDB11914A8590D31508C8</stRef:originalDocumentID>
            <stRef:renditionClass>proof:pdf</stRef:renditionClass>
         </xmpMM:DerivedFrom>
         <xmpMM:History>
            <rdf:Seq>
               <rdf:li rdf:parseType="Resource">
                  <stEvt:action>saved</stEvt:action>
                  <stEvt:instanceID>xmp.iid:EE7F1174072068118F628D487CD66B8B</stEvt:instanceID>
                  <stEvt:when>2014-04-14T21:20:31-04:00</stEvt:when>
                  <stEvt:softwareAgent>Adobe Illustrator CS5</stEvt:softwareAgent>
                  <stEvt:changed>/</stEvt:changed>
               </rdf:li>
            </rdf:Seq>
         </xmpMM:History>
      </rdf:Description>
      <rdf:Description rdf:about=""
            xmlns:illustrator="http://ns.adobe.com/illustrator/1.0/">
         <illustrator:StartupProfile>Print</illustrator:StartupProfile>
      </rdf:Description>
      <rdf:Description rdf:about=""
            xmlns:xmpTPg="http://ns.adobe.com/xap/1.0/t/pg/"
            xmlns:stDim="http://ns.adobe.com/xap/1.0/sType/Dimensions#"
            xmlns:xmpG="http://ns.adobe.com/xap/1.0/g/">
         <xmpTPg:HasVisibleOverprint>False</xmpTPg:HasVisibleOverprint>
         <xmpTPg:HasVisibleTransparency>False</xmpTPg:HasVisibleTransparency>
         <xmpTPg:NPages>1</xmpTPg:NPages>
         <xmpTPg:MaxPageSize rdf:parseType="Resource">
            <stDim:w>717.000000</stDim:w>
            <stDim:h>424.000000</stDim:h>
            <stDim:unit>Pixels</stDim:unit>
         </xmpTPg:MaxPageSize>
         <xmpTPg:PlateNames>
            <rdf:Seq>
               <rdf:li>Cyan</rdf:li>
               <rdf:li>Magenta</rdf:li>
               <rdf:li>Yellow</rdf:li>
               <rdf:li>Black</rdf:li>
            </rdf:Seq>
         </xmpTPg:PlateNames>
         <xmpTPg:SwatchGroups>
            <rdf:Seq>
               <rdf:li rdf:parseType="Resource">
                  <xmpG:groupName>Default Swatch Group</xmpG:groupName>
                  <xmpG:groupType>0</xmpG:groupType>
                  <xmpG:Colorants>
                     <rdf:Seq>
                        <rdf:li rdf:parseType="Resource">
                           <xmpG:swatchName>White</xmpG:swatchName>
                           <xmpG:mode>RGB</xmpG:mode>
                           <xmpG:type>PROCESS</xmpG:type>
                           <xmpG:red>255</xmpG:red>
                           <xmpG:green>255</xmpG:green>
                           <xmpG:blue>255</xmpG:blue>
                        </rdf:li>
                        <rdf:li rdf:parseType="Resource">
                           <xmpG:swatchName>Black</xmpG:swatchName>
                           <xmpG:mode>RGB</xmpG:mode>
                           <xmpG:type>PROCESS</xmpG:type>
                           <xmpG:red>35</xmpG:red>
                           <xmpG:green>31</xmpG:green>
                           <xmpG:blue>32</xmpG:blue>
                        </rdf:li>
                        <rdf:li rdf:parseType="Resource">
                           <xmpG:swatchName>CMYK Red</xmpG:swatchName>
                           <xmpG:mode>RGB</xmpG:mode>
                           <xmpG:type>PROCESS</xmpG:type>
                           <xmpG:red>237</xmpG:red>
                           <xmpG:green>28</xmpG:green>
                           <xmpG:blue>36</xmpG:blue>
                        </rdf:li>
                        <rdf:li rdf:parseType="Resource">
                           <xmpG:swatchName>CMYK Yellow</xmpG:swatchName>
                           <xmpG:mode>RGB</xmpG:mode>
                           <xmpG:type>PROCESS</xmpG:type>
                           <xmpG:red>255</xmpG:red>
                           <xmpG:green>242</xmpG:green>
                           <xmpG:blue>0</xmpG:blue>
                        </rdf:li>
                        <rdf:li rdf:parseType="Resource">
                           <xmpG:swatchName>CMYK Green</xmpG:swatchName>
                           <xmpG:mode>RGB</xmpG:mode>
                           <xmpG:type>PROCESS</xmpG:type>
                           <xmpG:red>0</xmpG:red>
                           <xmpG:green>166</xmpG:green>
                           <xmpG:blue>81</xmpG:blue>
                        </rdf:li>
                        <rdf:li rdf:parseType="Resource">
                           <xmpG:swatchName>CMYK Cyan</xmpG:swatchName>
                           <xmpG:mode>RGB</xmpG:mode>
                           <xmpG:type>PROCESS</xmpG:type>
                           <xmpG:red>0</xmpG:red>
                           <xmpG:green>174</xmpG:green>
                           <xmpG:blue>239</xmpG:blue>
                        </rdf:li>
                        <rdf:li rdf:parseType="Resource">
                           <xmpG:swatchName>CMYK Blue</xmpG:swatchName>
                           <xmpG:mode>RGB</xmpG:mode>
                           <xmpG:type>PROCESS</xmpG:type>
                           <xmpG:red>46</xmpG:red>
                           <xmpG:green>49</xmpG:green>
                           <xmpG:blue>146</xmpG:blue>
                        </rdf:li>
                        <rdf:li rdf:parseType="Resource">
                           <xmpG:swatchName>CMYK Magenta</xmpG:swatchName>
                           <xmpG:mode>RGB</xmpG:mode>
                           <xmpG:type>PROCESS</xmpG:type>
                           <xmpG:red>236</xmpG:red>
                           <xmpG:green>0</xmpG:green>
                           <xmpG:blue>140</xmpG:blue>
                        </rdf:li>
                        <rdf:li rdf:parseType="Resource">
                           <xmpG:swatchName>C=15 M=100 Y=90 K=10</xmpG:swatchName>
                           <xmpG:mode>RGB</xmpG:mode>
                           <xmpG:type>PROCESS</xmpG:type>
                           <xmpG:red>190</xmpG:red>
                           <xmpG:green>30</xmpG:green>
                           <xmpG:blue>45</xmpG:blue>
                        </rdf:li>
                        <rdf:li rdf:parseType="Resource">
                           <xmpG:swatchName>C=0 M=90 Y=85 K=0</xmpG:swatchName>
                           <xmpG:mode>RGB</xmpG:mode>
                           <xmpG:type>PROCESS</xmpG:type>
                           <xmpG:red>239</xmpG:red>
                           <xmpG:green>65</xmpG:green>
                           <xmpG:blue>54</xmpG:blue>
                        </rdf:li>
                        <rdf:li rdf:parseType="Resource">
                           <xmpG:swatchName>C=0 M=80 Y=95 K=0</xmpG:swatchName>
                           <xmpG:mode>RGB</xmpG:mode>
                           <xmpG:type>PROCESS</xmpG:type>
                           <xmpG:red>241</xmpG:red>
                           <xmpG:green>90</xmpG:green>
                           <xmpG:blue>41</xmpG:blue>
                        </rdf:li>
                        <rdf:li rdf:parseType="Resource">
                           <xmpG:swatchName>C=0 M=50 Y=100 K=0</xmpG:swatchName>
                           <xmpG:mode>RGB</xmpG:mode>
                           <xmpG:type>PROCESS</xmpG:type>
                           <xmpG:red>247</xmpG:red>
                           <xmpG:green>148</xmpG:green>
                           <xmpG:blue>30</xmpG:blue>
                        </rdf:li>
                        <rdf:li rdf:parseType="Resource">
                           <xmpG:swatchName>C=0 M=35 Y=85 K=0</xmpG:swatchName>
                           <xmpG:mode>RGB</xmpG:mode>
                           <xmpG:type>PROCESS</xmpG:type>
                           <xmpG:red>251</xmpG:red>
                           <xmpG:green>176</xmpG:green>
                           <xmpG:blue>64</xmpG:blue>
                        </rdf:li>
                        <rdf:li rdf:parseType="Resource">
                           <xmpG:swatchName>C=5 M=0 Y=90 K=0</xmpG:swatchName>
                           <xmpG:mode>RGB</xmpG:mode>
                           <xmpG:type>PROCESS</xmpG:type>
                           <xmpG:red>249</xmpG:red>
                           <xmpG:green>237</xmpG:green>
                           <xmpG:blue>50</xmpG:blue>
                        </rdf:li>
                        <rdf:li rdf:parseType="Resource">
                           <xmpG:swatchName>C=20 M=0 Y=100 K=0</xmpG:swatchName>
                           <xmpG:mode>RGB</xmpG:mode>
                           <xmpG:type>PROCESS</xmpG:type>
                           <xmpG:red>215</xmpG:red>
                           <xmpG:green>223</xmpG:green>
                           <xmpG:blue>35</xmpG:blue>
                        </rdf:li>
                        <rdf:li rdf:parseType="Resource">
                           <xmpG:swatchName>C=50 M=0 Y=100 K=0</xmpG:swatchName>
                           <xmpG:mode>RGB</xmpG:mode>
                           <xmpG:type>PROCESS</xmpG:type>
                           <xmpG:red>141</xmpG:red>
                           <xmpG:green>198</xmpG:green>
                           <xmpG:blue>63</xmpG:blue>
                        </rdf:li>
                        <rdf:li rdf:parseType="Resource">
                           <xmpG:swatchName>C=75 M=0 Y=100 K=0</xmpG:swatchName>
                           <xmpG:mode>RGB</xmpG:mode>
                           <xmpG:type>PROCESS</xmpG:type>
                           <xmpG:red>57</xmpG:red>
                           <xmpG:green>181</xmpG:green>
                           <xmpG:blue>74</xmpG:blue>
                        </rdf:li>
                        <rdf:li rdf:parseType="Resource">
                           <xmpG:swatchName>C=85 M=10 Y=100 K=10</xmpG:swatchName>
                           <xmpG:mode>RGB</xmpG:mode>
                           <xmpG:type>PROCESS</xmpG:type>
                           <xmpG:red>0</xmpG:red>
                           <xmpG:green>148</xmpG:green>
                           <xmpG:blue>68</xmpG:blue>
                        </rdf:li>
                        <rdf:li rdf:parseType="Resource">
                           <xmpG:swatchName>C=90 M=30 Y=95 K=30</xmpG:swatchName>
                           <xmpG:mode>RGB</xmpG:mode>
                           <xmpG:type>PROCESS</xmpG:type>
                           <xmpG:red>0</xmpG:red>
                           <xmpG:green>104</xmpG:green>
                           <xmpG:blue>56</xmpG:blue>
                        </rdf:li>
                        <rdf:li rdf:parseType="Resource">
                           <xmpG:swatchName>C=75 M=0 Y=75 K=0</xmpG:swatchName>
                           <xmpG:mode>RGB</xmpG:mode>
                           <xmpG:type>PROCESS</xmpG:type>
                           <xmpG:red>43</xmpG:red>
                           <xmpG:green>182</xmpG:green>
                           <xmpG:blue>115</xmpG:blue>
                        </rdf:li>
                        <rdf:li rdf:parseType="Resource">
                           <xmpG:swatchName>C=80 M=10 Y=45 K=0</xmpG:swatchName>
                           <xmpG:mode>RGB</xmpG:mode>
                           <xmpG:type>PROCESS</xmpG:type>
                           <xmpG:red>0</xmpG:red>
                           <xmpG:green>167</xmpG:green>
                           <xmpG:blue>157</xmpG:blue>
                        </rdf:li>
                        <rdf:li rdf:parseType="Resource">
                           <xmpG:swatchName>C=70 M=15 Y=0 K=0</xmpG:swatchName>
                           <xmpG:mode>RGB</xmpG:mode>
                           <xmpG:type>PROCESS</xmpG:type>
                           <xmpG:red>39</xmpG:red>
                           <xmpG:green>170</xmpG:green>
                           <xmpG:blue>225</xmpG:blue>
                        </rdf:li>
                        <rdf:li rdf:parseType="Resource">
                           <xmpG:swatchName>C=85 M=50 Y=0 K=0</xmpG:swatchName>
                           <xmpG:mode>RGB</xmpG:mode>
                           <xmpG:type>PROCESS</xmpG:type>
                           <xmpG:red>28</xmpG:red>
                           <xmpG:green>117</xmpG:green>
                           <xmpG:blue>188</xmpG:blue>
                        </rdf:li>
                        <rdf:li rdf:parseType="Resource">
                           <xmpG:swatchName>C=100 M=95 Y=5 K=0</xmpG:swatchName>
                           <xmpG:mode>RGB</xmpG:mode>
                           <xmpG:type>PROCESS</xmpG:type>
                           <xmpG:red>43</xmpG:red>
                           <xmpG:green>57</xmpG:green>
                           <xmpG:blue>144</xmpG:blue>
                        </rdf:li>
                        <rdf:li rdf:parseType="Resource">
                           <xmpG:swatchName>C=100 M=100 Y=25 K=25</xmpG:swatchName>
                           <xmpG:mode>RGB</xmpG:mode>
                           <xmpG:type>PROCESS</xmpG:type>
                           <xmpG:red>38</xmpG:red>
                           <xmpG:green>34</xmpG:green>
                           <xmpG:blue>98</xmpG:blue>
                        </rdf:li>
                        <rdf:li rdf:parseType="Resource">
                           <xmpG:swatchName>C=75 M=100 Y=0 K=0</xmpG:swatchName>
                           <xmpG:mode>RGB</xmpG:mode>
                           <xmpG:type>PROCESS</xmpG:type>
                           <xmpG:red>102</xmpG:red>
                           <xmpG:green>45</xmpG:green>
                           <xmpG:blue>145</xmpG:blue>
                        </rdf:li>
                        <rdf:li rdf:parseType="Resource">
                           <xmpG:swatchName>C=50 M=100 Y=0 K=0</xmpG:swatchName>
                           <xmpG:mode>RGB</xmpG:mode>
                           <xmpG:type>PROCESS</xmpG:type>
                           <xmpG:red>146</xmpG:red>
                           <xmpG:green>39</xmpG:green>
                           <xmpG:blue>143</xmpG:blue>
                        </rdf:li>
                        <rdf:li rdf:parseType="Resource">
                           <xmpG:swatchName>C=35 M=100 Y=35 K=10</xmpG:swatchName>
                           <xmpG:mode>RGB</xmpG:mode>
                           <xmpG:type>PROCESS</xmpG:type>
                           <xmpG:red>158</xmpG:red>
                           <xmpG:green>31</xmpG:green>
                           <xmpG:blue>99</xmpG:blue>
                        </rdf:li>
                        <rdf:li rdf:parseType="Resource">
                           <xmpG:swatchName>C=10 M=100 Y=50 K=0</xmpG:swatchName>
                           <xmpG:mode>RGB</xmpG:mode>
                           <xmpG:type>PROCESS</xmpG:type>
                           <xmpG:red>218</xmpG:red>
                           <xmpG:green>28</xmpG:green>
                           <xmpG:blue>92</xmpG:blue>
                        </rdf:li>
                        <rdf:li rdf:parseType="Resource">
                           <xmpG:swatchName>C=0 M=95 Y=20 K=0</xmpG:swatchName>
                           <xmpG:mode>RGB</xmpG:mode>
                           <xmpG:type>PROCESS</xmpG:type>
                           <xmpG:red>238</xmpG:red>
                           <xmpG:green>42</xmpG:green>
                           <xmpG:blue>123</xmpG:blue>
                        </rdf:li>
                        <rdf:li rdf:parseType="Resource">
                           <xmpG:swatchName>C=25 M=25 Y=40 K=0</xmpG:swatchName>
                           <xmpG:mode>RGB</xmpG:mode>
                           <xmpG:type>PROCESS</xmpG:type>
                           <xmpG:red>194</xmpG:red>
                           <xmpG:green>181</xmpG:green>
                           <xmpG:blue>155</xmpG:blue>
                        </rdf:li>
                        <rdf:li rdf:parseType="Resource">
                           <xmpG:swatchName>C=40 M=45 Y=50 K=5</xmpG:swatchName>
                           <xmpG:mode>RGB</xmpG:mode>
                           <xmpG:type>PROCESS</xmpG:type>
                           <xmpG:red>155</xmpG:red>
                           <xmpG:green>133</xmpG:green>
                           <xmpG:blue>121</xmpG:blue>
                        </rdf:li>
                        <rdf:li rdf:parseType="Resource">
                           <xmpG:swatchName>C=50 M=50 Y=60 K=25</xmpG:swatchName>
                           <xmpG:mode>RGB</xmpG:mode>
                           <xmpG:type>PROCESS</xmpG:type>
                           <xmpG:red>114</xmpG:red>
                           <xmpG:green>102</xmpG:green>
                           <xmpG:blue>88</xmpG:blue>
                        </rdf:li>
                        <rdf:li rdf:parseType="Resource">
                           <xmpG:swatchName>C=55 M=60 Y=65 K=40</xmpG:swatchName>
                           <xmpG:mode>RGB</xmpG:mode>
                           <xmpG:type>PROCESS</xmpG:type>
                           <xmpG:red>89</xmpG:red>
                           <xmpG:green>74</xmpG:green>
                           <xmpG:blue>66</xmpG:blue>
                        </rdf:li>
                        <rdf:li rdf:parseType="Resource">
                           <xmpG:swatchName>C=25 M=40 Y=65 K=0</xmpG:swatchName>
                           <xmpG:mode>RGB</xmpG:mode>
                           <xmpG:type>PROCESS</xmpG:type>
                           <xmpG:red>196</xmpG:red>
                           <xmpG:green>154</xmpG:green>
                           <xmpG:blue>108</xmpG:blue>
                        </rdf:li>
                        <rdf:li rdf:parseType="Resource">
                           <xmpG:swatchName>C=30 M=50 Y=75 K=10</xmpG:swatchName>
                           <xmpG:mode>RGB</xmpG:mode>
                           <xmpG:type>PROCESS</xmpG:type>
                           <xmpG:red>169</xmpG:red>
                           <xmpG:green>124</xmpG:green>
                           <xmpG:blue>80</xmpG:blue>
                        </rdf:li>
                        <rdf:li rdf:parseType="Resource">
                           <xmpG:swatchName>C=35 M=60 Y=80 K=25</xmpG:swatchName>
                           <xmpG:mode>RGB</xmpG:mode>
                           <xmpG:type>PROCESS</xmpG:type>
                           <xmpG:red>139</xmpG:red>
                           <xmpG:green>94</xmpG:green>
                           <xmpG:blue>60</xmpG:blue>
                        </rdf:li>
                        <rdf:li rdf:parseType="Resource">
                           <xmpG:swatchName>C=40 M=65 Y=90 K=35</xmpG:swatchName>
                           <xmpG:mode>RGB</xmpG:mode>
                           <xmpG:type>PROCESS</xmpG:type>
                           <xmpG:red>117</xmpG:red>
                           <xmpG:green>76</xmpG:green>
                           <xmpG:blue>41</xmpG:blue>
                        </rdf:li>
                        <rdf:li rdf:parseType="Resource">
                           <xmpG:swatchName>C=40 M=70 Y=100 K=50</xmpG:swatchName>
                           <xmpG:mode>RGB</xmpG:mode>
                           <xmpG:type>PROCESS</xmpG:type>
                           <xmpG:red>96</xmpG:red>
                           <xmpG:green>57</xmpG:green>
                           <xmpG:blue>19</xmpG:blue>
                        </rdf:li>
                        <rdf:li rdf:parseType="Resource">
                           <xmpG:swatchName>C=50 M=70 Y=80 K=70</xmpG:swatchName>
                           <xmpG:mode>RGB</xmpG:mode>
                           <xmpG:type>PROCESS</xmpG:type>
                           <xmpG:red>60</xmpG:red>
                           <xmpG:green>36</xmpG:green>
                           <xmpG:blue>21</xmpG:blue>
                        </rdf:li>
                     </rdf:Seq>
                  </xmpG:Colorants>
               </rdf:li>
               <rdf:li rdf:parseType="Resource">
                  <xmpG:groupName>Grays</xmpG:groupName>
                  <xmpG:groupType>1</xmpG:groupType>
                  <xmpG:Colorants>
                     <rdf:Seq>
                        <rdf:li rdf:parseType="Resource">
                           <xmpG:swatchName>C=0 M=0 Y=0 K=100</xmpG:swatchName>
                           <xmpG:mode>RGB</xmpG:mode>
                           <xmpG:type>PROCESS</xmpG:type>
                           <xmpG:red>35</xmpG:red>
                           <xmpG:green>31</xmpG:green>
                           <xmpG:blue>32</xmpG:blue>
                        </rdf:li>
                        <rdf:li rdf:parseType="Resource">
                           <xmpG:swatchName>C=0 M=0 Y=0 K=90</xmpG:swatchName>
                           <xmpG:mode>RGB</xmpG:mode>
                           <xmpG:type>PROCESS</xmpG:type>
                           <xmpG:red>65</xmpG:red>
                           <xmpG:green>64</xmpG:green>
                           <xmpG:blue>66</xmpG:blue>
                        </rdf:li>
                        <rdf:li rdf:parseType="Resource">
                           <xmpG:swatchName>C=0 M=0 Y=0 K=80</xmpG:swatchName>
                           <xmpG:mode>RGB</xmpG:mode>
                           <xmpG:type>PROCESS</xmpG:type>
                           <xmpG:red>88</xmpG:red>
                           <xmpG:green>89</xmpG:green>
                           <xmpG:blue>91</xmpG:blue>
                        </rdf:li>
                        <rdf:li rdf:parseType="Resource">
                           <xmpG:swatchName>C=0 M=0 Y=0 K=70</xmpG:swatchName>
                           <xmpG:mode>RGB</xmpG:mode>
                           <xmpG:type>PROCESS</xmpG:type>
                           <xmpG:red>109</xmpG:red>
                           <xmpG:green>110</xmpG:green>
                           <xmpG:blue>113</xmpG:blue>
                        </rdf:li>
                        <rdf:li rdf:parseType="Resource">
                           <xmpG:swatchName>C=0 M=0 Y=0 K=60</xmpG:swatchName>
                           <xmpG:mode>RGB</xmpG:mode>
                           <xmpG:type>PROCESS</xmpG:type>
                           <xmpG:red>128</xmpG:red>
                           <xmpG:green>130</xmpG:green>
                           <xmpG:blue>133</xmpG:blue>
                        </rdf:li>
                        <rdf:li rdf:parseType="Resource">
                           <xmpG:swatchName>C=0 M=0 Y=0 K=50</xmpG:swatchName>
                           <xmpG:mode>RGB</xmpG:mode>
                           <xmpG:type>PROCESS</xmpG:type>
                           <xmpG:red>147</xmpG:red>
                           <xmpG:green>149</xmpG:green>
                           <xmpG:blue>152</xmpG:blue>
                        </rdf:li>
                        <rdf:li rdf:parseType="Resource">
                           <xmpG:swatchName>C=0 M=0 Y=0 K=40</xmpG:swatchName>
                           <xmpG:mode>RGB</xmpG:mode>
                           <xmpG:type>PROCESS</xmpG:type>
                           <xmpG:red>167</xmpG:red>
                           <xmpG:green>169</xmpG:green>
                           <xmpG:blue>172</xmpG:blue>
                        </rdf:li>
                        <rdf:li rdf:parseType="Resource">
                           <xmpG:swatchName>C=0 M=0 Y=0 K=30</xmpG:swatchName>
                           <xmpG:mode>RGB</xmpG:mode>
                           <xmpG:type>PROCESS</xmpG:type>
                           <xmpG:red>188</xmpG:red>
                           <xmpG:green>190</xmpG:green>
                           <xmpG:blue>192</xmpG:blue>
                        </rdf:li>
                        <rdf:li rdf:parseType="Resource">
                           <xmpG:swatchName>C=0 M=0 Y=0 K=20</xmpG:swatchName>
                           <xmpG:mode>RGB</xmpG:mode>
                           <xmpG:type>PROCESS</xmpG:type>
                           <xmpG:red>209</xmpG:red>
                           <xmpG:green>211</xmpG:green>
                           <xmpG:blue>212</xmpG:blue>
                        </rdf:li>
                        <rdf:li rdf:parseType="Resource">
                           <xmpG:swatchName>C=0 M=0 Y=0 K=10</xmpG:swatchName>
                           <xmpG:mode>RGB</xmpG:mode>
                           <xmpG:type>PROCESS</xmpG:type>
                           <xmpG:red>230</xmpG:red>
                           <xmpG:green>231</xmpG:green>
                           <xmpG:blue>232</xmpG:blue>
                        </rdf:li>
                        <rdf:li rdf:parseType="Resource">
                           <xmpG:swatchName>C=0 M=0 Y=0 K=5</xmpG:swatchName>
                           <xmpG:mode>RGB</xmpG:mode>
                           <xmpG:type>PROCESS</xmpG:type>
                           <xmpG:red>241</xmpG:red>
                           <xmpG:green>242</xmpG:green>
                           <xmpG:blue>242</xmpG:blue>
                        </rdf:li>
                     </rdf:Seq>
                  </xmpG:Colorants>
               </rdf:li>
               <rdf:li rdf:parseType="Resource">
                  <xmpG:groupName>Brights</xmpG:groupName>
                  <xmpG:groupType>1</xmpG:groupType>
                  <xmpG:Colorants>
                     <rdf:Seq>
                        <rdf:li rdf:parseType="Resource">
                           <xmpG:swatchName>C=0 M=100 Y=100 K=0</xmpG:swatchName>
                           <xmpG:mode>RGB</xmpG:mode>
                           <xmpG:type>PROCESS</xmpG:type>
                           <xmpG:red>237</xmpG:red>
                           <xmpG:green>28</xmpG:green>
                           <xmpG:blue>36</xmpG:blue>
                        </rdf:li>
                        <rdf:li rdf:parseType="Resource">
                           <xmpG:swatchName>C=0 M=75 Y=100 K=0</xmpG:swatchName>
                           <xmpG:mode>RGB</xmpG:mode>
                           <xmpG:type>PROCESS</xmpG:type>
                           <xmpG:red>242</xmpG:red>
                           <xmpG:green>101</xmpG:green>
                           <xmpG:blue>34</xmpG:blue>
                        </rdf:li>
                        <rdf:li rdf:parseType="Resource">
                           <xmpG:swatchName>C=0 M=10 Y=95 K=0</xmpG:swatchName>
                           <xmpG:mode>RGB</xmpG:mode>
                           <xmpG:type>PROCESS</xmpG:type>
                           <xmpG:red>255</xmpG:red>
                           <xmpG:green>222</xmpG:green>
                           <xmpG:blue>23</xmpG:blue>
                        </rdf:li>
                        <rdf:li rdf:parseType="Resource">
                           <xmpG:swatchName>C=85 M=10 Y=100 K=0</xmpG:swatchName>
                           <xmpG:mode>RGB</xmpG:mode>
                           <xmpG:type>PROCESS</xmpG:type>
                           <xmpG:red>0</xmpG:red>
                           <xmpG:green>161</xmpG:green>
                           <xmpG:blue>75</xmpG:blue>
                        </rdf:li>
                        <rdf:li rdf:parseType="Resource">
                           <xmpG:swatchName>C=100 M=90 Y=0 K=0</xmpG:swatchName>
                           <xmpG:mode>RGB</xmpG:mode>
                           <xmpG:type>PROCESS</xmpG:type>
                           <xmpG:red>33</xmpG:red>
                           <xmpG:green>64</xmpG:green>
                           <xmpG:blue>154</xmpG:blue>
                        </rdf:li>
                        <rdf:li rdf:parseType="Resource">
                           <xmpG:swatchName>C=60 M=90 Y=0 K=0</xmpG:swatchName>
                           <xmpG:mode>RGB</xmpG:mode>
                           <xmpG:type>PROCESS</xmpG:type>
                           <xmpG:red>127</xmpG:red>
                           <xmpG:green>63</xmpG:green>
                           <xmpG:blue>152</xmpG:blue>
                        </rdf:li>
                     </rdf:Seq>
                  </xmpG:Colorants>
               </rdf:li>
            </rdf:Seq>
         </xmpTPg:SwatchGroups>
      </rdf:Description>
      <rdf:Description rdf:about=""
            xmlns:pdf="http://ns.adobe.com/pdf/1.3/">
         <pdf:Producer>Adobe PDF library 9.90</pdf:Producer>
      </rdf:Description>
   </rdf:RDF>
</x:xmpmeta>
                                                                                                    
                                                                                                    
                                                                                                    
                                                                                                    
                                                                                                    
                                                                                                    
                                                                                                    
                                                                                                    
                                                                                                    
                                                                                                    
                                                                                                    
                                                                                                    
                                                                                                    
                                                                                                    
                                                                                                    
                                                                                                    
                                                                                                    
                                                                                                    
                                                                                                    
                                                                                                    
                           
<?xpacket end="w"?>
	</metadata>
<g id="Layer_1" i:layer="yes" i:dimmedPercent="50" i:rgbTrio="#4F008000FFFF">
	<g>
		<path id="MD_1_" fill="#DADED9" stroke="#AFB5AA" stroke-width="0.75" d="M608.872,207.628l-4.5,0.038l-3.728-0.625l-0.376-5.248
			l-0.121-6.882l-1.006-4.818l-0.322-3.351l-5.64,0.134l-11.124-0.015l-28.066,0.283l1.102,5.723l-0.081,4.217l0.278-0.189
			l1.851-1.459l1.995-1.577l1.835-0.109l1.249-0.849l1.638-1.622l0.846,0.645l2.143,0.17l2.159-1.16l1.646-0.772l1.398-0.097
			l1.032,1.042l1.896,1.455l1.155,1.546l0.664,1.277l0.378,2.532l-0.812,2.764l3.636-0.687l1.727,1.524l1.841,2.164l-1.1,2.771
			l-1.641,1.62l-0.29,1.519l0.224,1.372l3.465,1.674l3.119,0.549l2.083,1.126l1.472,0.523l0.988-1.384l-0.759-1.718l0.245-1.283
			l-1.46-1.851l0.911-2.56l0.162-6.337l0.985-2.52l-0.754-1.109c0,0,1.271-0.967,1.36-1.433c0.091-0.466,0.641-1.451,0.641-1.451
			l1.577-0.665l1.622-0.899l0.216,0.768l-1.272,0.965l-1.444,2.504l0.076,0.86l1.238,0.479l-0.407,4.032l-1.649,0.413l-0.259,2.609
			l0.374-0.051l1.086-1.244l0.917,1.508l-1.345,0.71l-0.7,2.405l1.399,2.807l2.73,0.886l1.276-0.363l1.76,3.468l0.906,0.574
			l5.188-1.102l2.004-2.627L608.872,207.628L608.872,207.628z M596.105,211.938l0.472,1.965l-0.129,1.309l0.561,1.497
			c0,0,0.762-0.52,0.808-0.755c0.044-0.231-0.103-2.317-0.103-2.317l-0.201-1.788L596.105,211.938L596.105,211.938z"/>
		<path id="FL_1_" fill="#DADED9" stroke="#AFB5AA" stroke-width="0.75" d="M531.435,323.248l0.712,4.724l1.406,6.358l2.471,6.309
			l1.745,4.258l2.558,3.88l2.221,2.712l0.74,1.949l-0.86,0.673l-0.65,0.705l1.114,4.861l1.574,2.093l1.116,3.544l1.693,3.938
			l2.068,5.53l0.057,4.786l-0.905,7.373l0.232,1.157l-0.553,2.042l-1.691,0.53l0.01,1.223l-0.613,1.118l-0.04,1.52l0.116,1.239
			l-2.098,1.684l-2.122,0.561l-2.509-0.314l-1.098,0.831l-1.659,0.336l-0.78-0.438l-0.632-0.715l0.09-1.813l-0.173-2.165
			l-1.655-3.528l-2.057-1.767l-2.458-0.612l-0.65,0.705l-1.529-2.997l-0.054-2.247l-1.251-2.75l-1.027-0.879l-1.252,1.111
			l-1.113-0.391l-0.837-3.289l-1.478-2.687l-1.323-3.575l-1.35-2.158l-1.908-2.655l1.599-1.261l2.639-3.018l0.059-1.003l-2.81-1.082
			l-1.104,0.227l0.141,0.43l1.565,0.867l-1.395,2.618l-0.569,0.206l-0.732-2.661l-0.337-3.107l0.071-1.716l1.411-2.712l-0.301-5.27
			l-1.593-2.604l-0.518-2.017l-1.952-1.716l-1.183-0.602l-0.741-1.955l-2.019-1.351l-0.382-2.202l-1.664-0.889l-1.183-2.532
			l-2.552-1.34l-1.722-1.202l-1.661,2.649l-2.679,0.061l-0.303,1.169l0.419,0.68l-0.427,0.643l-1.957-0.426l-2.753,1.775
			l-2.481,0.807l-2.495-0.414l-2.21,0.442l0.074-1.714l-0.842-1.36l-1.755-1.006l-0.89-1.064l-4.798-3.236l-4.703-1.902l-2.87,0.904
			l-3.896-0.345l-5.846,1.785l-1.564,0.603l-0.066-6.526l-1.465-1.463l-0.961-1.278l0.52-1.846l8.465-0.839l16.711,0.954
			l4.958-0.646l3.467,0.752l1.267,2.654l0.786,1.045l5.315,0.206l6.328-0.211l13.956,1.512l3.569,0.172l3.261,0.67l-0.021,1.827
			l1.354,0.733l0.617-2.81l-0.554-2.716l0.987-0.739l3.524,0.869L531.435,323.248L531.435,323.248z M526.003,405.611l1.625-0.133
			l0.858-0.013l1.173-1.276l1.671-0.74l0.783,0.435l1.056,0.383l0.152,0.686l-2.356,0.372l-2.85,0.436l-1.628,0.492L526.003,405.611
			L526.003,405.611z M535.188,403.993l0.673,0.769l1.982-0.99l3.856-2.004l2.785-1.975l2.287-3.785l0.797-0.936l0.449-2.059
			l-0.518,0.218l-0.914,1.627l-1.402,2.664l-2.612,2.872l-3.237,2.103l-2.378,0.823L535.188,403.993L535.188,403.993z"/>
		<path id="NH_1_" fill="#DADED9" stroke="#AFB5AA" stroke-width="0.75" d="M660.133,137.597l0.817-0.599l2.374-2.129l-1.634-1.131
			l0.238-2.271l-2.538-1.54l0.291-2.01l-0.719-18.018l-0.51-12.168l-1.609-0.173l-0.769,1.023l-0.366-0.466l-0.504-0.873
			l-1.399,1.101l-0.988,4.537l-0.855,4.082l0.858,2.318l-0.768,2.87l-3.598,2.886l-2.051,0.314l-0.216,0.802l0.47,1.479l-2.6,5.105
			l-2.323,6.388l-1.035,3.408l0.446,1.104l-0.973,3.184l-0.683,1.167l0.555,0.691l13.727,1.015l1.659-0.016l1.835-1.618
			L660.133,137.597L660.133,137.597z"/>
		<g id="MI_1_" i:knockout="Off">
			<path id="MI-_1_" fill="#DADED9" stroke="#AFB5AA" stroke-width="0.75" d="M518.936,135.828l-1.587-6.549l-0.774-7.056
				l-1.493-2.688l-1.767-1.606l-1.336,0.686l-3.108,0.941l-1.977,3.577l-2.457,2.519l-0.919,0.372l-1.028-0.638
				c0,0-1.801-1.362-1.611-1.834c0.187-0.471,0.883-3.729,0.883-3.729l2.689-0.623l0.961-2.476l0.755-1.882l1.995-0.969l0.786-7.59
				l-0.985-1.871l-0.89-0.743l-0.394-1.668l0.693-0.526l1.184,0.411l0.289-1.201l-1.593-1.955l-0.711-2.085l-1.947-0.267
				l-3.264-1.561l-3.793-3.126l-2.07-0.283l-0.554,0.42l-0.684-0.464l-2.079-2.024l-2.377,1.041l-2.427,1.408l-0.124,2.712
				l0.698,0.345l1.535,0.581l0.282,0.66l-2.034,0.343l-1.983-0.022l-1.278,1.189l-0.463,1.55l0.08,1.252l-0.324,4.177l-2.896,1.218
				l-0.473-0.189l0.433-3.168l1.227-1.694l0.737-1.761l-0.528-0.693l-1.543,0.41l-1.165,3.068l-2.188,0.568l-1.54,1.28l-0.224,0.713
				l0.405,0.677l-0.756,1.884l-1.754,0.13l-0.117,0.854l0.359,1.911l-1.487,4.513l-1.633,2.882l0.003,3.6l0.249,0.9l-0.858,1.744
				L469.661,124l-0.527,2.039l2.062,4.876l1.527,5.172l0.598,3.807l-1.092,3.45l-1.349,4.408l-2.361,3.648l-0.526,2.037l-2.774,1.99
				l3.341,0.334l16.375,0.501l5.588,0.007l-0.099,1.264l5.288-0.206l7.918-0.073l2.952,0.049l0.166-0.426l0.271-1.082l1.969-2.584
				l1.685-1.104l0.355-3.831l1.368-1.04l0.856-0.146l0.534-2.658l1.469-2.125l0.73,0.562l0.056,0.506l0.593,0.205l1.562-0.529
				L518.936,135.828L518.936,135.828z"/>
			<path id="SP-_1_" fill="#DADED9" stroke="#AFB5AA" stroke-width="0.75" d="M435.981,53.418l1.514-1.503l1.719-0.513l4.342-2.745
				l1.795-0.329l0.33,0.374l-4.227,3.728l-2.656,1.342l-1.635,0.607L435.981,53.418L435.981,53.418z M501.046,82.43l0.379,1.97
				l2.492,0.28l1.06-0.874c0,0,0.007-1.129-0.234-1.27c-0.241-0.142-1.159-1.517-1.159-1.517l-1.699,0.083l-1.259,0.046l-0.304,0.86
				L501.046,82.43L501.046,82.43z M422.672,75.273l0.583-1.389l3.139-0.492l2.859-1.577l0.046-0.751l0.53-0.467l4.674-0.461
				l1.969-1.382l3.475-1.413l0.188-0.994l1.641-2.154l1.415-0.538l1.086-0.337l1.86-1.641l3.49-1.665l3.648-0.147l0.82,0.929
				l-0.297,0.735l-2.922,0.572l-1.274,2.302l-1.786,0.516l-0.494,1.851l-2.03,2.381l-0.376,1.984l0.602,0.415l0.805-0.828
				l2.89-2.077l0.937,1.063l1.751,0.11l2.454,0.905l1.066,0.946l0.978,2.445l1.993,2.258l3.006,0.064l1.172-0.68l1.188,1.078
				l1.226,0.453l1.039-0.562l0.874,0.054l1.298-0.671l3.297-2.553l2.68-0.71l5.139,0.07l3.594-1.28l2.062-0.874l1.116,0.195
				l-0.275,4.375l0.362,0.273l2.209,0.765l1.523-0.282l4.829-0.951l0.928-0.821l1.103,0.447l-0.337,5.374l2.35,2.532l0.97,0.562
				l0.95,0.814l-1.013,0.185l-0.611-0.288l-2.851-0.555l-1.655,0.398l-1.742-0.234l-2.569,0.967l-1.374-0.086l-4.438-1.282
				l-4.008-0.128l-1.624,1.907l-5.406,0.164l-1.915,0.508l-1.021,2.322l-1.057,0.81l-0.365-0.148l-1.047-1.32l-3.616,1.656
				l-0.503-0.031l-0.795-1.305l-0.633,0.085l-1.711,3.28l-0.947,3.08l-2.796,5.257l-0.859-0.857l-1.011-0.865l-2.896-8.02
				l-0.781-1.258l-1.474-1.867l-9.24-2.707l-2.159-0.934l-6.257-2.081l-6.042-1.265l-3.619-2.562L422.672,75.273z"/>
		</g>
		<path id="VT_1_" fill="#DADED9" stroke="#AFB5AA" stroke-width="0.75" d="M630.893,138.59l1.036-3.798l-0.455-8.191l-0.418-0.327
			l-1.894-1.371l1.02-1.969l-0.263-1.634l-1.242-3.743l1.28-2.643l0.197-3.842l-0.768-5.014l0.165-3.661l22.934,0.119l-0.611,4.015
			l0.967,2.261l-0.61,2.906l-3.427,3.079l-2.035,0.431l-0.175,0.804l0.71,1.288l-2.418,4.802l-2.808,6.564l-1.002,3.962l0.502,1.077
			l-0.805,3.262l-0.603,1.141l0.618,0.676l-6.55-0.037L630.893,138.59L630.893,138.59z"/>
		<path id="ME_1_" fill="#DADED9" stroke="#AFB5AA" stroke-width="0.75" d="M704.874,98.125l0.957,1.871l0.864,3.077l-0.384,1.373
			l-2.414,2.9l-1.5,0.075l-3.008,1.501l-6.469,4.879c0,0-0.459-0.129-0.916-0.257c-0.461-0.127-0.271-1.679-0.271-1.679
			l-1.288-0.237l-0.978,0.837l-2.001,0.549l-0.976,0.837l0.857,1.35l-0.473,0.361l-0.89,1.848l-1.338-0.498l0.32-1.144l0.027-0.978
			l-1.095-0.06l-0.617-2.64l-1.743,0.499l0.628,1.286l0.003,0.866l-0.824,0.754l-0.379,2.238l-0.208,1.176l-1.654,1.511
			l-2.156-0.233l-0.806,1.994l-4.382,1.117l-1.012,0.086l-0.853-1.349l-2.879,1.907l0.049,2.482l-1.286,0.625l-1.483,4.273
			l-0.976,3.547l-2.575-0.648l0.266-2.27l-2.52-1.567l0.312-2.009l-0.001-19.237l-0.426-11.288l1.03,0.198l0.988,0.589l0.51-1.829
			l1.818-2.922l2.758-2.806l1.828-2.571l-0.895-2.101l1.184-4.231l0.764-0.526l1.117-1.784l1.148-3.986l0.846-3.463l2.218-3.079
			l3.817-5.716l3.292-3.532l0.918,0.256l0.886,0.37l-0.227,0.803l0.466,1.856l1.817,1l0.732-0.412l0.191-0.685l3.436-1.26
			l1.609-0.907l0.998,0.403l3.752,2.899l1.179,1.07l0.487,24.9l4.229,1.184l0.191,1.533l-0.846,3.462l1.61,2.177l0.573,0.162
			l0.21-0.312l-0.119-0.897L704.874,98.125L704.874,98.125z M682.15,117.26l1.391-0.782l0.766,1.015l-0.084,1.828l-1.375,0.291
			L682.15,117.26z M688.065,114.414l0.889,1.667c0,0,0.9,0.312,0.965,0.083c0.063-0.229,0.569-1.382,0.569-1.382l0.789-0.395
			l-0.22-1.418l-1.572,0.114L688.065,114.414z"/>
		<path id="NY_1_" fill="#DADED9" stroke="#AFB5AA" stroke-width="0.75" d="M612.838,161.17l-0.697-0.842l-1.853-0.441l-1.396-1.688
			l-0.414-4.642l-2.511-0.369l-1.432-2.266l-14.578,0.744l-32.224,0.929l-5.604-0.052l0.274-4.775l1.175-0.636l1.077-0.657
			l0.907-1.049l1.426-0.598l1.628-1.043l0.556-1.11l1.863-1.725l0.941-0.562l0.004-0.721l-0.551-2.387l-1.267-0.339l-0.633-4.69
			l2.329-0.922l3.34-0.508l3.087-0.43l2.404,0.055l4.582,0.673l1.242,1.18l1.151,0.317l1.682-0.672l2.013-0.494l3.809,0.299
			l1.742-1.025l1.693-2.117l1.413-1.201l1.521,0.262l1.547-0.576l0.402-1.617l-0.793-1.706l-0.051-1.092l1.083-1.38l0.182-1.053
			l-1.287-0.223l-1.187-0.809l-0.442-0.921l0.206-1.892l4.902-3.25l0.566-0.504l1.42-1.924l2.673-2.912l2.455-2.346l1.825-1.492
			l1.979-1.021l2.385-0.515l4.14-0.247l2.321,0.523l3.46-0.487l10.609,0.423l-0.247,3.67l0.943,4.985l-0.063,3.846l-1.188,2.686
			l1.306,3.603l0.324,1.623l-0.952,2.004l1.943,1.301l0.43,0.315l0.844,8.343l-1.022,3.594l-1.707,7.781l-0.104,4.078l0.14,2.676
			l0.142,5.449l-1.014,5.853l-1.101,1.495l1.081,1.673l0.366,1.315l-1.626,1.044l0.071,0.976l0.976-0.07l1.216-0.754l1.962-1.59
			l0.901-0.325l1.09,0.669l1.618,0.403l6.217-1.817l2.453-1.626l1.119-0.89l2.842,1.697l-2.903,2.146l-3.176,1.622l-5.817,2.972
			l-1.992,0.377l-4.455,0.677l-4.043,1.285l-0.787-0.531l0.288-2.702l-2.23-0.952l0.146-1.543l-3.771-3.53l-3.154-2.246
			l-2.669-1.307L612.838,161.17L612.838,161.17z"/>
		<path id="PA_1_" fill="#DADED9" stroke="#AFB5AA" stroke-width="0.75" d="M606.075,184.801l0.978-0.076l2.789,0.28l1.118-1.696
			l1.391-1.494l2.646-1.935l0.077-0.589l-1.617-1.406l-2.363-2.102l-0.464-1.977l-1.972-0.493l-0.011-0.841l-0.331-2.076
			l1.754-0.611l0.348-1.752l-0.822-1.064l0.271-1.164l1.701-2.055l0.289-2.238l2.214-1.672l-0.606-0.58l-1.819-0.377l-1.489-1.631
			l-1.531-5.576l-2.563-0.255l-1.536-2.202l-13.573,1.359l-32.153,1.346l-6.611,0.223l0.157-3.833l-4.383,3.188l-0.987,0.23
			l-3.345,1.797l-2.603,14.219l0.894,7.32l0.79,14.37l5.37-0.157l7.404-0.301l22.666-0.974l10.236-0.731l7.994-0.646l6.2-0.403
			l0.218-0.147l1.682-0.979L606.075,184.801L606.075,184.801z"/>
		<path id="NJ_1_" fill="#DADED9" stroke="#AFB5AA" stroke-width="0.75" d="M612.888,159.623l-1.83,1.897l-0.145,2.253l-1.566,2.161
			l-0.191,1.177l0.887,1.009l-0.232,1.769l-1.713,0.727l0.465,2.051l0.065,0.836l2,0.367l0.591,1.941l2.492,1.943l1.703,1.301
			l-0.038,0.59l-2.313,1.84l-1.929,0.35l-1.532,2.205l-0.744,1.818l-0.413,1.153l-0.233,0.878l-0.572,1.88l0.698,1.699l2.235,2.284
			l3.446,1.886l2.933,0.662l0.052,1.076l-0.638,0.673l0.11,2.029l0.592,0.036l1.651-1.678l0.819-3.519l2.207-2.834l2.552-4.598
			l1.088-3.977l-0.421-0.861l0.32-6.881l-1.024-2.562l-0.871,0.539l-2.03,0.108l-0.333-0.378l0.876-0.66l1.632-1.323l0.097-0.8
			l-0.118-2.536l0.548-1.985l0.004-1.449l-1.976-1.418l-3.679-1.098l-2.969-1.206L612.888,159.623L612.888,159.623z"/>
		<path id="DE_1_" fill="#DADED9" stroke="#AFB5AA" stroke-width="0.75" d="M603.146,188.509l0.652-1.461l0.674-1.803l-1.324,0.656
			l-2.611-0.05l-1.892,0.854l0.304,3.9l0.576,4.442l0.722,7.419l0.383,4.732l3.594,0.803l4.586,0.274l-0.263-5.665l-0.779,0.169
			l-2.09-2.377l-0.407-3.66l-0.732-2.885l-1.715-2.615l-0.23-1.65L603.146,188.509L603.146,188.509z"/>
		<path id="VA_1_" fill="#DADED9" stroke="#AFB5AA" stroke-width="0.75" d="M603.68,211.457l0.165-1.422l5.013-0.937l-1.007,2.214
			l-2.635,2.316l-0.944,3.247l-0.142,2.511l-2.014,3.335l-1.828,1.079l-0.412-3.556l1.085-3.865l1.73-2.794L603.68,211.457
			L603.68,211.457z M599.202,239.162l-43.716,0.927l-27.728-1.433l-4.768-1.205l-2.134,1.029l-5.322-0.867l-6.181-0.467l-8.1-0.364
			l8.338-2.584l0.279-1.494l1.396-1.335l13.12-9.744l2.222,3.779l2.593,1.227l1.995-0.468l1.795-0.633l1.643,1.326l0.097,0.491
			l1.992-3.024l1.8,0.754l2.357-1.138l1.229,0.612l2.554-2.26l0.542-1.452l-0.516-1.054l0.985-1.209l4.544-6.163l3.199-6l0.96-0.209
			l1.229,2.069l2.881,0.332l0.501-3.241l2.094-0.988l1.142-1.828l2.188-1.332l2.794-2.745l0.771-3.643l6.549,4.133
			c0.441,0.34,1.307-3.525,1.307-3.525l2.409,1.661l-0.357,2.13l3.99,1.747l1.371,1.146l0.91,1.716l-0.984,2.541l-1.766,1.594
			l-0.209,1.501l0.164,1.417l3.414,1.61l3.207,0.652l2.077,1.122l1.359,0.498l0.082,2.325l2.242,0.737l0.46,0.983l-0.973,3.323
			l0.837,0.987l-0.618,1.325l1.755,0.743l-0.355,0.964l-1.928-0.441l-0.162,1.177l1.428,1.432l-0.11,1.035l1.028,1.535l-0.972-0.061
			l0.589,1.77l2.718-0.237L599.202,239.162L599.202,239.162z"/>
		<path id="WV_1_" fill="#DADED9" stroke="#AFB5AA" stroke-width="0.75" d="M555.585,188.591l0.056,3.726l-0.137,4.498l1.921-1.533
			l2.093-1.862l1.917-0.061l0.292-0.823l1.67-1.59l0.939,0.686l2.141,0.207l2.18-1.117l2.64-0.743l1.399-0.066l0.783,0.927
			l2.343,1.863l1.124,1.572l0.792,1.138l-1.391,4.851l-3.809-2.708l-2.807-1.812l-0.855,3.707l-2.816,3.563l-2.184,1.359
			l-2.251,1.797l-1.975-0.04l-1.194,2.453l-1.349,2.678l-2.902-0.355l-1.299-2.106l-0.854,0.241l-1.284,3.837l-1.506,2.338
			l-5.228,7.12l0.469,0.97l-0.438,1.345l-2.608,2.363l-1.216-0.664l-2.461,1.102l-1.739-0.796l-2.13,2.972
			c0,0-2.561,0.53-3.028,0.387c-0.113-0.034-1.585-1.272-1.585-1.272l-1.888,0.64l-1.891,0.384l-2.557-1.206l-0.629-1.008
			l-1.117-2.506l-1.958-1.909l-0.682-2.864l-2.553-3.141l-0.123-1.726l-1.636-1.438l-0.338-1.284l0.62-3.813l1.58,0.273l1.518-0.286
			l0.536-1.953l1.382-0.799l0.873-3.578l1.287-2.642l1.025-0.272l0.758,1.015l0.082,1.349l1.424-0.424l0.593-1.089l-0.542-1.453
			l0.367-1.741l0.892-0.782l2.144-2.098l1.152-0.852l1.435,0.667l1.872-0.819l2.725-1.974l2.213-2.446l1.092-4.02l1.106-3.525
			l0.711-3.372l-0.35-2.38l0.919-0.896l1.12-0.737l0.479,14.783l3.441,0.16l9.206-0.385H555.585z"/>
		<path id="OH_1_" fill="#DADED9" stroke="#AFB5AA" stroke-width="0.75" d="M542.893,153.072l-5.718,2.489l-3.082,1.173
			l-0.959,1.314l-3.392,2.326l-2.441,0.198l-2.167,0.001l-4.296,1.217l-1.542-0.137l-2.092-2.634l-3.827-0.149l-1.699,0.582
			l-1.564-1.266l-4.606-1.049l-7.573-0.051l-8.386,0.237l0.159,11.733l-0.36,10.174l-0.939,17.298l-0.169,3.571l3.004,0.398
			l1.855-0.292l2.257,1.495l0.974,3.407l3.729,0.606l1.115,1.764l1.283,0.162l2.003-0.668l1.771,0.57l3.871,1.003l1.508-1.341
			l1.854-0.655l1.584-0.246l0.138,2.071l1.174,0.918l2.235,2.113l1.593,0.205l1.026-0.2l0.464-1.977L523,208.57l0.646-3.46
			l1.238-2.858l1.008-0.278l0.822,0.991l0.187,1.295l1.37-0.547l0.491-1.005l-0.578-1.515l0.324-1.669l0.672-0.689l1.959-2.135
			l0.945-0.994l1.467,0.604l1.833-0.9l0.682-3.069l2.501-2.622l0.836-3.625l0.955-3.575l0.508-3.865l-0.345-2.214l0.399-0.82
			l1.646-1.263l0.163-7.798l0.163-11.861V153.072z"/>
		<path id="IN_1_" fill="#DADED9" stroke="#AFB5AA" stroke-width="0.75" d="M448.223,219.653l0.333-2.144l0.813-3.362l1.995-1.965
			l1.724-2.746l2.363-2.907l0.213-4.432l-1.062-2.245l0.072-2.465l1.156-4.059l0.326-5.284l0.615-12.177l0.551-11.69l0.434-8.923
			l2.224,0.976l0.999,0.873l0.883-0.131l1.777-1.252l2.293-0.936l3.85,0.383l16.777,0.48l4.251,0.15l-0.452,12.165l-0.457,28.162
			l-0.123,4.405l-0.506,1.664l0.748,1.473l-0.065,1.05l-2.057,0.949l-2.82,0.816l-2.464,0.098l-0.935,3.604l-3.772,2.044
			l-2.504,2.739l0.008,1.823l-0.59,1.096l-2.506-0.33l-1.033-1.375l-2.001,0.706l-2.171,0.863l-0.182,2.313l-0.926,0.074
			l-0.248-0.81l-1.484-1.347l-2.582,0.686l-1.464,2.113l-1.003-0.753l-0.938-1.351l-3.411-0.074l-4.306,0.173L448.223,219.653
			L448.223,219.653z"/>
		<path id="IL_1_" fill="#DADED9" stroke="#AFB5AA" stroke-width="0.75" d="M451.515,218.32l0.187-2.396l0.653-3.416l1.879-2.047
			l1.59-2.932l1.856-2.854l-0.011-3.917l-1.31-2.727l0.097-2.486l0.781-3.876l-0.254-5.369l0.002-11.759l0.771-10.235l-0.1-8.684
			l-0.156-0.696l-0.47-1.959l-0.772-2.824l-1.113-1.399l-0.947-1.993l0.103-4.085l-38.011-1.349l0.049,1.771l1.664,0.626l0.62,0.894
			l0.247,1.38l2.711,2.74l0.396,1.73l-0.683,2.51l-1.541,2.625l-0.635,1.83l-1.788,1.24l-1.39,0.418l-3.973,0.754l-0.601,1.322
			l-0.612,1.493l0.44,1.052l1.276,1.28l-0.378,3.042l-1.437,1.095l-0.589,1.153l-0.138,2.034l-1.379,0.25l-1.247,0.768l-0.239,1.005
			l0.067,1.538l-1.34,0.887l2.021,2.03l0.156,2.736l1.33,5.544l5.048,5.965l3.888,2.991l-0.387,3.211l0.607,1.063l4.729,0.66
			l1.967,1.155l-0.692,2.683l-1.995,4.293l-0.67,2.339l1.5,3l4.484,4.224l3.359,0.739l1.275,3.837l1.365,2.476l-0.827,2.16
			l0.979,3.134l1.255,1.62l1.092-0.582l0.776-1.496l1.73-1.184l1.615-0.349l1.871,1.008l2.622,1.2l0.897-0.158l0.262-1.667
			l-0.834-1.854l0.348-1.75l1.43-0.907l2.283-0.449l0.959-0.276l-0.384-1.061l-0.472-1.786l1.113-0.657L451.515,218.32
			L451.515,218.32z"/>
		<path id="CT_1_" fill="#DADED9" stroke="#AFB5AA" stroke-width="0.75" d="M653.764,160.17l-0.263-11.225l-7.937,0.451
			l-16.13,0.352l0.197,2.461l0.844,5.466l-1.229,6.472l-1.157,1.391l1.015,1.664l3.497-2.197l2.913-1.816l1.637-1.234l0.452,0.578
			l2.096-0.652l3.69-0.075l5.792-1.172L653.764,160.17z"/>
		<path id="WI_1_" fill="#DADED9" stroke="#AFB5AA" stroke-width="0.75" d="M454.444,143.859l0.053-2.438l-0.76-4.508l-0.299-4.76
			l-0.793-1.908l0.848-2.338l0.721-2.221l1.207-1.947l0.586-0.69l-0.382-2.765l0.435-1.357l1.575-1.807l0.214-2.115l-0.579-1.024
			l0.583-1.975l-0.213-3.234l2.307-4.275l2.469-5.143l0.199-1.741l-0.22-0.758l-0.638,0.347l-3.453,4.727l-2.25,3.027l-1.555,1.31
			l-0.7,1.717l-1.535,0.561l-0.937,1.459l-1.111-0.297l-0.064-1.377l1.074-1.827l1.774-3.55l1.427-1.188l2.791-2.764l-1.912-1.55
			l-3.134-10.988l-2.692-1.154l-1.426-1.844l-9.271-2.498l-2.184-0.874l-6.27-1.942l-6.07-1.155l-2.734-4.082l-0.6,0.403
			l-0.918-0.164l-0.463-0.895l-1.039,0.185l-0.877,0.089l-1.404,0.689l-0.727-0.531l0.562-1.476l-0.354-1.33l0.911-0.836
			l-1.448-1.188l-1.65,0.555l-2.307,1.402l-5.844,2.25l-2.268,0.405l-2.229-0.47l-0.729-0.712l-1.729,2.118l-0.267,2.111
			l-0.278,6.528l-0.932,1.196l-4.186,2.827l-1.959,4.51l0.346,0.193l1.873,1.668l0.424,2.495l-1.518,2.407l-0.128,3l0.138,5.13
			l2.192,2.391l2.647,0.113l1.307,2.53l2.632,0.464l2.812,4.538l5.333,3.407l1.497,2.185l0.462,5.764l0.422,2.578l1.71,1.312
			l0.132,1.068l-1.7,2.577l0.071,2.477l1.812,3.083l1.904,0.964l2.278,0.448l0.989,2.086l35.041-0.574L454.444,143.859z"/>
		<path id="NC_1_" fill="#DADED9" stroke="#AFB5AA" stroke-width="0.75" d="M599.353,237.969l-0.77,5.01l1.557,4.474l1.274,1.796
			l0.167,1.503l-1.555-0.155l0.442,0.492l-0.652,2.627l-0.384,1.396l-1.298,0.569l-1.139,1.624l-1.056,1.624l-1.619,1.76
			l-0.898,2.468l-3.177,2.315l-0.818-0.141l0.57,1.565l-3.045-1.877l-3.533,0.979l-4.665,2.683l-2.652,2.601l-1.926,3.886
			l-0.565,1.483l-3.019-0.197l-5.545,1.235l-5.416-6.259l-7.165-6.166l-1.757,0.152l-8.137-0.433l-2.789,0.02l-0.677-2.225
			l-1.65-1.657l-10.49-1.464l-4.692-0.27l-6.216,1.893l-4.167,0.977l-18.557-0.636l0.753-2.513l1.282-0.73l2.784-1.089l0.805-2.282
			l2.957-1.289l2.612-0.504l3.044-1.799l2.987-2.812l0.74-1.875l2.872-2.042l0.426-0.033c0,0-0.121,0.718,0.392,0.805
			c0.511,0.086,1.193,0.411,1.193,0.411l1.813-2.008l1.4-0.184l1.397,0.448l1.405-2.077l2.119-1.324l0.534,0.673l2.458-4.242
			l2.71,0.447l8.549,0.229l10.217,0.271l9.806,0.301l14.926-0.433l15.178-0.461l7.333-0.323l0.529,0.468L599.353,237.969z
			 M596.927,261.12l1.908-1.309l2.271-1.298l1.046-0.246l0.318-1.263l0.249-3.958l-0.667-1.637l-0.215-1.248l0.489-0.071l1.15,3.772
			l-0.224,2.854l-0.465,2.132l-2.313,0.609l-2.051,1.229l-0.848,0.648l-0.647-0.216H596.927z"/>
		<path id="MA_1_" fill="#DADED9" stroke="#AFB5AA" stroke-width="0.75" d="M667.438,160.249l1.581-0.183l0.573-1.168l0.683,0.23
			l0.357,1.789l-0.925,0.152l-2.665-0.475L667.438,160.249z M660.929,159.485l1.957-1.562l1.09,0.228l1.021,1.328l-1.791,0.397
			l-1.635,0.43L660.929,159.485L660.929,159.485z M640.538,138.706l12.723-0.817l1.639-0.142l1.725-1.735l2.796-0.663l1.305,3.587
			l-2.431,3.372l-0.442,1l0.934,2.138l0.892-0.42l1.211,0.252l1.153,2.186l1.74,4.855l2.352,0.855l1.687-0.373l1.479-1.025
			l-0.137-2.09l-1.186-1.464l-1.114,0.374l-0.464-1.068l0.402-0.28l1.455,0.185l1.09,0.834l0.955,2.021l0.225,2.232l-0.146,1.789
			l-3.081,0.444l-2.938,0.841l-3.324,2.701l-1.54,0.768l0.146-0.697l1.869-0.701l0.601-1.207l-0.089-2.326l-2.202,0.633l-0.769,0.93
			l-0.012,1.698l-1.558,0.423l-1.189-3.648l-1.654-3.623l-1.137-1.598l-4.736,0.415l-3.625,0.027l-15.705,0.36l0.265-3.523
			l2.036-7.522l3.982-0.036L640.538,138.706L640.538,138.706z"/>
		<path id="TN_1_" fill="#DADED9" stroke="#AFB5AA" stroke-width="0.75" d="M499.735,236.267l-38.297-0.611l-10.676-0.974
			l-3.415-0.005l-2.823-0.339l-0.498,2.977l-5.997-0.479l-5.128-0.103l-6.87,2.171l-1.614,5.046l-1.689,3.859l-2.629,1.738
			l-1.348,3.088l-0.447,1.863l-3.137,1.319l0.771,2.716l-1.067,3.108l-0.772,0.496l80.941-0.771l0.623-2.853l1.441-0.94l2.132-0.312
			l0.794-2.656l2.088,0.425l3.075-0.756L508.47,252l3.404-1.113l0.633-2.194l3.296-2.574l0.41-0.042c0,0-0.072,0.832,0.521,0.897
			c0.588,0.067,1.388,0.417,1.388,0.417l1.945-2.429l1.564-0.304l1.636,0.401l1.46-2.446l3.459-0.989l0.472-1.377l0.53-2.687
			l-2.64-1.021l-2.064,1.265l-5.109-0.552l-13.598,0.233l-6.041,0.73V236.267z"/>
		<path id="AR_1_" fill="#DADED9" stroke="#AFB5AA" stroke-width="0.75" d="M430.556,246.27l-2.914,0.364l-3.688-0.657l0.366-1.141
			l2.263-1.752l-0.148-2.619l-1.215-2.229l-57.016-1.191l0.898,5.038l-0.316,5.974l0.572,8.019l-1.293,27.477l1.586,1.493
			l2.211-0.878l1.946,0.938l2.864,5.266l37.793,0.844l0.912-1.473l-0.072-2.588l-1.211-2.229l1.219-1.016l-1.062-1.885l0.593-1.796
			l1.209-4.018l1.907-1.397l-0.412-1.685l2.863-3.76l2.046-0.886l-0.025-1.088l-0.183-1.34l2.291-3.951l1.793-0.824l0.41-2.47
			l1.334-0.834l-2.264-0.478l-0.82-2.958l2.128-1.617l0.477-1.443l1.086-2.889L430.556,246.27L430.556,246.27z"/>
		<path id="MO_1_" fill="#DADED9" stroke="#AFB5AA" stroke-width="0.75" d="M408.769,176.241l-1.851-2.27l-0.842-1.681l-48.253,2.74
			l-1.68,0.084l0.923,1.846l-0.167,1.681l1.848,2.857l2.269,3.021l2.267,2.015l1.586,0.169l1.102,0.672v2.184l-1.343,1.177
			l-0.337,1.68l2.486,1.544l1.847,2.183l1.849,1.343l1.008,8.566l0.229,26.501l0.17,3.441l0.335,3.957l16.48-0.638l17.047-0.503
			l11.384,0.385l8.563-0.169l0.705,1.383l0.162,2.761l-2.112,1.705l-0.488,1.219l4.087,1.334l2.861-0.506l1.262-4.038l0.479-4.303
			l1.54-1.875l1.906-1.093l3.938-3.216l0.746-1.425l-1.246-1.865l-0.978,0.721l-1.461-1.635l-0.945-3.495l0.587-1.853l-1.427-2.518
			l-1.346-3.36l-3.527-0.587l-5.118-4.115l-1.262-3.021l0.587-2.352l1.513-4.45l0.338-2.104l-1.433-0.76l-5.035-0.585l-0.754-1.257
			l-0.085-3.107l-4.028-2.521l-5.126-5.711l-1.681-5.374l-0.168-3.104L408.769,176.241L408.769,176.241z"/>
		<path id="GA_1_" fill="#DADED9" stroke="#AFB5AA" stroke-width="0.75" d="M478.262,261.846l-0.109,1.387l-0.005,1.341l0.237,2.187
			l1.753,5.204l1.036,6.385l0.611,3.978l0.778,3.16l0.569,4.486l1.017,4.108l1.466,2.289l0.14,2.182l1.188,0.613l-0.003,1.341
			l-1.379,2.989l-0.471,2.03l-0.203,1.225l0.807,2.853l-0.067,3.401l-0.636,1.5l0.365,0.545l0.885,0.586l-0.034,2.054l1.25,2.243
			l2.344,3.097l3.777,0.121l8.408-0.121l12.187,1.34l5.167,0.886l2.906,0.252l-0.044,1.854l1.602,0.646l0.426-2.753l-0.796-2.958
			l0.803-0.969l3.317,0.762l3.923,1.182l-0.364-4.63l1.363-6.381l2.471-1.929l-0.177-1.667l2.437-3.793l-0.256-0.886l-1.25,0.349
			l0.043-1.535l-0.303-1.367l-0.642-2.325l-1.328-1.447l-1.609-0.542l-1.871-6.183l-1.536-4.174l-2.566-1.446l-1.238-1.338
			l-0.686-1.708l-1.239-1.339l-1.371-0.937l-1.288-1.963l-1.835-1.591l-2.783-1.362l-0.236-0.947l-1.388-1.972l-0.237-0.948
			l-1.902-3.33l-0.317,0.086l-2.265-1.688l-0.832-0.891l-0.117-1.146l0.654-1.188l1.468-0.59l-0.293-1.366L478.262,261.846
			L478.262,261.846z"/>
		<path id="SC_1_" fill="#DADED9" stroke="#AFB5AA" stroke-width="0.75" d="M537.53,304.183l-2.113,0.324l-0.281-1.635l-0.18-1.351
			l-0.427-2.309l-1.17-1.518l-1.518-0.663l-2.112-6.173l-1.066-3.943l-2.373-1.619l-1.085-1.401l-2.28-1.595l-1.084-1.402
			l-1.253-1.022l-1.085-2.015l-1.646-1.698l-2.588-0.903l-0.146-1.59l-1.315-1.334l-0.148-0.938l-0.99-1.661l-1.675-1.677
			l-2.225-1.899l-0.657-0.927l-0.015-1.119l0.694-1.103l1.483-0.361l-0.078-1.452l3.771-0.838l6.047-1.872l4.839,0.305l9.902,1.396
			l5.907,2.064l0.683,2.229l2.695,0.065l7.863,0.406l1.696,0.794l6.935,5.945l5.349,6.007l-3.875,2.781l-2.215,3.493l-0.942,3.807
			l-1.073,0.327l-0.976,1.565l-1.548,0.146l-1.651,1.962l-1.965,1.398l-1.733,1.844l-1.074,0.331l-2.524,1.707l-1.794-0.198
			l0.259,2.079l-3.629,2.848l-2.152,1.58L537.53,304.183z"/>
		<path id="KY_1_" fill="#DADED9" stroke="#AFB5AA" stroke-width="0.75" d="M524.954,225.829l-1.885,1.389l-2.967,2.337
			l-4.078,3.195l-1.051,1.042l-0.3,1.452l-3.303,0.969l-4.337,1.669l-5.234,0.367l-33.651-0.95l-11.149-0.679l-3.266-0.206
			l-2.682-0.491l-0.67,2.9l-5.692-0.891l-5.876,0.58l-5.533-1.012l1-0.774l1.918-0.761l0.549-2.194l0.855-1.157l-2.756-4.88
			l0.788-1.226l1.785-0.962l1.538-0.191l1.748,1.229l2.311,1.331l0.826-0.09l0.385-1.547l-0.602-1.839l0.498-1.531l1.524-0.773
			l1.871-0.136l1.2-0.254l-0.346-1.332l-0.211-1.422l1.166-0.509c0.005-0.024,1.297-2.291,1.303-2.388l2.298-0.655l3.81-0.023
			l3.175,0.21l0.769,1.297l0.953,0.789l1.482-1.964l2.366-0.502l1.351,1.298l0.162,0.745l0.845-0.042l0.249-2.07l2.384-0.834
			l1.62-0.48l0.857,1.336l2.309,0.373l0.599-1.02l0.02-1.615l2.288-2.457l3.732-1.803l1.074-3.271l2.087,0.037l2.832-0.683
			l1.899-0.883l0.055-1.111l-0.617-1.147l0.758-2.01l2.915,0.426l1.688-0.235l2.15,1.396l0.894,3.275l3.559,0.632l1.153,1.78
			l1.14,0.094l1.96-0.569l3.565,1.031l1.76,0.464l1.417-1.222l1.991-0.669l1.393-0.262l0.101,2.043l1.292,0.984l1.58,1.765
			l-0.607,3.949l0.371,1.19l1.606,1.394l0.258,1.686l2.469,2.889l0.809,2.734L524.954,225.829L524.954,225.829z"/>
		<path id="AL_1_" fill="#DADED9" stroke="#AFB5AA" stroke-width="0.75" d="M446.13,327.38l-0.332-9.618l0.016-10.656l0.748-9.368
			l1.949-20.657l0.653-11.108l0.401-4.271l34.396-0.407l-2.148,1.449l0.011,1.405l0.272,2.295l-1.045,5.437l1.149,6.68l0.681,4.166
			l0.845,3.305l0.644,4.7l1.097,4.298l1.554,2.381l0.166,2.287l1.24,0.627l0.012,1.405l-1.395,3.151l-0.467,2.137l-0.193,1.284
			l0.864,2.984l-0.029,3.57l-0.643,1.584l0.391,0.566l0.923,0.601l0.085,1.942l-3.679-0.49l-4.508,0.127l-16.015-0.198l-5.201,1.168
			l-2.01,1.206l1.092,1.266l1.618,1.412l-0.951,5.316l-3.776,1.466l-6.182-3.181l-0.42-0.137L446.13,327.38L446.13,327.38z"/>
		<path id="LA_1_" fill="#DADED9" stroke="#AFB5AA" stroke-width="0.75" d="M431.647,324.656l-1.972-2.053l0.761-3.404l-0.39-0.571
			l-5.797,0.405l-15.608-0.314l-0.367-1.511l0.771-5.245l2.208-3.623l3.346-5.298l-0.3-1.511l0.799-0.394l0.333-1.205l-1.375-1.337
			l-0.023-1.213l-1.037-2.753l0.061-3.955l-36.543-0.756l-0.213,5.969l2.152,5.856l0.334,2.438l1.469,2.628l0.449,3.155l2.576,3.522
			l0.064,2l0.41,0.446l-0.631,5.254l-1.971,3.062l0.947,1.324l-0.487,1.547l-1.579,5.52l-0.932,1.962l2.946,1.422l7.544,0.419
			l6.361,2.466l4.003,0.862l2.354-0.821l1.986,0.787l1.992,0.68l0.556-1.29l-1.988-0.783l-1.624,0.242l-1.674-1.076
			c0,0,0.132,0.173,0.539,0.088c0.406-0.085,1.938-0.529,1.938-0.529l1.072-0.028l1.133,0.415l1.998-0.496l0.848,0.573l0.148,1.418
			l2.812-0.665l1.066,1.152l-0.543,0.989l-0.825,0.473l0.969,1.04l6.128,3.397l-1.65-0.722l0.66-1.486l1.629-0.343l1.143-0.86
			l0.782,0.637l0.434,1.83l-1.43,0.447l0.388,0.418l2.147-0.72l1.493-2.062l0.514-0.284l-1.301-0.253l0.541-0.989l-0.066-0.907
			l1.322-0.255l0.736-0.777l0.384,0.517c0,0-0.173,1.911,0.329,1.931c0.504,0.021,2.604,0.505,2.604,0.505l2.472,1.307l0.569,0.932
			l1.812,0.067l0.684,0.633l1.484-1.86l0.035-0.906l-0.807-0.031l-2.049-1.798l0.291-0.644l-0.011-1.484l-0.202-1.686l1.402,0.256
			l0.115-0.4l-1.085-0.647l0.011-0.302l2.018,0.078l1.18-1.875l-0.758-1.235l-0.137-1.72l-0.91,0.062l-1.26,1.266l-0.463,1.595
			l-1.9-0.475l-0.561-1.132l1.153-1.17l1.27-2.101l-0.604-1.528l-1.605-2.508H431.647z"/>
		<path id="MS_1_" fill="#DADED9" stroke="#AFB5AA" stroke-width="0.75" d="M446.661,326.926l-0.193,0.675l-2.818-0.227
			l-0.852,0.676l-1.133-0.271l-5.605,1.341l-0.935-0.517l-0.161,0.517l-0.976-0.243l-1.95-3.899l-2.193-2.315l0.609-3.412
			l-0.609-0.609l-5.728,0.486l-15.477-0.486l-0.321-1.248l0.691-5.666l1.946-2.957l3.335-6.318l-0.137-1.345l0.705-0.306
			l0.318-1.029l-1.172-1.231l0.03-1.173l-0.821-2.324l-0.065-3.456l1.099-1.095l1.002-3.821l-0.828-1.757l0.895-0.741l-0.746-1.43
			l0.32-1.854l2.117-8.365l1.445-1l-0.246-1.318l2.223-2.73l1.603-0.617l-0.048-0.92l-0.084-0.931l1.812-2.906l3.282-0.568
			l3.045-0.481l20.521-0.488l-0.172,3.431l-0.638,9.083l-1.794,16.881l-0.699,7.657l0.68,10.339L446.661,326.926L446.661,326.926z"
			/>
		<path id="IA_1_" fill="#DADED9" stroke="#AFB5AA" stroke-width="0.75" d="M418.313,142.164l0.098,2.125l1.668,0.523l0.68,0.967
			l0.312,1.426l2.757,2.695l0.432,1.842l-0.639,2.576l-1.321,2.398l-0.71,2.053l-1.71,1.138l-1.325,0.373l-4.309,1.206l-1.199,2.873
			l0.503,1.07l1.336,1.346l-0.364,3.059l-1.398,1.101l-0.648,1.222l-0.006,2.111l-1.449,0.281l-1.275,0.777l-0.264,1.02l0.135,1.615
			l-1.221,0.792l-1.761-2.474l-0.868-1.908l-50.045,0.448l-0.703,0.091l-1.395-3.508l0.072-6.02l-1.062-3.188l-0.327-4.021
			l-1.602-2.864l-0.516-3.683l-1.805-5.834l-0.67-4.127l-0.964-1.699l-1.113-2.144l1.666-3.61l1.254-4.292l-2.008-1.664
			l-0.248-2.103l0.79-1.877l1.304,0.064l63.828,1.125l0.479,3.209l1.654,1.27l0.143,1.092l-1.668,2.5l0.025,2.442l0.795,3.954
			l1.872,1.078l2.321,0.496L418.313,142.164z"/>
		<path id="MN_1_" fill="#DADED9" stroke="#AFB5AA" stroke-width="0.75" d="M344.722,85.56l-0.366-6.819l-1.475-5.897l-1.476-10.875
			l-0.368-7.924l-1.474-2.765l-1.291-4.054v-8.294l0.553-3.133l-1.467-4.394l27.215-1.921l0.263-6.647l0.519-0.13l1.827,0.392
			l1.563,0.652l0.65,4.431l1.173,4.95l1.304,1.304h3.91l0.26,1.174l5.082,0.259v1.695h3.911l0.261-1.042l0.912-0.912l-1.099,1.427
			l1.041,0.783h2.346l3.128,2.086l4.301,1.955l1.955,0.391l0.389-0.782l1.174-0.392l0.393,2.348l2.084,1.042l0.391-0.392
			l1.043,0.131v1.693l2.086,0.784h2.475l1.305-0.652l2.605-2.606l2.086-0.393l0.651,1.435l0.391,1.041h0.784l0.779-0.651
			l7.171-0.261l1.431,2.476h0.522l0.575-0.872l3.58-0.301l0.48,2.814l-3.176,1.479l-7.453,3.276l-3.85,1.617l-2.475,2.086
			l-1.954,2.868l-1.827,3.126l-1.434,0.65l-3.648,4.04l-1.041,0.131l-2.516,2.223l-1.01,2.582l-0.184,2.574l0.076,6.484
			l-1.111,1.361l-5.071,3.033l-1.798,4.822l2.315,1.801l0.55,2.602l-1.498,2.61l0.138,3.022l0.3,5.424l1.465,2.421l3.66-0.975
			l0.549,1.551l2.724,0.406l3.111,4.572l5.714,3.319l1.727,2.317l-0.434,6.166l-65.471,0.922l-0.271-28.76l-0.368-2.396
			l-3.317-2.765l-0.92-1.475v-1.291l1.656-1.29l1.105-1.106L344.722,85.56L344.722,85.56z"/>
		<path id="OK_1_" fill="#DADED9" stroke="#AFB5AA" stroke-width="0.75" d="M276.985,227.708l-12.257-0.938l-0.646,12.92
			l15.034,0.852l25.499-1.967l-3.664,15.988l-0.335,13.101l0.167,1.174l3.19,2.687l1.512,0.842l0.503-0.168l0.504-1.511l1.009,1.342
			h1.51v-1.005l2.017,1.005l-0.337,2.859l3.024,0.167l1.848,0.836l3.023,0.506l1.847,1.342l1.681-1.509l2.518,0.502l1.847,2.521
			h0.674v1.678l1.678,0.503l1.68-1.678l1.343,0.505h1.848l0.671,1.848l4.628,1.527l1.01-0.504l1.344-3.024h0.84l0.838,1.514
			l3.023,0.502l2.688,1.009l2.183,0.671l1.345-0.671l0.504-1.845h3.191l1.51,0.671l2.017-1.515h0.839l0.506,1.178h3.022l1.175-1.514
			l1.346,0.336l1.51,1.849l2.352,1.344l2.352,0.672l1.426,0.822l-0.287-27.339l-1.006-8.066l-0.117-6.517l-0.658-4.486l-0.57-5.271
			l-0.051-2.808l-9.316-0.082l-34.097-0.337l-33.085-1.51L276.985,227.708L276.985,227.708z"/>
		<path id="TX_1_" fill="#DADED9" stroke="#AFB5AA" stroke-width="0.75" d="M267.709,238.334l15.137-0.324l22.011,0.043v14.948
			l-1.053,11.72l0.143,1.407l3.069,2.388l1.39,0.892l0.761-0.437l0.162-1.252l0.844,1.174l1.408-0.071l-0.073-0.979l1.155,0.576
			l0.778,0.227l-0.049,2.707l2.722-0.123l2.002,0.67l2.654,0.173l1.682,1.303l1.312-1.509l2.507,0.24l1.63,2.086l0.729,0.166
			l-0.013,1.345l1.51,0.433l1.452-1.505l1.445,0.32l1.484-0.079l0.736,1.609l4.306,1.142l1.024-0.597l0.791-2.904l0.227-0.018
			l0.605,0.012l0.916,1.348l2.645,0.269l2.271,0.608l2.334,1.626l1.176-0.748l0.356-1.741l2.963-0.177l1.247,0.548l1.762-1.563
			l0.734-0.019l0.641,1.048l2.696-0.188l0.912-1.448l1.262,0.19l1.41,1.537l2.436,1.227l1.94,0.413l1.044,0.472l1.722,1.242
			l1.958-1.041l1.844,0.647l0.667,4.116l0.436,6.585l0.909,6.438l0.637,2.413l1.991,2.875l0.834,3.315l3.064,3.564l0.281,2.123
			l0.533,0.5l-0.087,5.722l-1.671,3.53l1.123,1.389l-0.307,1.616l-0.094,5.054l-0.842,2.339l0.361,2.362l-3.688,1.341l-6.34,3.534
			l-0.552,1.357l-1.629,1.438l-1.327,1.083l-0.821,0.608l-3.507,3.889l-1.728,1.552l-3.393,2.443l-3.644,1.91l-4.031,2.6
			l-1.113,1.068l-3.699,2.684l-2.226,0.6l-2.318,3.911l-2.67,0.406l-0.554,1.361l1.599,1.214l-0.705,3.796l-0.646,3.132
			l-0.567,2.685l-0.321,3.107l0.652,1.609l1.513,4.636l0.938,4.12l1.313,1.783l-0.576,1.033l-1.95,1.459l-3.943-2.368l-3.709-0.512
			l-0.836,0.391l-2.18-0.287l-2.94-1.889l-3.494-0.527l-5.213-1.951l-1.583-2.532l-1.167-4.327l-2.242-1.166l-0.538-1.507
			l0.399-0.468l0.054-2.321l-0.891-0.377l-0.475-0.629l0.649-3.021l-1.181-1.462l-2.211-0.727l-2.465-2.802l-2.68-4.332l-2.919-1.56
			l0.016-1.323l-4.132-8.09l-0.737-2.814l-1.275-1.232l-0.177-0.98l-4.231-3.343l-1.865-1.961l-0.054-0.768l-1.819-1.306
			l-4.568-0.451l-4.973-0.09l-2.151-1.396l-2.924,1.419l-2.295,1.152l-1.351,2.302l-0.468,2.564l-2.607,4.373l-1.5,1.76
			l-1.763-0.536l-1.236-0.686l-1.322-0.35l-2.687-1.355l-0.03-0.437l-1.276-1.236l-3.539-1.183l-5.312-4.921l-1.729-3.076
			l-0.386-5.481l-2.456-4.24l-0.455-1.841l-1.12-0.58l-0.852-1.377l-3.432-1.189l-0.937-1.038l-5.106-5.044l-1.012-2.132
			l-3.228-1.319l-1.173-2.895l-1.858-1.853l-1.312-0.24l-0.655-3.143l5.354,0.092l19.432,0.507l19.375-0.27l0.559-13.311
			l-0.061-37.88l0.172-12.795l0.912-0.045"/>
		<path id="NM_1_" fill="#DADED9" stroke="#AFB5AA" stroke-width="0.75" d="M225.242,307.429l-0.488-2.924l5.849,0.486l14.136,0.489
			l23.293,0.378l0.102-16.707l0.002-32.903l-0.487-13.16l0.487-6.825V230.9l-73.902,0.312l-2.906,82.714l10.859,0.128l0.129-6.87
			l20.459-0.387L225.242,307.429z"/>
		<path id="KS_1_" fill="#DADED9" stroke="#AFB5AA" stroke-width="0.75" d="M371.329,230.642l-9.27,0.152l-33.859,0.638
			l-32.733-0.535l-17.826,0.735l2.591-51.062l16.224,0.496l29.598,0.617l32.545,2.676h3.744l1.604,1.587l1.482-0.016l1.205,0.745
			l-0.047,2.211l-0.369,1.269l-0.242,1.637l1.352,2.502l2.17,2.346l1.711,1.186l-0.02,6.309L371.329,230.642L371.329,230.642z"/>
		<path id="NE_1_" fill="#DADED9" stroke="#AFB5AA" stroke-width="0.75" d="M356.815,171.073l2.596,5.048l-0.019,1.693l2.714,3.922
			l2.096,2.227l-3.706,0.162l-35.843,0.701l-29.965-0.324l-16.357,0.134l0.105-15.688l-23.812-1.107l0.806-33.416l11.443,0.26
			l14.804,0.195l13.125,0.268l21.385,1.055l7.873-0.68l1.583,1.613l3.618,2.027l0.87,0.635l3.143-1.146l2.838-0.459l2.006-0.256
			l1.387,0.949l3.028,1.045l3.21,1.079l0.385,1.159l0.735,1.483l1.345-0.06l0.588,0.006l0.806,3.41l2.413,6.122l0.541,2.738
			l1.971,2.688l0.583,3.735l1.315,4.037L356.815,171.073L356.815,171.073z"/>
		<path id="SD_1_" fill="#DADED9" stroke="#AFB5AA" stroke-width="0.75" d="M349.368,144.275l-0.07-0.45l-2.551-3.606l1.166-3.787
			l0.807-4.686l-1.32-1.455l-0.465-2.115l0.465-2.042l2.487-0.183l-1.373-6.823l0.843-22.55l-0.713-2.903l-3.378-2.351l-0.866-1.251
			l-0.146-1.251l1.484-1.317l1.096-1.391l0.029-2.088l-49.455-0.654l-42.969,0.621l-0.306,51.97l11.438-0.175l15.64-0.265
			l13.901,0.626l18.632-0.418l9.326-0.082l1.671,1.633l4.248,2.228l0.643,0.516l3.454-1.409l6.043,0.101l1.387,0.943l3.377,0.991
			l2.398,1.097l0.4,1.136l0.945,1.685L349.368,144.275L349.368,144.275z"/>
		<path id="ND_1_" fill="#DADED9" stroke="#AFB5AA" stroke-width="0.75" d="M347.103,83.694l-1.178-6.593l-0.904-6.208l0.132-9.62
			l-1.261-8.619l-1.621-2.281l-1.812-3.95l-0.832-8.229l0.177-3.066l-1.892-4.156l-22.981,0.566l-22.91-0.487l-20.226,0.667
			l-18.252,0.2v53.499l47.697,0.975L347.103,83.694L347.103,83.694z"/>
		<path id="CO_1_" fill="#DADED9" stroke="#AFB5AA" stroke-width="0.75" d="M280.811,231.55v-63.692l-25.165-0.178l-64.524-2.421
			l1.604,69.337L280.811,231.55z"/>
		<path id="UT_1_" fill="#DADED9" stroke="#AFB5AA" stroke-width="0.75" d="M195.436,231.016l-64.074,0.624l2.634-86.63
			l36.028,1.236l0.096,8.13l-0.236,10.131l5.954-0.192l12.496-0.516l6.686,1.298L195.436,231.016z"/>
		<path id="AZ_1_" fill="#DADED9" stroke="#AFB5AA" stroke-width="0.75" d="M127.546,293.884l-1.587,1.777l-0.069,1.043l0.444,0.62
			l10.349,4.38l9.22,3.955l11.111,4.351l12.727,5.132l8.771,0.355l17.575-0.814l-0.883-84.379l-59.287,0.768l-0.374,11.705
			l-1.11,0.183l-0.905,2.005l-1.755,0.192l-1.166-1.766l-1.938,0.059l-0.756-0.69l-0.634,0.095l-0.572,0.494l-1.234,0.924
			l0.672,4.842l0.027,1.212l0.957,8.771l-0.795,1.668l-0.039,2.355l2.431,3.112l1.498,3.898l0.666,0.63l0.773,0.285l0.167,1.595
			l-0.961,1.121l-2.19,1.561l-1.138,1.552l-0.636,2.69l0.135,3.471l-1.685,2.21l-1.35,0.695l0.183,0.562l-0.133,1.234l0.403,0.502
			l2.596,0.005l-0.1,1.961l-0.793,1.668L127.546,293.884L127.546,293.884z"/>
		<path id="WY_1_" fill="#DADED9" stroke="#AFB5AA" stroke-width="0.75" d="M255.571,100.482l-86.833-0.526l0.935,67.903
			l85.974-0.18L255.571,100.482z"/>
		<path id="MT_1_" fill="#DADED9" stroke="#AFB5AA" stroke-width="0.75" d="M254.812,31.374l-28.598-0.649l-27.621,0.325h-27.622
			l-22.589,0.494l-13.767,0.032l-24.567-0.594L109.693,47l3.492,4.987l-0.374,3.488l1.938,3.056l2.497,0.559l7.714,13.002
			l2.373,1.931l0.483,0.764l2.632,0.364l0.606,1.425l-2.744,13.667l0.339,1.816l2.248,1.972l0.66-0.123l3.066-2.792l0.341-0.92
			l1.249,0.281l0.544,3.828l4.65,8.71l2.487,1.416l0.752,0.373l1.628,1.404l0.131,2.537l0.958,2.385l1.925,0.505l1.341-1.958
			l1.982-0.37l2.528,0.724l1.692-0.999l2.972-0.555l2.856,0.663l1.922-0.701l-0.07-2.208l2.053-0.895l1.175,0.805l0.763,2.25
			l1.821,0.812l-0.124-8.224l85.588,0.261l-0.65-55.244L254.812,31.374z"/>
		<path id="ID_1_" fill="#DADED9" stroke="#AFB5AA" stroke-width="0.75" d="M98.904,152.645l0.334-30.676l-0.577-3.381l0.997-4.838
			l-1.286-0.553l-1.87,0.463l-0.756-0.653l0.171-0.927l-0.203-2.367l2.524-4.787l1.305-1.593l0.688-1.029l-1.026-2.488l0.584-0.652
			l3.018-4.958l2.268-3.843l-1.368-2.867l-2.97-1.46l-1.81-3.072L97.72,31.427l12.484-0.376l0.858,16.961l5.742,9.958l1.686,3.026
			l1.569,0.471l4.309,6.601l3.301,2.804l0.552,0.781l2.679,0.36l0.591,1.518l-1.656,13.111l-0.714,3.902l2.472,2.099l0.671-0.172
			l2.259-3.006l1.321-0.923l1.27,0.261l0.593,4.061l3.942,10.01l3.416,1.796l1.586,1.375l0.075,3.173l1.219,1.948l0.961,0.66
			l1.51-2.135l2.144-0.39l2.391,0.565l1.984-0.929l2.827-0.688l3.227,0.604l2.014-0.633l-0.082-2.355l2.085-1.012l1.173,0.948
			l0.774,2.146l1.25,0.697l2.706,43.447C172.91,152.09,104.379,152.728,98.904,152.645L98.904,152.645z"/>
		<path id="NV_1_" fill="#DADED9" stroke="#AFB5AA" stroke-width="0.75" d="M134.089,152.424l2.355,91.893l-1.236,0.592
			l-0.667,2.005l-1.684,0.449l-1.561-1.674l-1.929,0.223l-0.756-0.645l-0.748,0.157l-1.667,1.688l1.05,4.876l0.823,1.249
			l0.386,5.193l-0.634,1.755l-1.936-0.308l-64.426-60.66v-48.257L134.089,152.424z"/>
		<path id="CA_1_" fill="#DADED9" stroke="#AFB5AA" stroke-width="0.75" d="M126.342,295.317l2.735-1.016l0.724-1.686l-0.106-2.197
			l-2.64,0.176l-0.478-0.388l-0.003-1.537l-0.213-1.366l1.27,0.205l1.698-3.513l-0.427-3.67l0.412-2.663l1.028-1.877l2.246-1.732
			l0.911-1.427l-0.304-1.519l-0.81-0.249l-0.911-0.595l-1.812-3.983l-1.758-3.002l-0.188-2.603l-1.903-1.301l-64.021-59.672
			l0.158-48.845l-52.562,0.092l-0.279,4.613l1.139,5.346l-1.709,3.459l-1.759,2.369l-0.042,0.864l-1.132,0.876l-0.333,3.25
			l-0.033,2.45l2.675,2.541l1.865,2.733l1.409,2.352l0.859,4.679l-0.754,2.497l0.52,4.268l-0.068,2.823l1.929,2.474l2.728,2.771
			l2.437,3.088l1.605,2.67l0.314,2.367l-0.149,0.402l0.355,1.5l5.109,3.557l0.062,1.814l-0.083,1.727l-0.134,1.498l1.509,5.866
			l2.129,2.304l1.824,1.521l2.044-0.113l1.159,1.799l-0.209,2.735l-1.23,1.512l-0.811,0.191l0.077,2.907l0.838,2.001l3.047,2.574
			l2.055,3.542l1.832,3.104l1.443,1.98l3.409,3.585l1.479,1.607l0.837,1.999l1.319,0.422l0.409,1.729l-0.25,1.526l-0.072,5.386
			l-0.019,1.469l2.196,1.556l3.088-0.362l3.536,0.507l3.128,0.85l2.08-0.49l2.599,1.704l2.67,3.033l1.189,1.428l3.127,0.846
			l3.604-0.239l1.394,1.257l1.01,2.205l-0.934,0.705l0.396,0.639l2.448,0.032l1.992-0.345l1.977-1.739l3.481,2.35l0.96,1.482
			l2.559,2.569l0.777,2.256l1.581,6.705l0.647,1.189l7.412-0.649l14.566-1.361l10.125-1.372V295.317z M55.951,277.951l1.183,0.881
			l0.103,0.953l-2.325,0.484l-0.608-0.771l-0.708-0.932L55.951,277.951L55.951,277.951z M57.338,277.625l0.758-0.668l2.897,0.902
			l2.401,0.349l-0.525,0.613l-3.278,0.589l-1.429-0.88L57.338,277.625L57.338,277.625z M75.474,288.292l1.668,1.376l0.739,0.559
			l1.194,0.146l0.159-1.135l-0.993-1.106l-2.248-0.997l-0.725,0.29L75.474,288.292z M75.894,294.724l1.802,1.95l1.194,1.188
			l-1,0.415l-1.128-0.646c0,0-0.766-0.919-0.833-1.209c-0.069-0.288-0.369-1.559-0.369-1.559L75.894,294.724L75.894,294.724z"/>
		<path id="OR_1_" fill="#DADED9" stroke="#AFB5AA" stroke-width="0.75" d="M99.157,151.937l0.363-29.213l0.016-3.371l0.741-4.659
			l-0.675-0.763l-1.9,0.425l-1.27-1.02l0.075-1.184l-0.214-2.536l2.347-4.94l1.174-1.162l0.653-1.067l0.464-2.952l2.006-5.005
			l1.972-3.555l-0.461-2.637l-2.907-1.259l-2.19-3.163l-10.183-0.399l-11.992,0.097l-11.583,2.912l-0.593-0.95l-3.75,2.551
			l-3.457,0.386l-2.095-0.762l-0.823,0.744l-3.566,0.687l-1.539-0.718l-4.329-0.584l-0.581,0.233l-3.538-0.324l-1.126,1.732
			l-4.706,0.872l-5.22-2.007l0.371-0.726l-1.251-5.886l-2.433-2.504l-3.197,0.323l-0.974-1.765l-1.856,0.08l-3.982,2.609
			l-0.52,5.276l-0.598,8.127l-1.248,5.453l-1.194,11.493l-2.375,11.39l-3.773,10.961l-0.923,2.542l0.959,6.591l2.501,9.011
			L99.157,151.937L99.157,151.937z"/>
		<path id="WA_1_" fill="#DADED9" stroke="#AFB5AA" stroke-width="0.75" d="M29.329,30.747l3.705,0.28l8.139,0.243l7.094-0.166
			l16.812,0.488l19.097-0.086l13.357-0.454l2.005,53.433l-10.44-0.312l-12.849,0.255l-11.921,3.023l-0.624-0.964l-3.956,2.809
			l-3.745,0.329l-1.991-0.82l-0.902,0.774L49.373,90.4l-1.596-0.721l-4.536-0.622l-0.55,0.262l-3.736-0.331l-1.126,1.796l-4.965,1
			l-5.453-2.066l0.425-0.886l-1.415-6.035l-2.543-2.559l-3.343,0.336l-1.024-1.835l-1.87,0.091l-2.543,1.663l-2.407-2.077
			l-0.317-2.342l2.088-0.794l0.471-3.484l-2.25-0.378l-0.604-2.944l3.293-1.365l-2.695-1.611l-2.539-5.286l-0.067-2.406
			l-1.557-6.204l-2.032-2.182L6.407,41.63l1.743-0.035l2.472,1.801l2.663,1.486l2.911,0.883l3.961,0.755l2.534-0.098l2.564,0.566
			l2.85,0.093l1.74-0.573l-0.476-1.899l0.793-1.14l1.388-1.428l0.477,0.823l0.604,1.33l-1.678,0.826l0.16,1.708l1.68,0.789
			l1.363,1.677l0.888,1.392l1.108-0.413l-0.127-1.043l-1.015-0.822l-1.019-2.437l0.284-1.553l-0.791-1.012l-0.446-1.773l-0.285-4.11
			l-1.393-1.803l-2.854-3.321l0.093-0.696L29.329,30.747L29.329,30.747z M23.098,37.291l1.551-0.526l0.651,0.981l0.884-1.568
			l1.836-0.461l0.935,1.043l0.107,2.608l0.665,0.506L29.554,41.6l-0.996,0.587c0,0-0.68,0.238-0.743-0.016
			c-0.064-0.253,0.63-2.312,0.63-2.312l-1.44-0.11l0.033,1.205l-0.443,0.648l-1.648-1.47L23.098,37.291z"/>
	</g>
</g>
</svg>
