<?xml version="1.0" encoding="utf-8"?>
<!-- Generator: Adobe Illustrator 15.0.0, SVG Export Plug-In . SVG Version: 6.00 Build 0)  -->
<!DOCTYPE svg PUBLIC "-//W3C//DTD SVG 1.1//EN" "http://www.w3.org/Graphics/SVG/1.1/DTD/svg11.dtd" [
	<!ENTITY ns_flows "http://ns.adobe.com/Flows/1.0/">
	<!ENTITY ns_extend "http://ns.adobe.com/Extensibility/1.0/">
	<!ENTITY ns_ai "http://ns.adobe.com/AdobeIllustrator/10.0/">
	<!ENTITY ns_graphs "http://ns.adobe.com/Graphs/1.0/">
	<!ENTITY ns_vars "http://ns.adobe.com/Variables/1.0/">
	<!ENTITY ns_imrep "http://ns.adobe.com/ImageReplacement/1.0/">
	<!ENTITY ns_sfw "http://ns.adobe.com/SaveForWeb/1.0/">
	<!ENTITY ns_custom "http://ns.adobe.com/GenericCustomNamespace/1.0/">
	<!ENTITY ns_adobe_xpath "http://ns.adobe.com/XPath/1.0/">
]>
<svg version="1.1"
	 xmlns:x="&ns_extend;" xmlns:i="&ns_ai;" xmlns:graph="&ns_graphs;" i:viewOrigin="0 0" i:rulerOrigin="0 512" i:pageBounds="0 0 717 -512"
	 xmlns="http://www.w3.org/2000/svg" xmlns:xlink="http://www.w3.org/1999/xlink" xmlns:a="http://ns.adobe.com/AdobeSVGViewerExtensions/3.0/"
	 x="0px" y="0px" width="717px" height="512px" viewBox="0 0 717 512" enable-background="new 0 0 717 512" xml:space="preserve">
<metadata><?xpacket begin="﻿" id="W5M0MpCehiHzreSzNTczkc9d"?>
<x:xmpmeta xmlns:x="adobe:ns:meta/" x:xmptk="Adobe XMP Core 5.0-c060 61.134777, 2010/02/12-17:32:00        ">
   <rdf:RDF xmlns:rdf="http://www.w3.org/1999/02/22-rdf-syntax-ns#">
      <rdf:Description rdf:about=""
            xmlns:dc="http://purl.org/dc/elements/1.1/">
         <dc:format>image/svg+xml</dc:format>
         <dc:title>
            <rdf:Alt>
               <rdf:li xml:lang="x-default">Print</rdf:li>
            </rdf:Alt>
         </dc:title>
      </rdf:Description>
      <rdf:Description rdf:about=""
            xmlns:xmp="http://ns.adobe.com/xap/1.0/"
            xmlns:xmpGImg="http://ns.adobe.com/xap/1.0/g/img/">
         <xmp:MetadataDate>2014-04-09T01:44:12-04:00</xmp:MetadataDate>
         <xmp:ModifyDate>2014-04-09T01:44:12-04:00</xmp:ModifyDate>
         <xmp:CreateDate>2014-04-09T01:44:11-04:00</xmp:CreateDate>
         <xmp:CreatorTool>Adobe Illustrator CS5</xmp:CreatorTool>
         <xmp:Thumbnails>
            <rdf:Alt>
               <rdf:li rdf:parseType="Resource">
                  <xmpGImg:width>256</xmpGImg:width>
                  <xmpGImg:height>164</xmpGImg:height>
                  <xmpGImg:format>JPEG</xmpGImg:format>
                  <xmpGImg:image>/9j/4AAQSkZJRgABAgEASABIAAD/7QAsUGhvdG9zaG9wIDMuMAA4QklNA+0AAAAAABAASAAAAAEA&#xA;AQBIAAAAAQAB/+4ADkFkb2JlAGTAAAAAAf/bAIQABgQEBAUEBgUFBgkGBQYJCwgGBggLDAoKCwoK&#xA;DBAMDAwMDAwQDA4PEA8ODBMTFBQTExwbGxscHx8fHx8fHx8fHwEHBwcNDA0YEBAYGhURFRofHx8f&#xA;Hx8fHx8fHx8fHx8fHx8fHx8fHx8fHx8fHx8fHx8fHx8fHx8fHx8fHx8fHx8f/8AAEQgApAEAAwER&#xA;AAIRAQMRAf/EAaIAAAAHAQEBAQEAAAAAAAAAAAQFAwIGAQAHCAkKCwEAAgIDAQEBAQEAAAAAAAAA&#xA;AQACAwQFBgcICQoLEAACAQMDAgQCBgcDBAIGAnMBAgMRBAAFIRIxQVEGE2EicYEUMpGhBxWxQiPB&#xA;UtHhMxZi8CRygvElQzRTkqKyY3PCNUQnk6OzNhdUZHTD0uIIJoMJChgZhJRFRqS0VtNVKBry4/PE&#xA;1OT0ZXWFlaW1xdXl9WZ2hpamtsbW5vY3R1dnd4eXp7fH1+f3OEhYaHiImKi4yNjo+Ck5SVlpeYmZ&#xA;qbnJ2en5KjpKWmp6ipqqusra6voRAAICAQIDBQUEBQYECAMDbQEAAhEDBCESMUEFURNhIgZxgZEy&#xA;obHwFMHR4SNCFVJicvEzJDRDghaSUyWiY7LCB3PSNeJEgxdUkwgJChgZJjZFGidkdFU38qOzwygp&#xA;0+PzhJSktMTU5PRldYWVpbXF1eX1RlZmdoaWprbG1ub2R1dnd4eXp7fH1+f3OEhYaHiImKi4yNjo&#xA;+DlJWWl5iZmpucnZ6fkqOkpaanqKmqq6ytrq+v/aAAwDAQACEQMRAD8A9U4q7FUll1S5tr6dTSWP&#xA;l9kmlNhTie3vt1wWi0s9eYzvJzcP2kJoxFTTdadtsCEXDq19HQcxIB2cV/EUP442m0ZFr69JYSPd&#xA;CD+Bp+vDa2iYta06Sn7zgTUUcEUp4n7P442m0XHNFIKxurgdSpB/VhVdirsVdirsVdirsVdirsVd&#xA;irsVdirsVdirsVdirsVdirsVdirsVdirsVdirsVdirsVYteyo99cUP7ZFOn2fh/WMixUsVdirTGi&#xA;k+Ariq1QQyA9lI/Viq+grXuOhxVWS8vI/sTuKdKsWH3NUYqrprN+vVlf/WX/AJp44bTaumvzD7cK&#xA;t8mK/rDY2tqya/D+3C48OJDfrK42trxrtkSAQ617la/qJxtbVRq+nnpL96uP1jG02uGqWB/3cPub&#xA;+mG1tf8ApCw/5aYv+DX+uNq79IWH/LTF/wAGv9cbVuzukuoFmUFQSQVPUUNMVVsVdirsVdirsVdi&#xA;rsVdirsVdirsVdirGLi9uJpHb1XEbMWRKkAeHTwGRQnumTmazjZjV1+Fz3qu2/zG+SCUViqjeXH1&#xA;e2kl6lR8I9zsPxxVirBtqbkePfanXIsWuUg6pX/VI/jTFW+R/kP4f1xVazqwCjqxGx2qO/X2xVcw&#xA;J3H2h0/piratyUHpXxxVvFXYq7FXYqtJ/eKPY/rGKrsVdirsVWxf3a+wofmNsVVElljr6bslevFi&#xA;tfuxVE2+qXsLLVzKgO6Oa1H+sanG02jbXUtTuHJjt0dK+JUAf65r09hhtUbHcNGwW7dEllNI4kJN&#xA;B8+p+dMKUTirsVdirsVdirsVdirsVU7i4jt4WlkIAUEgE0qQK0Fe+KsUUUUDwFMixRNnfzWj1Uc0&#xA;b7UdepNNx77UxSybJJSXXLoNItup2T4n/wBYjYfdgKCleBDsVdiq1t2Cj5k/LFW2rxPHrTb54qtj&#xA;JoQRTiaUG/YHFV+KuxV2KuxVaP7w/IfrOKrsVdirsVWp0I7gmv0mv8cVXYq0WowFKg7nemw998VR&#xA;8etzwQeksKih/dkBioXbYqPiJ964bTaFjvZxcm4WWsxFGJCnb5U2wIR0uu3LgLHGsZ7mvMn5bDDa&#xA;bXW+oaojBZYnkUnk37s8+Pt9kY2qcRSepGr8WTl+w4ow+eFK7FXYq7FVC8vIrWLm+5OyqOpOKpVN&#xA;r9xQelEqCtCWJY77bfZwWi0vvLq5uSgkfkVqVFAANvYeNMCFqVcqEBZm+yo6nFU60jSWtx69yeVw&#xA;3ReyDcbU2JI6nCAkBNMKWIl+bM3LkSSWPXc7nIsXYq7FXYqsQfE57E/qFMVX4qsIcNVaUI+IE032&#xA;p2OKtH1DIFJ4ggkcdztTxHviq7i/ZvvFf1UxV37weB+8f1xV3Jx1WvyP9aYqtVVZmLLvsN6dAK/x&#xA;xVcY09x8iR+rFXcF8T95/riruA9/vOKtRijOvetfoOw/Viq/FVqj43J8aD5UGKrsVWuoZad+x98V&#xA;TrS2ghsXuniUCOoEoA5v/NQ9/i+EYQlKp7iS4nNxIArtSgX9mnSnfAhOtEuZZYZEkYuyMKEmp4ke&#xA;PzBwhITHCl2KuxVj+syO18yFwyoo4KD9mvUH32r92AoKAYEqQNj2Pv2wIU+a81LEKeJoPeor91MV&#xA;Tfy2tXuG7DiEPTYkk/qwhITzClQvbpLa3aRiOXSMHu1NhirFvTQgAgGm1TkWLuHgxH01/XXFWgZO&#xA;RGxA27j398Vb506qR9Ff1VxVqNl4gVox3KnrU7nFV+KuxVaP7xvYDf78VXYq7FXYqtStWPYtt9AA&#xA;/hiq7FXYq7FVg/vm/wBVf1nFVxZR1IHzxVYzJWquAfCuxxVejBlqP86bYq31xVNZAy6AgFaMQTt2&#xA;Z+X3YeiUqwIVobuaEp6bFVRuTKCaMa9x8tsVZOrKyhlNVYVB8QckyWzMVhdgwUhSQzdBt1OKsbN/&#xA;ev8AEZ3qetDx/AUpkWKgzdWZtyd2Y9Sfc4q0GVuhB+WKqcSsEFFUHozd6jY/j74qirEaiaNCjFJS&#xA;EZ15hd/Hia/D4jFLJLRnNtEX5F+IDFxxYkbEle1euSSg9djQ2iyE0ZGHEePLYj+OAoKRYEOxVbH9&#xA;kHx3+/fFV2KuIBFDuMVUyi8woqooTRSQO3hiq7i3ZvvA/hTFWo+XxFiDU9tum38MVX4q7FXYqpoC&#xA;QSHI+I7beJ9sVXcW/nP4f0xVqkv8y/8AAn+uKt/vB2U/eP64qsREdnLIOVf2gK9AMVXiONTUKAfE&#xA;AYquxVT5FGIoSGPw07bdN8VXc2rTgfmSKfgTiqfW8qtodXoQkTIQN/sgqB8+mFKR4ELrcRS3CRNI&#xA;qqWAckgUHfqcVZK9xa20CkuBGq0QVqSBtt45JkkN/qU94TGCYogQQg3JHbl9IyNoQnDxYn6afqpi&#xA;hwRBuFAPjiq01Mp4niQoJ713NMVRul2N1cRlhGgRyaTuOQA5HdVJ6/R9OISySNOEapUtxAHI9TTv&#xA;kkt4qgtYgMtkxB3iPqU8QAa/gcBUsewMVsn2CPGg+80xVdirsVdiq0fbY9qAfT1/jiq7FVgRhWjd&#xA;STQgEbmvamKuUyHeoO5FKEdDT3xVusndRT2O/wCoYq7kf5D89v64qtVwFAINab/Cev3YqvBBFQaj&#xA;xxVvFXYqtO0gPZhT6RuP44quxV2KrGqz8RsBRifp/sxVfirXJzzhJJiNG4E/DXp0+jFVkkUfptRQ&#xA;NjTYeGKqgAAoNhirqDFVlf31PFd/oOKrmdF+0wHzOKrRKpFVBavSg/iaYqsEgeSh+EL033J6U2xV&#xA;lGkI6afEG2ryYD2ZiR+vCGQRmFXYq06K6MjCqsCGB7g4qxLcbHYjYj3yLFxAIoehxVap/ZPUfiMV&#xA;XYq7FVqdCfEmv0bfwxVdirsVWx/YB8d/v3xVdirsVdiqlG7UPwEirUO1KVPviq/k38h/D+uKu5H+&#xA;U/h/XFVr8yuykMNwfh/rirahWFat9JI6Yq3wXxP3n+uKtRLTluSa71/D8MVX4qtH94fkP44q2QCC&#xA;D0OKtRklFJNTQV+dMVc7qilm6DrirXpht5AGPhTYYqsMaBiFFWY7Dsuw3pirmQoQys27DkKV2+gY&#xA;quX1AVKgn1BxVaEcgxKU7/5QxVmQAAoNgOgyTJ2KuxV2KsYv1db6cP8AaLk7eB3X/haZFChihpge&#xA;o6jp/TFXAgioxVxIAJPQYq5AQig9QBXFW8Vac0Rj4AnFXAAAAdBsMVbxV2KuxVbH9hfkMVXYq7FX&#xA;YqtUUdgOmx+kk1xVdiqxxtyBoV79dvwxVcK0FevfFWv92bdhRv4Yq0XDHih37sKbUxVwhQAAVFBS&#xA;oJGwxVayBSG34jd6knp0O9emKqhZQKkgDxOKrYwKc6fE25Pf2GKr8VRWmembuNHkCASB1U1+JuJG&#xA;xpSvw98QkMkySXYq7FXYqk+vRIGilH22qrDxA3r9FcBQUpwIdiq0/C1ezdfniq12LVj4mh2Ldt+v&#xA;4Yqu9Nem4HgCR+o4q7i385/D+mKrZOfHqCCQCKUrU08cVXVk/lH3n+mKu5N/Ifw/rirudOoI+iv6&#xA;q4q71E9x41BGKrIpY/TX4hWgqKjwxVf6ifzD78VbDKehB+WKt4qtH2z8h/HFV2KuxVTLcGA3YN9k&#xA;eFMVaWNWXlIoLNuajp7fRiq7nEB9pQPmMVb9ReoqR4gE/qxVaWZj9k8O52FfvOKrYxvyVBQbAlif&#xA;u64qqUk7sPoH9uKu4eJJ+mn6qYq2gVHX0wBJWqBaciR4Yqyixnee1WSQASVZXCmq8kYqaH5rkmSv&#xA;irsVdiqGv7YzxALGkjg7eoWWgPWjKCcVSW/0+W2/eEfuTSp5A8WP7P7JO/tkUITruMUOIBFD0OKr&#xA;IwRyBNTX+Apiq/FXYqtb7SD3/gcVXYq7FXYqp8AzMSTUGmxI7V7fPFV3E/zn8P6Yq5CeO5ruRX5H&#xA;FXMiN9pQfmK4q16MP8i/cMVa4BZKJ8IYb0AHQ/L3xVdxP8x/D+mKu4t/Ofw/piqxAzN8dfg6b06/&#xA;L2xVf6UdalQT4nc/jiq7FWmYKCx2A64qpc0kpyIIPRBuT88VVOTfyH8P64q71B/K3vt0xVsEEVB2&#xA;8cVTTT9KuGZJ3YRxnqlKsynsajav6sNJpOlVVUKoCqooANgAMKW8VdirsVdiqlLGzzRVB9NQxbfY&#xA;nYAMvcbk/RiqRanbPHeSlI2ETEMGCnjUip36dciUFBF1Fe5ArTvihbGBxD9SwBJxVfirsVWn+8Hs&#xA;DX6SKYquxV2KuxVanVj4tt9Ap/DFV2KqcTrulRzBY8a705HtiqpirsVWn7Y+R/hiq7FXEgCp6DFV&#xA;NFbduRHI147bffirig5ipY1BruR4eGKrjGh6io8DUj8cVWpGgJHEVBrX574qudSaEGjDp/Q4q2rA&#xA;7dGHUHFW8VTDS9LhuUeWUnjy4hF2B2FSfvwgJpPsKXYq7FXYq7FXYq7FXYqp3NtFcwtDKKo3X5g1&#xA;BxVJLzSJ4KvH+9iHgPiHzH9MFIpAYEOxVaPtse1APp6/xxVdirsVdiq1Psn5n9ZxVdirTKrdR06H&#xA;FVvBgfhY0/lO/wCJ3xV1JaU5D50/txVpi6HmaMoBqehA69MVb9VfBv8AgW/pirTurLSh3IG4I7jx&#xA;GKqmKrT9sfI/wxVdiq07SA/zCn0jcfxxVdiq11ruPtD7JxVFadaNeyUB4Rp/eN1of5fniEskiiji&#xA;jWONQqKKKoySV2KuxV2KuxV2KuxVxIAqdgOpxVDNqVgrBTOlSabGo+kjpjaokEEAg1B3BGKuxVBX&#xA;mlW9xVl/dSn9tRsT/lDvgpaS9tCuwfheNh2JLD+BxpFKcWi33q0deKM3xOCpoNh/DBS0iZfL7cD6&#xA;c9G7VX+NcNLSUPHKjFSSrqaMrAbH6KYENUk/mH3H+uKtqvFQPvPvireKuxV2KuxVbIpaNlHUggfd&#xA;irYIIBHQ7jFWpN1p3PT59cVXYqtP21+RH6sVXYqskpRSenIfroPxxVfirRIAqTQeOKsh0VAtgrA1&#xA;9RmY/fx/UMISEdhS7FXYq7FXYq7FXMyqCWIAHUnYYqkesXDGQCOfnDIOLIpBAI7Gnj74CgpbgQrw&#xA;315COMczBQKBT8QAHSnKtPoxSnmmXUtzbc5Kc1YqSNq0ANfxwhIReFXYq7FXYql+rWMcsL3C/DLG&#xA;tSezAbmv0dMBQUhwIdirsVdirsVdirsVWx/Z+k/rOKuZWJBU0IqNxUb/AEjFVp9RQWLAgbkAU279&#xA;ziqMXS9Qk9NlgIUmvJiooCKVIJr3xpNNQ6Pfy1JjZQTszMU2+Va/hjS0p3Ony25HrRcan4XFCK9e&#xA;o74oclldNAZwHaEdW+EbdajoSPliqiY1NDU9QepPT54qnmhXIMbWzH4lJZB/knr9x/XhCQmuFLsV&#xA;dirsVdirsVQpSeW1niugq/aCyD7JWlQ3XamBUguLV4CAzo6tuPTaoNBsabdmwMVLFXYqnuhf7xt/&#xA;xkP6hhCQmOFLsVdirsVaZVZSrCqsKEeIOKpFd6PcRPWAGWNjtT7S/P8ArgpFI6LRbQQqJVJlp8Th&#xA;mG/sK0/DGlpK7+ya0mC15RvUxt3oOoPuMCoXFDsVdiqKs9OuLo1X4Ix1kbp9A740lHDy9EIwBO3q&#xA;dyQOP3bH8cNLSg+hXSq7iRXIUlYxtVh2qfHGlpCLYX0jBFgYE1HJwVUU8TgQnmliWO2EDwtF6Pwg&#xA;swbl4moA/VTCGSMwq06I44uoYeBFRireKpHrFnbwNG8S8PU5clHTanQdsBQUvilkikWSM8XU1BwI&#xA;ZRby+tBHLt8agmnSpG+SZKmKuxV2KuxVbw/eB+R2BHGvw9a1p44qlOtXblfRUOihqSEiisCKih+j&#xA;AUFKAB2wIbxV2Kp7oX+8bf8AGQ/qGEJCY4UtM3FS1CaCtB1PyxVRjlu2uSHh4W/AFXJHLltsQCff&#xA;FVT14fW9HmPVpy4d6YqvxV2KuxVCalZm6t+KU9RDySvfbp9OJVjnt3GxGRYtMwUVOKpzY6KvBZLr&#xA;diAfRB2Hsx74aTSaqqqoVQFUbADYAYUt4q7FXYq7FXYq7FXYqgNZs2ubdWSvOE8gB3FNxtgKCkGB&#xA;CbaFcNze2O609RfahAP68ISE4wpdirsVdirsVWTx+pEyAgMQQrEcqGmxp7Yqxq8spbOURsVZD9hh&#xA;saDxXen35FDrfT3vFAjZSQf3ik04D9kmh35YqjF8v3AUkzKXrsKGlPnX+GGlpWtmudNPp3KA2rEn&#xA;1kq3FjQCvt9GKo2x1CG7UlKq69Y2pyp44UonFXYqpPaW7zrOyfvU+y4JH6sVQXpazbysY5BdRFvh&#xA;R+IIX50X+OBCYxuroGUhge6mo+/ClvFXYqx/WYGjvWkP2ZgCD7gBSPwwFBQtpw+vWvMVT1RUe9Dw&#xA;/wCHpgQyrJMnYq7FXYq7FXYq7FXYq7FXYqk+o6QQWmtlHGhaRKmpNa/DWv3YCEUhdGb/AHIoo6lG&#xA;Jp4CnX2qRgChkWSS7FXYq7FUNHcXjy8TamNN/wB4zqflspOKoe4i1yRDwlijPSiA7g9d2G1O2BDo&#xA;9HiUkzE3EshIeViQVXjQUBLVPzxpaRFjYQWaMsVSXPJ2Pc9OgoMKUTirmUMCrCqnYg9CMVY5PHNp&#xA;d8rKP3O5ieoAKjqh69B3+nIoTyyu1uoBKo470K9dx75JKvirsVacEqQrcSQQGFDQ+O+KpDo8V6Jl&#xA;eJaRV4zVNF99u5GAICf4UuxVp0R1KuoZT1UioOKoQ6RYmVJFQq0bBwATSoNRsffwwUtIzCrsVdir&#xA;sVdirsVdirsVdirsVU5/rHACDhzJ3L1oB40HX7xiqna2MVuzOAObbfCoVQK14qo6DFURirsVdirs&#xA;VdirsVdirsVdirsVUL76l6H+mcfS5LTn/NXamKqkXo8P3PHhU/YpStfi6d69cVX4q7FXYq7FXYq7&#xA;FXYq7FXYq7FXYq7FXYq7FXYq7FXYq7FXYq7FXYq7FXYq7FX/2Q==</xmpGImg:image>
               </rdf:li>
            </rdf:Alt>
         </xmp:Thumbnails>
      </rdf:Description>
      <rdf:Description rdf:about=""
            xmlns:xmpMM="http://ns.adobe.com/xap/1.0/mm/"
            xmlns:stRef="http://ns.adobe.com/xap/1.0/sType/ResourceRef#"
            xmlns:stEvt="http://ns.adobe.com/xap/1.0/sType/ResourceEvent#">
         <xmpMM:InstanceID>xmp.iid:F07F1174072068118083CAB5A3F8FAA2</xmpMM:InstanceID>
         <xmpMM:DocumentID>xmp.did:F07F1174072068118083CAB5A3F8FAA2</xmpMM:DocumentID>
         <xmpMM:OriginalDocumentID>uuid:5D20892493BFDB11914A8590D31508C8</xmpMM:OriginalDocumentID>
         <xmpMM:RenditionClass>proof:pdf</xmpMM:RenditionClass>
         <xmpMM:DerivedFrom rdf:parseType="Resource">
            <stRef:instanceID>uuid:ae9148ef-3000-a144-9ee3-ddb3557e196e</stRef:instanceID>
            <stRef:documentID>xmp.did:8AF5709C0E20681188C6A12CE4B46A4D</stRef:documentID>
            <stRef:originalDocumentID>uuid:5D20892493BFDB11914A8590D31508C8</stRef:originalDocumentID>
            <stRef:renditionClass>proof:pdf</stRef:renditionClass>
         </xmpMM:DerivedFrom>
         <xmpMM:History>
            <rdf:Seq>
               <rdf:li rdf:parseType="Resource">
                  <stEvt:action>saved</stEvt:action>
                  <stEvt:instanceID>xmp.iid:F07F1174072068118083CAB5A3F8FAA2</stEvt:instanceID>
                  <stEvt:when>2014-04-09T01:44:12-04:00</stEvt:when>
                  <stEvt:softwareAgent>Adobe Illustrator CS5</stEvt:softwareAgent>
                  <stEvt:changed>/</stEvt:changed>
               </rdf:li>
            </rdf:Seq>
         </xmpMM:History>
      </rdf:Description>
      <rdf:Description rdf:about=""
            xmlns:illustrator="http://ns.adobe.com/illustrator/1.0/">
         <illustrator:StartupProfile>Print</illustrator:StartupProfile>
      </rdf:Description>
      <rdf:Description rdf:about=""
            xmlns:xmpTPg="http://ns.adobe.com/xap/1.0/t/pg/"
            xmlns:stDim="http://ns.adobe.com/xap/1.0/sType/Dimensions#"
            xmlns:xmpG="http://ns.adobe.com/xap/1.0/g/">
         <xmpTPg:HasVisibleOverprint>False</xmpTPg:HasVisibleOverprint>
         <xmpTPg:HasVisibleTransparency>False</xmpTPg:HasVisibleTransparency>
         <xmpTPg:NPages>1</xmpTPg:NPages>
         <xmpTPg:MaxPageSize rdf:parseType="Resource">
            <stDim:w>717.000000</stDim:w>
            <stDim:h>512.000000</stDim:h>
            <stDim:unit>Pixels</stDim:unit>
         </xmpTPg:MaxPageSize>
         <xmpTPg:PlateNames>
            <rdf:Seq>
               <rdf:li>Cyan</rdf:li>
               <rdf:li>Magenta</rdf:li>
               <rdf:li>Yellow</rdf:li>
               <rdf:li>Black</rdf:li>
            </rdf:Seq>
         </xmpTPg:PlateNames>
         <xmpTPg:SwatchGroups>
            <rdf:Seq>
               <rdf:li rdf:parseType="Resource">
                  <xmpG:groupName>Default Swatch Group</xmpG:groupName>
                  <xmpG:groupType>0</xmpG:groupType>
                  <xmpG:Colorants>
                     <rdf:Seq>
                        <rdf:li rdf:parseType="Resource">
                           <xmpG:swatchName>White</xmpG:swatchName>
                           <xmpG:mode>RGB</xmpG:mode>
                           <xmpG:type>PROCESS</xmpG:type>
                           <xmpG:red>255</xmpG:red>
                           <xmpG:green>255</xmpG:green>
                           <xmpG:blue>255</xmpG:blue>
                        </rdf:li>
                        <rdf:li rdf:parseType="Resource">
                           <xmpG:swatchName>Black</xmpG:swatchName>
                           <xmpG:mode>RGB</xmpG:mode>
                           <xmpG:type>PROCESS</xmpG:type>
                           <xmpG:red>35</xmpG:red>
                           <xmpG:green>31</xmpG:green>
                           <xmpG:blue>32</xmpG:blue>
                        </rdf:li>
                        <rdf:li rdf:parseType="Resource">
                           <xmpG:swatchName>CMYK Red</xmpG:swatchName>
                           <xmpG:mode>RGB</xmpG:mode>
                           <xmpG:type>PROCESS</xmpG:type>
                           <xmpG:red>237</xmpG:red>
                           <xmpG:green>28</xmpG:green>
                           <xmpG:blue>36</xmpG:blue>
                        </rdf:li>
                        <rdf:li rdf:parseType="Resource">
                           <xmpG:swatchName>CMYK Yellow</xmpG:swatchName>
                           <xmpG:mode>RGB</xmpG:mode>
                           <xmpG:type>PROCESS</xmpG:type>
                           <xmpG:red>255</xmpG:red>
                           <xmpG:green>242</xmpG:green>
                           <xmpG:blue>0</xmpG:blue>
                        </rdf:li>
                        <rdf:li rdf:parseType="Resource">
                           <xmpG:swatchName>CMYK Green</xmpG:swatchName>
                           <xmpG:mode>RGB</xmpG:mode>
                           <xmpG:type>PROCESS</xmpG:type>
                           <xmpG:red>0</xmpG:red>
                           <xmpG:green>166</xmpG:green>
                           <xmpG:blue>81</xmpG:blue>
                        </rdf:li>
                        <rdf:li rdf:parseType="Resource">
                           <xmpG:swatchName>CMYK Cyan</xmpG:swatchName>
                           <xmpG:mode>RGB</xmpG:mode>
                           <xmpG:type>PROCESS</xmpG:type>
                           <xmpG:red>0</xmpG:red>
                           <xmpG:green>174</xmpG:green>
                           <xmpG:blue>239</xmpG:blue>
                        </rdf:li>
                        <rdf:li rdf:parseType="Resource">
                           <xmpG:swatchName>CMYK Blue</xmpG:swatchName>
                           <xmpG:mode>RGB</xmpG:mode>
                           <xmpG:type>PROCESS</xmpG:type>
                           <xmpG:red>46</xmpG:red>
                           <xmpG:green>49</xmpG:green>
                           <xmpG:blue>146</xmpG:blue>
                        </rdf:li>
                        <rdf:li rdf:parseType="Resource">
                           <xmpG:swatchName>CMYK Magenta</xmpG:swatchName>
                           <xmpG:mode>RGB</xmpG:mode>
                           <xmpG:type>PROCESS</xmpG:type>
                           <xmpG:red>236</xmpG:red>
                           <xmpG:green>0</xmpG:green>
                           <xmpG:blue>140</xmpG:blue>
                        </rdf:li>
                        <rdf:li rdf:parseType="Resource">
                           <xmpG:swatchName>C=15 M=100 Y=90 K=10</xmpG:swatchName>
                           <xmpG:mode>RGB</xmpG:mode>
                           <xmpG:type>PROCESS</xmpG:type>
                           <xmpG:red>190</xmpG:red>
                           <xmpG:green>30</xmpG:green>
                           <xmpG:blue>45</xmpG:blue>
                        </rdf:li>
                        <rdf:li rdf:parseType="Resource">
                           <xmpG:swatchName>C=0 M=90 Y=85 K=0</xmpG:swatchName>
                           <xmpG:mode>RGB</xmpG:mode>
                           <xmpG:type>PROCESS</xmpG:type>
                           <xmpG:red>239</xmpG:red>
                           <xmpG:green>65</xmpG:green>
                           <xmpG:blue>54</xmpG:blue>
                        </rdf:li>
                        <rdf:li rdf:parseType="Resource">
                           <xmpG:swatchName>C=0 M=80 Y=95 K=0</xmpG:swatchName>
                           <xmpG:mode>RGB</xmpG:mode>
                           <xmpG:type>PROCESS</xmpG:type>
                           <xmpG:red>241</xmpG:red>
                           <xmpG:green>90</xmpG:green>
                           <xmpG:blue>41</xmpG:blue>
                        </rdf:li>
                        <rdf:li rdf:parseType="Resource">
                           <xmpG:swatchName>C=0 M=50 Y=100 K=0</xmpG:swatchName>
                           <xmpG:mode>RGB</xmpG:mode>
                           <xmpG:type>PROCESS</xmpG:type>
                           <xmpG:red>247</xmpG:red>
                           <xmpG:green>148</xmpG:green>
                           <xmpG:blue>30</xmpG:blue>
                        </rdf:li>
                        <rdf:li rdf:parseType="Resource">
                           <xmpG:swatchName>C=0 M=35 Y=85 K=0</xmpG:swatchName>
                           <xmpG:mode>RGB</xmpG:mode>
                           <xmpG:type>PROCESS</xmpG:type>
                           <xmpG:red>251</xmpG:red>
                           <xmpG:green>176</xmpG:green>
                           <xmpG:blue>64</xmpG:blue>
                        </rdf:li>
                        <rdf:li rdf:parseType="Resource">
                           <xmpG:swatchName>C=5 M=0 Y=90 K=0</xmpG:swatchName>
                           <xmpG:mode>RGB</xmpG:mode>
                           <xmpG:type>PROCESS</xmpG:type>
                           <xmpG:red>249</xmpG:red>
                           <xmpG:green>237</xmpG:green>
                           <xmpG:blue>50</xmpG:blue>
                        </rdf:li>
                        <rdf:li rdf:parseType="Resource">
                           <xmpG:swatchName>C=20 M=0 Y=100 K=0</xmpG:swatchName>
                           <xmpG:mode>RGB</xmpG:mode>
                           <xmpG:type>PROCESS</xmpG:type>
                           <xmpG:red>215</xmpG:red>
                           <xmpG:green>223</xmpG:green>
                           <xmpG:blue>35</xmpG:blue>
                        </rdf:li>
                        <rdf:li rdf:parseType="Resource">
                           <xmpG:swatchName>C=50 M=0 Y=100 K=0</xmpG:swatchName>
                           <xmpG:mode>RGB</xmpG:mode>
                           <xmpG:type>PROCESS</xmpG:type>
                           <xmpG:red>141</xmpG:red>
                           <xmpG:green>198</xmpG:green>
                           <xmpG:blue>63</xmpG:blue>
                        </rdf:li>
                        <rdf:li rdf:parseType="Resource">
                           <xmpG:swatchName>C=75 M=0 Y=100 K=0</xmpG:swatchName>
                           <xmpG:mode>RGB</xmpG:mode>
                           <xmpG:type>PROCESS</xmpG:type>
                           <xmpG:red>57</xmpG:red>
                           <xmpG:green>181</xmpG:green>
                           <xmpG:blue>74</xmpG:blue>
                        </rdf:li>
                        <rdf:li rdf:parseType="Resource">
                           <xmpG:swatchName>C=85 M=10 Y=100 K=10</xmpG:swatchName>
                           <xmpG:mode>RGB</xmpG:mode>
                           <xmpG:type>PROCESS</xmpG:type>
                           <xmpG:red>0</xmpG:red>
                           <xmpG:green>148</xmpG:green>
                           <xmpG:blue>68</xmpG:blue>
                        </rdf:li>
                        <rdf:li rdf:parseType="Resource">
                           <xmpG:swatchName>C=90 M=30 Y=95 K=30</xmpG:swatchName>
                           <xmpG:mode>RGB</xmpG:mode>
                           <xmpG:type>PROCESS</xmpG:type>
                           <xmpG:red>0</xmpG:red>
                           <xmpG:green>104</xmpG:green>
                           <xmpG:blue>56</xmpG:blue>
                        </rdf:li>
                        <rdf:li rdf:parseType="Resource">
                           <xmpG:swatchName>C=75 M=0 Y=75 K=0</xmpG:swatchName>
                           <xmpG:mode>RGB</xmpG:mode>
                           <xmpG:type>PROCESS</xmpG:type>
                           <xmpG:red>43</xmpG:red>
                           <xmpG:green>182</xmpG:green>
                           <xmpG:blue>115</xmpG:blue>
                        </rdf:li>
                        <rdf:li rdf:parseType="Resource">
                           <xmpG:swatchName>C=80 M=10 Y=45 K=0</xmpG:swatchName>
                           <xmpG:mode>RGB</xmpG:mode>
                           <xmpG:type>PROCESS</xmpG:type>
                           <xmpG:red>0</xmpG:red>
                           <xmpG:green>167</xmpG:green>
                           <xmpG:blue>157</xmpG:blue>
                        </rdf:li>
                        <rdf:li rdf:parseType="Resource">
                           <xmpG:swatchName>C=70 M=15 Y=0 K=0</xmpG:swatchName>
                           <xmpG:mode>RGB</xmpG:mode>
                           <xmpG:type>PROCESS</xmpG:type>
                           <xmpG:red>39</xmpG:red>
                           <xmpG:green>170</xmpG:green>
                           <xmpG:blue>225</xmpG:blue>
                        </rdf:li>
                        <rdf:li rdf:parseType="Resource">
                           <xmpG:swatchName>C=85 M=50 Y=0 K=0</xmpG:swatchName>
                           <xmpG:mode>RGB</xmpG:mode>
                           <xmpG:type>PROCESS</xmpG:type>
                           <xmpG:red>28</xmpG:red>
                           <xmpG:green>117</xmpG:green>
                           <xmpG:blue>188</xmpG:blue>
                        </rdf:li>
                        <rdf:li rdf:parseType="Resource">
                           <xmpG:swatchName>C=100 M=95 Y=5 K=0</xmpG:swatchName>
                           <xmpG:mode>RGB</xmpG:mode>
                           <xmpG:type>PROCESS</xmpG:type>
                           <xmpG:red>43</xmpG:red>
                           <xmpG:green>57</xmpG:green>
                           <xmpG:blue>144</xmpG:blue>
                        </rdf:li>
                        <rdf:li rdf:parseType="Resource">
                           <xmpG:swatchName>C=100 M=100 Y=25 K=25</xmpG:swatchName>
                           <xmpG:mode>RGB</xmpG:mode>
                           <xmpG:type>PROCESS</xmpG:type>
                           <xmpG:red>38</xmpG:red>
                           <xmpG:green>34</xmpG:green>
                           <xmpG:blue>98</xmpG:blue>
                        </rdf:li>
                        <rdf:li rdf:parseType="Resource">
                           <xmpG:swatchName>C=75 M=100 Y=0 K=0</xmpG:swatchName>
                           <xmpG:mode>RGB</xmpG:mode>
                           <xmpG:type>PROCESS</xmpG:type>
                           <xmpG:red>102</xmpG:red>
                           <xmpG:green>45</xmpG:green>
                           <xmpG:blue>145</xmpG:blue>
                        </rdf:li>
                        <rdf:li rdf:parseType="Resource">
                           <xmpG:swatchName>C=50 M=100 Y=0 K=0</xmpG:swatchName>
                           <xmpG:mode>RGB</xmpG:mode>
                           <xmpG:type>PROCESS</xmpG:type>
                           <xmpG:red>146</xmpG:red>
                           <xmpG:green>39</xmpG:green>
                           <xmpG:blue>143</xmpG:blue>
                        </rdf:li>
                        <rdf:li rdf:parseType="Resource">
                           <xmpG:swatchName>C=35 M=100 Y=35 K=10</xmpG:swatchName>
                           <xmpG:mode>RGB</xmpG:mode>
                           <xmpG:type>PROCESS</xmpG:type>
                           <xmpG:red>158</xmpG:red>
                           <xmpG:green>31</xmpG:green>
                           <xmpG:blue>99</xmpG:blue>
                        </rdf:li>
                        <rdf:li rdf:parseType="Resource">
                           <xmpG:swatchName>C=10 M=100 Y=50 K=0</xmpG:swatchName>
                           <xmpG:mode>RGB</xmpG:mode>
                           <xmpG:type>PROCESS</xmpG:type>
                           <xmpG:red>218</xmpG:red>
                           <xmpG:green>28</xmpG:green>
                           <xmpG:blue>92</xmpG:blue>
                        </rdf:li>
                        <rdf:li rdf:parseType="Resource">
                           <xmpG:swatchName>C=0 M=95 Y=20 K=0</xmpG:swatchName>
                           <xmpG:mode>RGB</xmpG:mode>
                           <xmpG:type>PROCESS</xmpG:type>
                           <xmpG:red>238</xmpG:red>
                           <xmpG:green>42</xmpG:green>
                           <xmpG:blue>123</xmpG:blue>
                        </rdf:li>
                        <rdf:li rdf:parseType="Resource">
                           <xmpG:swatchName>C=25 M=25 Y=40 K=0</xmpG:swatchName>
                           <xmpG:mode>RGB</xmpG:mode>
                           <xmpG:type>PROCESS</xmpG:type>
                           <xmpG:red>194</xmpG:red>
                           <xmpG:green>181</xmpG:green>
                           <xmpG:blue>155</xmpG:blue>
                        </rdf:li>
                        <rdf:li rdf:parseType="Resource">
                           <xmpG:swatchName>C=40 M=45 Y=50 K=5</xmpG:swatchName>
                           <xmpG:mode>RGB</xmpG:mode>
                           <xmpG:type>PROCESS</xmpG:type>
                           <xmpG:red>155</xmpG:red>
                           <xmpG:green>133</xmpG:green>
                           <xmpG:blue>121</xmpG:blue>
                        </rdf:li>
                        <rdf:li rdf:parseType="Resource">
                           <xmpG:swatchName>C=50 M=50 Y=60 K=25</xmpG:swatchName>
                           <xmpG:mode>RGB</xmpG:mode>
                           <xmpG:type>PROCESS</xmpG:type>
                           <xmpG:red>114</xmpG:red>
                           <xmpG:green>102</xmpG:green>
                           <xmpG:blue>88</xmpG:blue>
                        </rdf:li>
                        <rdf:li rdf:parseType="Resource">
                           <xmpG:swatchName>C=55 M=60 Y=65 K=40</xmpG:swatchName>
                           <xmpG:mode>RGB</xmpG:mode>
                           <xmpG:type>PROCESS</xmpG:type>
                           <xmpG:red>89</xmpG:red>
                           <xmpG:green>74</xmpG:green>
                           <xmpG:blue>66</xmpG:blue>
                        </rdf:li>
                        <rdf:li rdf:parseType="Resource">
                           <xmpG:swatchName>C=25 M=40 Y=65 K=0</xmpG:swatchName>
                           <xmpG:mode>RGB</xmpG:mode>
                           <xmpG:type>PROCESS</xmpG:type>
                           <xmpG:red>196</xmpG:red>
                           <xmpG:green>154</xmpG:green>
                           <xmpG:blue>108</xmpG:blue>
                        </rdf:li>
                        <rdf:li rdf:parseType="Resource">
                           <xmpG:swatchName>C=30 M=50 Y=75 K=10</xmpG:swatchName>
                           <xmpG:mode>RGB</xmpG:mode>
                           <xmpG:type>PROCESS</xmpG:type>
                           <xmpG:red>169</xmpG:red>
                           <xmpG:green>124</xmpG:green>
                           <xmpG:blue>80</xmpG:blue>
                        </rdf:li>
                        <rdf:li rdf:parseType="Resource">
                           <xmpG:swatchName>C=35 M=60 Y=80 K=25</xmpG:swatchName>
                           <xmpG:mode>RGB</xmpG:mode>
                           <xmpG:type>PROCESS</xmpG:type>
                           <xmpG:red>139</xmpG:red>
                           <xmpG:green>94</xmpG:green>
                           <xmpG:blue>60</xmpG:blue>
                        </rdf:li>
                        <rdf:li rdf:parseType="Resource">
                           <xmpG:swatchName>C=40 M=65 Y=90 K=35</xmpG:swatchName>
                           <xmpG:mode>RGB</xmpG:mode>
                           <xmpG:type>PROCESS</xmpG:type>
                           <xmpG:red>117</xmpG:red>
                           <xmpG:green>76</xmpG:green>
                           <xmpG:blue>41</xmpG:blue>
                        </rdf:li>
                        <rdf:li rdf:parseType="Resource">
                           <xmpG:swatchName>C=40 M=70 Y=100 K=50</xmpG:swatchName>
                           <xmpG:mode>RGB</xmpG:mode>
                           <xmpG:type>PROCESS</xmpG:type>
                           <xmpG:red>96</xmpG:red>
                           <xmpG:green>57</xmpG:green>
                           <xmpG:blue>19</xmpG:blue>
                        </rdf:li>
                        <rdf:li rdf:parseType="Resource">
                           <xmpG:swatchName>C=50 M=70 Y=80 K=70</xmpG:swatchName>
                           <xmpG:mode>RGB</xmpG:mode>
                           <xmpG:type>PROCESS</xmpG:type>
                           <xmpG:red>60</xmpG:red>
                           <xmpG:green>36</xmpG:green>
                           <xmpG:blue>21</xmpG:blue>
                        </rdf:li>
                     </rdf:Seq>
                  </xmpG:Colorants>
               </rdf:li>
               <rdf:li rdf:parseType="Resource">
                  <xmpG:groupName>Grays</xmpG:groupName>
                  <xmpG:groupType>1</xmpG:groupType>
                  <xmpG:Colorants>
                     <rdf:Seq>
                        <rdf:li rdf:parseType="Resource">
                           <xmpG:swatchName>C=0 M=0 Y=0 K=100</xmpG:swatchName>
                           <xmpG:mode>RGB</xmpG:mode>
                           <xmpG:type>PROCESS</xmpG:type>
                           <xmpG:red>35</xmpG:red>
                           <xmpG:green>31</xmpG:green>
                           <xmpG:blue>32</xmpG:blue>
                        </rdf:li>
                        <rdf:li rdf:parseType="Resource">
                           <xmpG:swatchName>C=0 M=0 Y=0 K=90</xmpG:swatchName>
                           <xmpG:mode>RGB</xmpG:mode>
                           <xmpG:type>PROCESS</xmpG:type>
                           <xmpG:red>65</xmpG:red>
                           <xmpG:green>64</xmpG:green>
                           <xmpG:blue>66</xmpG:blue>
                        </rdf:li>
                        <rdf:li rdf:parseType="Resource">
                           <xmpG:swatchName>C=0 M=0 Y=0 K=80</xmpG:swatchName>
                           <xmpG:mode>RGB</xmpG:mode>
                           <xmpG:type>PROCESS</xmpG:type>
                           <xmpG:red>88</xmpG:red>
                           <xmpG:green>89</xmpG:green>
                           <xmpG:blue>91</xmpG:blue>
                        </rdf:li>
                        <rdf:li rdf:parseType="Resource">
                           <xmpG:swatchName>C=0 M=0 Y=0 K=70</xmpG:swatchName>
                           <xmpG:mode>RGB</xmpG:mode>
                           <xmpG:type>PROCESS</xmpG:type>
                           <xmpG:red>109</xmpG:red>
                           <xmpG:green>110</xmpG:green>
                           <xmpG:blue>113</xmpG:blue>
                        </rdf:li>
                        <rdf:li rdf:parseType="Resource">
                           <xmpG:swatchName>C=0 M=0 Y=0 K=60</xmpG:swatchName>
                           <xmpG:mode>RGB</xmpG:mode>
                           <xmpG:type>PROCESS</xmpG:type>
                           <xmpG:red>128</xmpG:red>
                           <xmpG:green>130</xmpG:green>
                           <xmpG:blue>133</xmpG:blue>
                        </rdf:li>
                        <rdf:li rdf:parseType="Resource">
                           <xmpG:swatchName>C=0 M=0 Y=0 K=50</xmpG:swatchName>
                           <xmpG:mode>RGB</xmpG:mode>
                           <xmpG:type>PROCESS</xmpG:type>
                           <xmpG:red>147</xmpG:red>
                           <xmpG:green>149</xmpG:green>
                           <xmpG:blue>152</xmpG:blue>
                        </rdf:li>
                        <rdf:li rdf:parseType="Resource">
                           <xmpG:swatchName>C=0 M=0 Y=0 K=40</xmpG:swatchName>
                           <xmpG:mode>RGB</xmpG:mode>
                           <xmpG:type>PROCESS</xmpG:type>
                           <xmpG:red>167</xmpG:red>
                           <xmpG:green>169</xmpG:green>
                           <xmpG:blue>172</xmpG:blue>
                        </rdf:li>
                        <rdf:li rdf:parseType="Resource">
                           <xmpG:swatchName>C=0 M=0 Y=0 K=30</xmpG:swatchName>
                           <xmpG:mode>RGB</xmpG:mode>
                           <xmpG:type>PROCESS</xmpG:type>
                           <xmpG:red>188</xmpG:red>
                           <xmpG:green>190</xmpG:green>
                           <xmpG:blue>192</xmpG:blue>
                        </rdf:li>
                        <rdf:li rdf:parseType="Resource">
                           <xmpG:swatchName>C=0 M=0 Y=0 K=20</xmpG:swatchName>
                           <xmpG:mode>RGB</xmpG:mode>
                           <xmpG:type>PROCESS</xmpG:type>
                           <xmpG:red>209</xmpG:red>
                           <xmpG:green>211</xmpG:green>
                           <xmpG:blue>212</xmpG:blue>
                        </rdf:li>
                        <rdf:li rdf:parseType="Resource">
                           <xmpG:swatchName>C=0 M=0 Y=0 K=10</xmpG:swatchName>
                           <xmpG:mode>RGB</xmpG:mode>
                           <xmpG:type>PROCESS</xmpG:type>
                           <xmpG:red>230</xmpG:red>
                           <xmpG:green>231</xmpG:green>
                           <xmpG:blue>232</xmpG:blue>
                        </rdf:li>
                        <rdf:li rdf:parseType="Resource">
                           <xmpG:swatchName>C=0 M=0 Y=0 K=5</xmpG:swatchName>
                           <xmpG:mode>RGB</xmpG:mode>
                           <xmpG:type>PROCESS</xmpG:type>
                           <xmpG:red>241</xmpG:red>
                           <xmpG:green>242</xmpG:green>
                           <xmpG:blue>242</xmpG:blue>
                        </rdf:li>
                     </rdf:Seq>
                  </xmpG:Colorants>
               </rdf:li>
               <rdf:li rdf:parseType="Resource">
                  <xmpG:groupName>Brights</xmpG:groupName>
                  <xmpG:groupType>1</xmpG:groupType>
                  <xmpG:Colorants>
                     <rdf:Seq>
                        <rdf:li rdf:parseType="Resource">
                           <xmpG:swatchName>C=0 M=100 Y=100 K=0</xmpG:swatchName>
                           <xmpG:mode>RGB</xmpG:mode>
                           <xmpG:type>PROCESS</xmpG:type>
                           <xmpG:red>237</xmpG:red>
                           <xmpG:green>28</xmpG:green>
                           <xmpG:blue>36</xmpG:blue>
                        </rdf:li>
                        <rdf:li rdf:parseType="Resource">
                           <xmpG:swatchName>C=0 M=75 Y=100 K=0</xmpG:swatchName>
                           <xmpG:mode>RGB</xmpG:mode>
                           <xmpG:type>PROCESS</xmpG:type>
                           <xmpG:red>242</xmpG:red>
                           <xmpG:green>101</xmpG:green>
                           <xmpG:blue>34</xmpG:blue>
                        </rdf:li>
                        <rdf:li rdf:parseType="Resource">
                           <xmpG:swatchName>C=0 M=10 Y=95 K=0</xmpG:swatchName>
                           <xmpG:mode>RGB</xmpG:mode>
                           <xmpG:type>PROCESS</xmpG:type>
                           <xmpG:red>255</xmpG:red>
                           <xmpG:green>222</xmpG:green>
                           <xmpG:blue>23</xmpG:blue>
                        </rdf:li>
                        <rdf:li rdf:parseType="Resource">
                           <xmpG:swatchName>C=85 M=10 Y=100 K=0</xmpG:swatchName>
                           <xmpG:mode>RGB</xmpG:mode>
                           <xmpG:type>PROCESS</xmpG:type>
                           <xmpG:red>0</xmpG:red>
                           <xmpG:green>161</xmpG:green>
                           <xmpG:blue>75</xmpG:blue>
                        </rdf:li>
                        <rdf:li rdf:parseType="Resource">
                           <xmpG:swatchName>C=100 M=90 Y=0 K=0</xmpG:swatchName>
                           <xmpG:mode>RGB</xmpG:mode>
                           <xmpG:type>PROCESS</xmpG:type>
                           <xmpG:red>33</xmpG:red>
                           <xmpG:green>64</xmpG:green>
                           <xmpG:blue>154</xmpG:blue>
                        </rdf:li>
                        <rdf:li rdf:parseType="Resource">
                           <xmpG:swatchName>C=60 M=90 Y=0 K=0</xmpG:swatchName>
                           <xmpG:mode>RGB</xmpG:mode>
                           <xmpG:type>PROCESS</xmpG:type>
                           <xmpG:red>127</xmpG:red>
                           <xmpG:green>63</xmpG:green>
                           <xmpG:blue>152</xmpG:blue>
                        </rdf:li>
                     </rdf:Seq>
                  </xmpG:Colorants>
               </rdf:li>
            </rdf:Seq>
         </xmpTPg:SwatchGroups>
      </rdf:Description>
      <rdf:Description rdf:about=""
            xmlns:pdf="http://ns.adobe.com/pdf/1.3/">
         <pdf:Producer>Adobe PDF library 9.90</pdf:Producer>
      </rdf:Description>
   </rdf:RDF>
</x:xmpmeta>
                                                                                                    
                                                                                                    
                                                                                                    
                                                                                                    
                                                                                                    
                                                                                                    
                                                                                                    
                                                                                                    
                                                                                                    
                                                                                                    
                                                                                                    
                                                                                                    
                                                                                                    
                                                                                                    
                                                                                                    
                                                                                                    
                                                                                                    
                                                                                                    
                                                                                                    
                                                                                                    
                           
<?xpacket end="w"?>
	</metadata>
<g id="Layer_1" i:layer="yes" i:dimmedPercent="50" i:rgbTrio="#4F008000FFFF">
	<g>
		<path id="HI" fill="#DADED9" stroke="#AFB5AA" stroke-width="0.75" d="M190.081,408.293l1.462-2.68l1.706-0.243l0.244,0.612
			l-1.584,2.311H190.081z M197.756,405.494l4.629,1.948l1.585-0.242l1.217-2.925l-0.487-2.561l-3.167-0.365l-3.045,1.34
			L197.756,405.494z M220.903,413.044l2.801,4.144l1.828-0.245l0.853-0.364l1.097,0.975l2.8-0.122l0.732-1.097l-2.192-1.34
			l-1.463-2.801l-1.583-2.681l-4.385,2.193L220.903,413.044z M236.129,419.747l0.976-1.462l3.532,0.73l0.488-0.366l4.629,0.486
			l-0.243,0.976l-1.949,1.097l-3.291-0.242L236.129,419.747L236.129,419.747z M240.149,423.642l1.462,2.926l2.315-0.853l0.244-1.218
			l-1.218-1.583l-2.803-0.243V423.642L240.149,423.642z M245.39,422.792l1.704-2.194l3.534,1.828l3.289,0.854l3.288,2.069v1.463
			l-2.679,1.341l-3.654,0.729l-1.828-1.096L245.39,422.792z M257.937,434.486l1.218-0.973l2.558,1.217l5.726,2.679l2.558,1.585
			l1.218,1.824l1.462,3.293l3.047,1.947l-0.245,0.977l-2.924,2.435l-3.167,1.097l-1.096-0.487l-2.315,1.339l-1.827,2.436
			l-1.706,2.193l-1.34-0.121l-2.68-1.947l-0.243-3.412l0.487-1.83l-1.218-4.262l-1.583-1.34l-0.122-1.949l1.705-0.729l1.583-2.317
			l0.367-0.729l-1.218-1.34L257.937,434.486L257.937,434.486z"/>
		<path id="AK" fill="#DADED9" stroke="#AFB5AA" stroke-width="0.75" d="M133.557,358.834l-0.245,64.324l1.219,0.73l2.315,0.121
			l1.097-0.852h1.949l0.121,2.19l5.239,5.117l0.365,1.948l2.56-1.461l0.486-0.122l0.245-2.315l1.098-1.218l0.853-0.123l1.46-1.094
			l2.315,1.583l0.487,2.192l1.461,0.854l0.854,1.826l2.925,1.34l2.557,4.508l2.071,2.922l1.704,2.073l1.098,2.8l3.777,1.339
			l3.898,1.586l0.73,3.287l0.366,2.315l-0.73,2.558l-1.34,1.708l-1.218-0.61l-1.097-2.315l-2.072-1.095l-1.339-0.854l-0.609,0.608
			l1.097,2.072l0.122,2.802l-0.854,0.366l-1.461-1.464l-1.584-0.975l0.367,1.22l0.974,1.341l-0.609,0.608
			c0,0-0.609-0.243-0.973-0.73c-0.369-0.488-1.587-2.559-1.587-2.559l-0.73-1.705c0,0-0.244,0.974-0.73,0.732
			c-0.487-0.246-0.976-1.098-0.976-1.098l1.341-1.465l-1.097-1.094v-3.777h-0.609l-0.61,2.559l-0.853,0.367l-0.731-2.804
			l-0.488-2.803l-0.61-0.365l0.245,4.265v0.854l-1.096-0.976l-2.679-4.509l-1.584-0.364l-0.488-2.804l-1.218-2.188l-1.218-0.855
			v-1.708l1.584-0.969l-0.366-0.248l-1.948,0.486l-2.56-1.826l-1.948-2.192l-3.655-1.948l-3.046-1.949l0.975-2.437v-1.219
			l-1.341,1.219l-2.191,0.854l-2.802-0.854l-4.264-1.827h-4.141l-0.488,0.365l-4.872-2.923l-1.585-0.243l-2.07-4.387l-2.679,0.244
			l-2.681,1.096l0.364,3.409l0.853-2.19l0.73,0.244l-1.096,3.286l2.436-2.068l0.487,1.219l-2.922,3.289l-0.975-0.244l-0.366-1.459
			l-0.975-0.61l-0.974,0.852l-2.071-1.34l-2.315,1.581l-1.341,1.586l-2.557,1.585l-3.534-0.126l-0.364-1.579l2.801-0.489v-0.977
			l-1.703-0.482l0.729-1.83l1.706-2.923v-1.34l0.122-0.609l3.288-1.707l0.73,0.974h2.071l-0.975-1.948l-2.802-0.241l-3.775,2.069
			l-1.829,2.558l-1.339,1.95l-0.853,1.705l-3.168,1.096l-2.315,1.95l-0.242,1.217l1.704,0.733l0.61,1.582l-2.072,2.436l-4.873,3.165
			l-5.846,3.171l-1.583,0.854l-4.021,0.849l-4.021,1.708l1.339,0.977l-1.096,1.094l-0.365,0.855l-2.07-0.732l-2.437,0.123
			l-0.609,1.705h-0.732l0.245-1.828l-2.681,0.974l-2.192,0.732l-2.558-0.974l-2.193,1.459h-2.438l-1.583,0.977l-1.219,0.607
			l-1.583-0.245l-1.949-0.852l-1.706,0.489l-0.731,0.729l-1.218-0.85v-1.464l2.315-0.974l4.752,0.487l3.289-1.22l1.584-1.583
			l2.192-0.487l1.34-0.609l2.072,0.121l1.218,0.976l0.73-0.245l1.706-2.069l2.314-0.729l2.558-0.488l0.975-0.244l0.488,0.364h0.609
			l0.973-2.801l3.046-1.097l1.463-2.802l1.705-3.409l1.218-1.098l0.244-1.949l-1.217,0.975l-2.559,0.485l-0.487-1.826l-0.975-0.243
			l-0.73,0.731l-0.124,2.194l-1.095-0.126l-1.097-4.382l-0.974,0.974l-0.854-0.366l-0.244-1.46l-3.045,0.121l-1.584,0.85
			l-1.949-0.241l1.096-1.099l0.367-1.945l-0.489-1.464l1.098-0.73l0.974-0.122l-0.488-1.342v-3.284l-0.73-0.734l-0.609,1.096h-4.628
			l-1.098-0.973l-0.486-2.923l-1.584-2.68v-0.733l1.584-0.61l0.121-1.581l0.854-0.855l-0.61-0.364l-0.974,0.364l-0.853-2.07
			l0.731-3.774l3.412-2.437l1.948-1.218l1.461-2.804l2.072-0.976l1.949,0.854l0.243,1.826l1.828-0.242l2.437-1.828l1.217,0.485
			l0.732,0.488h1.219l1.705-0.974l0.609-3.289c0,0,0.244-2.191,0.731-2.558c0.486-0.367,0.73-0.731,0.73-0.731l-0.852-1.463
			l-1.949,0.609l-2.436,0.608l-1.462-0.363l-2.68-1.339l-3.777-0.124l-2.68-2.803l0.365-2.924l0.488-1.827l-1.584-1.34l-1.462-2.802
			l0.367-0.609l5.116-0.364h1.583l0.732,0.729h0.486l-0.122-1.218l2.924-0.488l1.949,0.247l1.097,0.851l-1.097,1.585l-0.364,1.093
			l2.07,1.217l3.776,1.345l1.34-0.733l-1.706-3.287l-0.73-2.437l0.73-0.609l-2.558-1.462l-0.365-0.854l0.365-1.216l-0.609-2.924
			l-2.192-3.531l-1.828-3.17l2.192-1.46h2.437l1.339,0.486l3.168-0.123l2.801-2.68l0.854-2.313l2.801-1.826l1.22,0.729l2.071-0.487
			l2.801-1.584l0.853-0.121l0.73,0.606l3.412-0.119l2.071-2.316h0.854l2.679,1.829l1.461,1.584l-0.366,0.849l0.488,0.856
			l1.218-1.219l2.924,0.244l0.244,2.801l1.461,1.098l5.36,0.486l4.751,3.168l1.096-0.73l3.9,1.949l1.583-0.488l1.462-0.609
			l3.654,1.462L133.557,358.834L133.557,358.834z M46.818,380.64l1.584,4.022l-0.122,0.729l-2.193-0.244l-1.341-3.045l-1.339-1.095
			h-1.827l-0.122-1.951l1.34-1.828l0.852,1.828l1.096,1.098L46.818,380.64z M44.87,405.856l2.801,0.61l2.802,0.733l0.609,0.728
			l-1.218,2.803l-2.314-0.122l-2.559-2.681L44.87,405.856z M29.277,395.259l0.853,1.949l0.852,1.22l-0.852,0.607l-1.585-2.316v-1.46
			H29.277L29.277,395.259z M18.922,450.324l2.558-1.707l2.559-0.732l1.948,0.243l0.366,1.22l1.461,0.367l1.463-1.461l-0.244-1.219
			l2.072-0.489l2.192,1.948l-0.852,1.341l-3.29,0.854l-2.07-0.364l-2.802-0.854l-3.289,1.097l-1.219,0.245l-0.852-0.489V450.324z
			 M55.834,446.91l1.218,1.464l1.582-1.218l-1.096-0.977L55.834,446.91z M58.026,449.228l0.853-1.709l1.583,0.245l-0.609,1.464
			H58.026z M75.812,447.764l1.097,1.341l0.73-0.851l-0.608-1.463L75.812,447.764z M82.392,438.385l0.852,4.387l2.194,0.608
			l3.775-2.194l3.29-1.947l-1.218-1.829l0.366-1.826l-1.584,0.973l-2.192-0.608l1.218-0.854l1.461,0.611l2.923-1.342l0.366-1.095
			l-1.828-0.612l0.609-1.459l-2.071,1.459l-3.533,2.685l-3.655,2.189L82.392,438.385L82.392,438.385z M114.307,423.4l1.828-1.099
			l-0.73-1.336l-1.34,0.729L114.307,423.4z"/>
		<path id="FL" fill="#DADED9" stroke="#AFB5AA" stroke-width="0.75" d="M587.005,347.883l1.709,5.516l2.812,7.34l4.018,7.066
			l2.803,4.753l3.654,4.14l3.047,2.805l1.217,2.189l-0.854,0.976l-0.608,0.976l2.195,5.604l2.193,2.192l1.946,4.022l2.681,4.383
			l3.411,6.214l0.975,5.725l0.366,9.014l0.487,1.342l-0.244,2.557l-1.828,0.975l0.244,1.462l-0.488,1.462l0.244,1.829l0.367,1.461
			l-2.074,2.437l-2.313,1.095l-2.923,0.125l-1.096,1.215l-1.828,0.734l-0.973-0.369l-0.855-0.729l-0.242-2.193l-0.609-2.559
			l-2.558-3.896l-2.684-1.707l-2.922-0.243l-0.608,0.976l-2.313-3.29l-0.488-2.681l-1.949-3.045l-1.34-0.851l-1.219,1.584
			l-1.342-0.245l-1.581-3.776l-2.194-2.923l-2.19-4.021l-1.951-2.313l-2.68-2.803l1.585-1.829l2.437-4.142l-0.124-1.216l-3.41-0.733
			l-1.218,0.489l0.242,0.489l1.949,0.727l-1.094,3.414l-0.61,0.363l-1.34-3.045l-0.976-3.656l-0.244-2.07l1.095-3.533v-7.187
			l-2.313-2.802l-0.973-2.313l-3.898-0.977l-1.463-0.485l-1.217-1.95l-2.56-1.217l-0.854-2.561l-2.067-0.731l-1.83-2.799
			l-3.166-1.097l-2.194-1.097h-1.948l-3.044,0.609l-0.123,1.46l0.607,0.732l-0.363,0.852l-2.313-0.119l-2.805,2.678l-2.678,1.463
			h-2.926l-2.437,0.973l-0.242-2.069l-1.218-1.462l-2.193-0.854l-1.219-1.098l-6.089-2.924l-5.728-1.34l-3.287,0.489l-4.509,0.365
			l-4.509,1.583l-2.621,0.464l-0.179-6.068l-1.949-1.459l-1.34-1.344l0.242-2.312l7.676-0.974l19.247-2.194l5.117-0.487l4.097,0.212
			l1.949,2.925l1.097,1.095l6.104,0.388l8.151-0.488l16.212-0.972l4.103-0.509l3.85,0.154l0.323,2.193l1.684,0.608l0.172-3.489
			l-1.148-3.145l0.985-1.084l4.186,0.341L587.005,347.883L587.005,347.883z M596.458,447.66l1.829-0.487l0.976-0.185l1.097-1.765
			l1.766-1.219l0.976,0.364l1.278,0.246l0.303,0.791l-2.618,0.915l-3.167,1.094l-1.766,0.913L596.458,447.66L596.458,447.66z
			 M606.63,443.885l0.913,0.787l2.073-1.581l4.021-3.169l2.803-2.923l1.889-4.993l0.73-1.28l0.122-2.558l-0.547,0.364l-0.734,2.133
			l-1.095,3.473l-2.436,3.96l-3.292,3.166l-2.559,1.462L606.63,443.885L606.63,443.885z"/>
		<path id="NH" fill="#DADED9" stroke="#AFB5AA" stroke-width="0.75" d="M678.176,124.287l0.651-0.811l0.822-2.479l-1.917-0.689
			l-0.363-2.314l-2.924-0.852l-0.243-2.069l-5.482-17.667l-3.467-10.958l-0.676-0.003l-0.49,1.218l-0.486-0.365l-0.73-0.731
			l-1.097,1.462l-0.035,3.791l0.233,4.271l1.463,2.071v3.047l-2.802,3.813l-1.95,0.854v0.852l0.854,1.341v6.456l-0.61,6.944
			l-0.124,3.653l0.734,0.976l-0.123,3.412l-0.367,1.339l0.732,0.536l12.65-3.335l1.639-0.455l1.39-2.089L678.176,124.287
			L678.176,124.287z"/>
		<g id="MI" i:knockout="Off">
			<path id="MI-" fill="#DADED9" stroke="#AFB5AA" stroke-width="0.75" d="M540.318,150.522l-2.437-6.215l-1.707-6.821l-1.825-2.437
				l-1.949-1.339l-1.22,0.852l-2.924,1.341l-1.461,3.776l-2.072,2.802l-0.852,0.487l-1.097-0.487c0,0-1.949-1.096-1.826-1.583
				c0.12-0.488,0.364-3.777,0.364-3.777l2.559-0.974l0.609-2.559l0.487-1.949l1.827-1.218l-0.245-7.554l-1.218-1.704l-0.974-0.609
				l-0.609-1.585l0.609-0.609l1.218,0.244l0.122-1.218l-1.827-1.705l-0.976-1.951h-1.947l-3.412-1.094l-4.143-2.56h-2.07
				l-0.488,0.487l-0.73-0.365l-2.313-1.707l-2.194,1.34l-2.191,1.706l0.242,2.68l0.731,0.244l1.585,0.365l0.365,0.61l-1.95,0.609
				l-1.949,0.245l-1.096,1.338l-0.245,1.583l0.245,1.218l0.244,4.142l-2.681,1.584l-0.488-0.123v-3.168l0.976-1.827l0.487-1.827
				l-0.609-0.609l-1.462,0.609l-0.731,3.167l-2.07,0.852l-1.34,1.463l-0.123,0.729l0.489,0.61l-0.489,1.95l-1.705,0.363v0.855
				l0.609,1.826l-0.854,4.629l-1.217,3.046l0.486,3.533l0.365,0.852l-0.608,1.827l-0.243,0.61l-0.244,2.071l2.68,4.508l2.193,4.871
				l1.097,3.656l-0.609,3.533l-0.731,4.507l-1.828,3.898l-0.242,2.07l-2.457,2.324l3.324-0.121l16.139-1.705l5.484-0.742
				l0.073,1.254l5.162-0.914l7.762-1.133l2.903-0.348l0.104-0.442l0.123-1.097l1.583-2.802l1.507-1.309l-0.166-3.807l1.203-1.203
				l0.822-0.26l0.167-2.68l1.157-2.284l0.79,0.456l0.124,0.489l0.608,0.122l1.462-0.73L540.318,150.522L540.318,150.522z"/>
			<path id="SP-" fill="#DADED9" stroke="#AFB5AA" stroke-width="0.75" d="M452.723,78.797l1.379-1.551l1.637-0.602l4.049-2.929
				l1.723-0.429l0.343,0.343l-3.876,3.876l-2.498,1.464l-1.551,0.689L452.723,78.797L452.723,78.797z M517.66,103.008l0.487,1.89
				l2.437,0.121l0.976-0.914c0,0-0.062-1.097-0.305-1.218c-0.243-0.122-1.218-1.401-1.218-1.401l-1.644,0.184l-1.22,0.12
				l-0.243,0.854L517.66,103.008L517.66,103.008z M442.077,100.768l0.54-0.438l2.071-0.609l2.679-1.705v-0.731l0.488-0.487
				l4.508-0.731l1.826-1.461l3.289-1.584l0.121-0.976l1.463-2.191l1.34-0.608l0.976-1.34l1.706-1.706l3.287-1.828l3.533-0.366
				l0.854,0.853l-0.243,0.732l-2.803,0.731l-1.097,2.314l-1.703,0.609l-0.367,1.827l-1.827,2.436l-0.243,1.948l0.609,0.366
				l0.729-0.853l2.681-2.192l0.974,0.975h1.707l2.437,0.729l1.094,0.854l1.098,2.314l2.072,2.071l2.924-0.121l1.095-0.731
				l1.22,0.975l1.219,0.365l0.974-0.608h0.853l1.219-0.731l3.047-2.68l2.556-0.853l4.995-0.244l3.411-1.462l1.949-0.974l1.096,0.123
				v4.264l0.368,0.243l2.19,0.609l1.462-0.366l4.631-1.218l0.851-0.853l1.098,0.366v5.239l2.437,2.315l0.974,0.487l0.975,0.732
				l-0.975,0.242l-0.608-0.242l-2.802-0.367l-1.584,0.488l-1.705-0.121l-2.437,1.095h-1.34l-4.386-0.974l-3.899,0.121l-1.461,1.949
				l-5.239,0.488l-1.827,0.609l-0.851,2.316l-0.977,0.852l-0.364-0.122l-1.097-1.218l-3.411,1.828h-0.488l-0.852-1.219l-0.609,0.121
				l-1.463,3.289l-0.73,3.047l-2.396,5.275l-0.887-0.78l-1.034-0.778l-1.462-7.752l-2.672-1.033l-1.545-1.722l-9.137-2.066
				l-2.152-0.776l-6.201-1.639l-5.944-0.861L442.077,100.768L442.077,100.768z"/>
		</g>
		<path id="VT" fill="#DADED9" stroke="#AFB5AA" stroke-width="0.75" d="M650.808,133.054l0.239-4.029l-2.18-8.127l-0.487-0.242
			l-2.19-0.977l0.608-2.192l-0.608-1.584l-2.034-3.496l0.729-2.924l-0.61-3.898l-1.826-4.873l-0.605-3.711l19.907-5.071l0.232,4.16
			l1.445,2.067v3.046l-2.793,3.812l-1.95,0.861l-0.008,0.845l0.984,1.144l-0.233,6.103l-0.458,6.977l-0.172,4.189l0.73,0.975
			l-0.121,3.444l-0.365,1.273l0.764,0.549l-5.604,1.134L650.808,133.054L650.808,133.054z"/>
		<path id="ME" fill="#DADED9" stroke="#AFB5AA" stroke-width="0.75" d="M709.854,76.366l1.462,1.584l1.705,2.8v1.462l-1.584,3.533
			l-1.461,0.488l-2.557,2.314l-3.656,4.142c0,0-0.488,0-0.976,0c-0.488,0-0.729-1.584-0.729-1.584l-1.339,0.122l-0.733,1.097
			l-1.826,1.096l-0.732,1.096l1.221,1.097l-0.367,0.487l-0.368,2.071l-1.458-0.122v-1.219l-0.244-0.975l-1.097,0.244l-1.34-2.437
			l-1.585,0.975l0.976,1.097l0.243,0.854l-0.606,0.973l0.243,2.315l0.12,1.218l-1.218,1.95l-2.194,0.365l-0.243,2.192l-4.02,2.315
			l-0.976,0.365l-1.216-1.097l-2.316,2.679l0.732,2.438l-1.097,0.975l-0.12,3.29l-0.849,4.717l-1.857-0.87l-0.365-2.315
			l-2.922-0.853l-0.245-2.071l-5.482-17.664l-3.54-11.033l1.072-0.088l1.139,0.309v-1.948l0.988-3.389l1.949-3.533l1.095-3.045
			l-1.463-1.828v-4.506l0.608-0.731l0.61-2.071l-0.122-1.096l-0.122-3.655l1.341-3.654l2.192-6.701l1.582-3.167h0.978l0.976,0.121
			v0.854l0.973,1.706l2.072,0.486l0.609-0.609V49.2l3.046-2.194l1.338-1.34l1.098,0.123l4.507,1.828l1.462,0.731l6.821,22.538h4.507
			l0.61,1.461L705.225,76l2.193,1.706h0.61l0.121-0.365l-0.366-0.853L709.854,76.366L709.854,76.366z M694.081,99.083l1.158-1.157
			l1.036,0.792l0.424,1.828l-1.278,0.67L694.081,99.083z M699.138,94.637l1.339,1.401c0,0,0.977,0.06,0.977-0.184
			c0-0.243,0.181-1.522,0.181-1.522l0.67-0.609l-0.608-1.34l-1.522,0.548L699.138,94.637z"/>
		<path id="RI" fill="#DADED9" stroke="#AFB5AA" stroke-width="0.75" d="M673.103,151.771l-2.784-11.271l4.724-1.39l1.65,1.451
			l2.495,3.257l2.024,3.316l-2.261,1.225l-0.975-0.122l-0.854,1.34l-1.827,1.462L673.103,151.771L673.103,151.771z"/>
		<path id="NY" fill="#DADED9" stroke="#AFB5AA" stroke-width="0.75" d="M640.18,159.192l-0.852-0.73l-1.95-0.122l-1.707-1.462
			l-1.229-4.619l-2.604,0.068l-1.845-2.041l-14.604,3.303l-32.406,6.577l-5.673,0.927l-0.558-4.875l1.076-0.847l0.974-0.854
			l0.732-1.218l1.338-0.853l1.462-1.341l0.367-1.219l1.583-2.07l0.854-0.731l-0.122-0.73l-0.976-2.314l-1.339-0.122l-1.46-4.63
			l2.191-1.339l3.288-1.098l3.045-0.974l2.438-0.365l4.749-0.122l1.463,0.975l1.22,0.121l1.582-0.974l1.948-0.853l3.9-0.365
			l1.583-1.341l1.341-2.436l1.217-1.462h1.583l1.463-0.853l0.124-1.706l-1.099-1.585l-0.244-1.095l0.854-1.584v-1.096h-1.34
			l-1.341-0.609l-0.608-0.854l-0.121-1.948l4.385-4.142l0.484-0.609l1.099-2.193l2.192-3.411l2.071-2.801l1.583-1.827l1.822-1.377
			l2.32-0.939l4.141-0.974l2.438,0.123l3.411-1.098l5.7-1.561l0.393,3.753l1.826,4.874l0.608,3.897l-0.729,2.922l1.948,3.413
			l0.611,1.584l-0.611,2.192l2.191,0.975l0.49,0.244l2.312,8.284l-0.403,3.812l-0.365,8.163l0.608,4.14l0.609,2.681l1.097,5.482
			v6.093l-0.851,1.705l1.384,1.501l0.601,1.264l-1.461,1.34l0.243,0.974l0.974-0.243l1.098-0.974l1.704-1.95l0.854-0.487
			l1.219,0.487l1.706,0.123l5.967-2.924l2.194-2.072l0.975-1.095l3.168,1.217l-2.558,2.679l-2.926,2.194l-5.36,4.019l-1.948,0.73
			l-4.384,1.464l-3.047,0.851l-0.887-0.4l-0.184-2.781l0.364-2.07l-0.121-1.584l-2.119-1.279l-3.41-0.733l-2.926-0.852
			L640.18,159.192L640.18,159.192z"/>
		<path id="PA" fill="#DADED9" stroke="#AFB5AA" stroke-width="0.75" d="M636.22,186.281l0.984-0.204l1.755-0.945l0.915-1.872
			l1.218-1.704l2.438-2.314v-0.608l-1.83-1.219l-2.68-1.828l-0.73-1.949l-2.07-0.244l-0.121-0.854l-0.61-2.068l1.705-0.852
			l0.123-1.829l-0.976-0.975l0.122-1.219l1.462-2.313v-2.316l2.032-1.994l-0.692-0.509l-1.901-0.145l-1.729-1.464l-1.17-4.606
			l-2.642,0.076l-1.852-2.038l-13.629,3.164l-32.406,6.579l-6.699,1.096l-0.47-4.914l-4.04,3.819l-0.975,0.365l-3.166,2.267
			l2.192,14.423l1.871,7.331l2.689,14.515l2.466-0.48l8.999-1.133l28.582-5.775l11.209-2.129l6.256-1.223l0.201-0.18l1.583-1.217
			L636.22,186.281L636.22,186.281z"/>
		<path id="NJ" fill="#DADED9" stroke="#AFB5AA" stroke-width="0.75" d="M639.651,158.978l-1.75,2.061v2.315l-1.461,2.314
			l-0.121,1.218l0.975,0.975l-0.124,1.827l-1.706,0.854l0.612,2.07l0.119,0.852l2.071,0.244l0.732,1.949l2.679,1.828l1.828,1.219
			v0.608l-2.248,2.032l-1.218,1.706l-1.097,2.069l-1.706,0.977l-0.349,1.207l-0.181,0.914l-0.462,1.963l0.824,1.692l2.438,2.192
			l3.651,1.705l3.045,0.488l0.124,1.097l-0.61,0.729l0.245,2.071h0.61l1.581-1.827l0.607-3.654l2.075-3.046l2.312-4.874l0.854-4.141
			l-0.488-0.854l-0.12-7.066l-1.218-2.557l-0.855,0.609l-2.07,0.244l-0.366-0.365l0.854-0.732l1.583-1.461l0.049-0.825l-0.289-2.588
			l0.433-2.069l-0.091-1.484l-2.114-1.32l-3.838-0.886l-3.118-1.041L639.651,158.978L639.651,158.978z"/>
		<path id="DE" fill="#DADED9" stroke="#AFB5AA" stroke-width="0.75" d="M636.597,188.984l0.277-1.617l0.282-1.274l-1.222,0.299
			l-1.217,0.353l-1.662,1.33l1.295,3.799l1.706,4.266l1.585,7.309l1.218,4.75l3.775-0.119l4.627-0.895l-1.705-5.562l-0.731,0.365
			l-2.681-1.828l-1.339-3.533l-1.462-2.68l-2.371-2.162l-0.649-1.58L636.597,188.984L636.597,188.984z"/>
		<path id="MD" fill="#DADED9" stroke="#AFB5AA" stroke-width="0.75" d="M647.271,207.172l-4.527,0.906l-3.875,0.088l-1.39-5.215
			l-1.448-6.91l-1.94-4.662l-0.97-3.314l-5.656,1.223l-11.211,2.127l-28.223,5.689l0.854,3.776l0.729,4.265l0.244-0.244l1.585-1.827
			l1.706-1.974l1.827-0.463l1.096-1.096l1.338-1.949l0.976,0.486l2.192-0.242l1.951-1.584l1.512-1.096l1.39-0.366l1.241,0.852
			l2.189,1.099l1.463,1.338l0.915,1.158l3.104,1.279v2.191l4.143,0.975l0.863,0.409l1.062-1.528l2.172,1.484l-0.963,1.87
			l-0.575,3.003l-1.34,1.95v1.583l0.488,1.341l3.813,1.021l3.25-0.047l2.314,0.732l1.582,0.244l0.73-1.584l-1.095-1.584v-1.34
			l-1.828-1.584l-1.582-4.143l0.975-4.02l-0.122-1.584l-0.975-0.975c0,0,1.097-1.219,1.097-1.705s0.364-1.584,0.364-1.584
			l1.461-0.975l1.462-1.218l0.364,0.73l-1.095,1.219l-0.974,2.802l0.242,0.852l1.34,0.244l0.365,4.141l-1.581,0.734l0.241,2.679
			l0.366-0.123l0.854-1.463l1.216,1.342l-1.216,0.975l-0.245,2.558l1.95,2.559l2.922,0.366l1.218-0.61l2.439,3.153l1.024,0.404
			l5.016-2.109l1.513-3.031L647.271,207.172L647.271,207.172z M635.238,213.975l0.853,1.889l0.122,1.341l0.854,1.402
			c0,0,0.668-0.671,0.668-0.915s-0.55-2.316-0.55-2.316l-0.547-1.765L635.238,213.975L635.238,213.975z"/>
		<path id="VA" fill="#DADED9" stroke="#AFB5AA" stroke-width="0.75" d="M641.13,217.459l-0.111-1.465l4.865-1.921l-0.581,2.424
			l-2.2,2.849l-0.316,3.454l0.348,2.556l-1.378,3.753l-1.63,1.442l-1.107-3.499l0.336-4.104l1.195-3.153L641.13,217.459
			L641.13,217.459z M643.646,238.788l-43.84,9.476l-28.201,3.978l-5.035-0.282l-1.947,1.452l-5.53,0.166l-6.315,0.738l-8.226,1.216
			l7.89-4.229l-0.011-1.562l1.145-1.616l7.953-8.669l2.976,3.372l2.851,0.729l1.918-0.86l1.684-0.988l1.912,1.014l2.948-1.076
			l1.415-3.435l1.96,0.407l2.151-1.606l1.356,0.374l2.131-2.771l0.262-1.569l-0.726-0.962l0.758-1.407l3.971-9.25l0.466-4.321
			l0.927-0.397l1.642,1.843l2.967-0.227l1.453-5.709l2.104-0.421l0.793-2.065l1.942-1.769l2.086-4.293l0.066-3.817l7.402,2.88
			c0.512,0.257,0.627-3.804,0.627-3.804l2.751,1.203l0.057,2.213l4.357,0.98l1.604,0.887l1.253,1.549l-0.495,2.75l-1.468,1.953
			l0.084,1.551l0.444,1.396l3.751,0.953l3.356,0.032l2.311,0.722l1.466,0.234l0.539,2.328l2.401,0.304l0.655,0.901l-0.33,3.535
			l1.035,0.831l-0.361,1.455l0.928,0.596l-0.169,1.041l-2.028-0.069l0.068,1.217l1.718,1.163l0.091,1.064l1.335,1.345l0.372,1.902
			l-1.927,1.041l1.186,1.127l4.372-1.271L643.646,238.788L643.646,238.788z"/>
		<path id="WV" fill="#DADED9" stroke="#AFB5AA" stroke-width="0.75" d="M588.035,197.038l0.842,3.727l0.816,4.544l1.604-1.944
			l1.705-2.313l1.912-0.465l1.097-1.096l1.34-1.949l1.088,0.488l2.192-0.244l1.951-1.584l1.514-1.098l1.39-0.362l0.981,0.765
			l2.747,1.373l1.46,1.341l1.036,0.974l-0.574,4.186l-4.396-1.914l-3.202-1.223l-0.074,3.902l-2.07,4.172l-1.906,1.827l-0.898,2.073
			l-1.99,0.378l-0.68,2.715l-0.787,2.975l-2.988,0.258l-1.75-1.839l-0.807,0.421l-0.479,4.123l-1.017,2.664l-3.738,8.254
			l0.676,0.875l-0.154,1.44l-2.118,2.926l-1.361-0.411l-2.235,1.628l-1.916-0.432l-1.507,3.434c0,0-2.457,1.076-2.958,1.03
			c-0.12-0.011-1.859-0.94-1.859-0.94l-1.76,1.039l-1.816,0.785l-2.822-0.668l-0.844-0.88l-1.652-2.276l-2.369-1.502l-1.291-2.731
			l-3.226-2.611l-0.489-1.706l-1.946-1.098l-0.609-1.217l-0.187-3.959l1.646-0.061l1.461-0.608l0.125-2.072l1.217-1.096l0.121-3.775
			l0.731-2.926l0.972-0.487l0.976,0.854l0.368,1.338l1.339-0.729l0.364-1.218l-0.852-1.341v-1.827l0.729-0.976l1.707-2.558
			l0.976-1.097l1.582,0.364l1.706-1.219l2.315-2.559l1.704-2.921l0.245-4.267l0.364-3.774v-3.534l-0.854-2.314l0.731-1.096
			l0.968-0.975l2.63,14.941l3.49-0.567L588.035,197.038L588.035,197.038z"/>
		<path id="OH" fill="#DADED9" stroke="#AFB5AA" stroke-width="0.75" d="M568.551,162.646l-4.594,3.055l-2.922,1.706l-2.561,2.802
			l-3.043,2.924l-2.438,0.609l-2.192,0.364l-4.144,1.95l-1.584,0.121l-2.557-2.315l-3.898,0.489l-1.949-1.098l-1.795-1.02
			l-3.688,0.533l-7.673,1.218l-8.446,1.646l0.976,11.024l1.341,10.354l1.948,17.664l0.427,3.643l3.106-0.1l1.829-0.608l2.534,1.135
			l1.558,3.286l3.874-0.011l1.425,1.596l1.326-0.05l1.915-1.011l1.886,0.279l4.086,0.366l1.302-1.608l1.766-0.974l1.562-0.515
			l0.486,2.072l1.342,0.731l2.617,1.764l1.646-0.059l1.004-0.373l0.14-2.079l1.195-1.098l0.074-3.61l0.773-3.099l0.976-0.452
			l0.996,0.865l0.406,1.278l1.296-0.782l0.329-1.1l-0.839-1.435l0.049-1.744l0.564-0.808l1.623-2.491l0.791-1.163l1.584,0.365
			l1.704-1.219l2.314-2.559l2.09-3.074l0.239-3.809l0.368-3.777l-0.136-3.998l-0.718-2.182l0.266-0.896l1.358-1.318l-1.724-6.816
			L568.551,162.646L568.551,162.646z"/>
		<path id="IN" fill="#DADED9" stroke="#AFB5AA" stroke-width="0.75" d="M481.32,243.008l0.051-2.152l0.363-3.413l1.707-2.191
			l1.339-2.925l1.949-3.167l-0.366-4.385l-1.337-2.072l-0.246-2.435l0.608-4.143l-0.362-5.239l-0.977-12.06l-0.974-11.572
			l-0.731-8.832l2.314,0.67l1.096,0.73l0.851-0.243l1.586-1.462l2.133-1.219l3.838-0.122l16.567-1.705l4.2-0.403l1.134,12.025
			l3.204,27.764l0.451,4.348l-0.281,1.706l0.926,1.352l0.073,1.037l-1.901,1.203l-2.667,1.167l-2.413,0.418l-0.45,3.666
			l-3.447,2.499l-2.107,3.02l0.244,1.791l-0.438,1.157h-2.508l-1.193-1.219l-1.878,0.954l-2.022,1.13l0.121,2.3l-0.9,0.194
			l-0.351-0.765l-1.634-1.133l-2.451,1.011l-1.167,2.267l-1.083-0.609l-1.098-1.206l-3.365,0.367l-4.213,0.729L481.32,243.008
			L481.32,243.008z"/>
		<path id="IL" fill="#DADED9" stroke="#AFB5AA" stroke-width="0.75" d="M481.299,243.29l0.023-2.435l0.428-3.501l1.76-2.196
			l1.406-3.073l1.682-3.011l-0.279-3.96l-1.512-2.668l-0.072-2.521l0.523-3.972l-0.623-5.409l-0.803-11.889l-0.975-11.317
			l-0.695-8.771l-0.205-0.694l-0.609-1.948l-0.975-2.802l-1.219-1.34l-1.096-1.95l-0.176-4.136l-34.51,1.957l0.172,1.788
			l1.723,0.518l0.689,0.861l0.344,1.379l2.929,2.584l0.518,1.723l-0.518,2.584l-1.378,2.758l-0.517,1.895l-1.723,1.377l-1.378,0.518
			l-3.963,1.034l-0.518,1.378l-0.516,1.551l0.516,1.033l1.379,1.207l-0.174,3.102l-1.377,1.205l-0.517,1.205v2.067l-1.378,0.346
			l-1.207,0.861l-0.172,1.033l0.172,1.55l-1.293,0.989l-0.774,2.113l0.345,2.755l1.723,5.515l5.514,5.685l4.135,2.757l-0.172,3.273
			l0.688,1.033l4.824,0.344l2.067,1.034l-0.517,2.758l-1.723,4.479l-0.518,2.41l1.722,2.931l4.825,3.963l3.445,0.517l1.552,3.792
			l1.55,2.407l-0.689,2.241l1.206,3.102l1.379,1.551l1.065-0.661l0.683-1.566l1.668-1.316l1.607-0.463l1.961,0.891l2.732,1.036
			l0.897-0.225l0.149-1.702l-0.97-1.817l0.231-1.794l1.383-1.013l2.277-0.611l0.951-0.344l-0.461-1.046l-0.598-1.774l1.08-0.74
			L481.299,243.29L481.299,243.29z"/>
		<path id="CT" fill="#DADED9" stroke="#AFB5AA" stroke-width="0.75" d="M673.102,151.746l-2.772-11.212l-3.556,0.694l-15.997,3.574
			l0.755,2.431l1.096,5.482l0.135,6.756l-0.92,1.64l1.447,1.455l3.217-2.942l2.683-2.436l1.461-1.584l0.607,0.487l2.073-1.096
			l3.896-0.853L673.102,151.746L673.102,151.746z"/>
		<path id="WI" fill="#DADED9" stroke="#AFB5AA" stroke-width="0.75" d="M477.927,165.691l-0.05-2.379l-0.889-3.412l-0.487-4.629
			l-0.853-1.826l0.73-2.314l0.609-2.195l1.096-1.948l-0.486-2.559l-0.488-2.679l0.366-1.341l1.462-1.827l0.121-2.071l-0.608-0.975
			l0.487-1.949l-0.342-3.144l2.072-4.264l2.193-5.116l0.121-1.706l-0.244-0.73l-0.608,0.365l-3.169,4.752l-2.068,3.044l-1.463,1.341
			l-0.609,1.704l-1.474,0.61l-0.853,1.461l-1.096-0.243l-0.121-1.34l0.973-1.825l1.582-3.534l1.342-1.217l0.746-1.778l-1.929-1.432
			l-1.488-7.812l-2.674-1.013l-1.466-1.739l-9.141-2.05l-2.166-0.763l-6.191-1.633l-5.967-0.874l-2.835-3.866l-0.566,0.417
			l-0.903-0.122l-0.488-0.853l-1.004,0.225l-0.853,0.122l-1.34,0.73l-0.731-0.488l0.488-1.462l1.461-2.314l0.854-0.853l-1.463-1.097
			l-1.584,0.609l-2.192,1.463l-5.603,2.437l-2.193,0.487l-2.193-0.366l-0.739-0.663l-1.597,2.137l-0.172,2.068v6.375l-0.859,1.205
			l-3.964,2.929l-1.723,4.479l0.345,0.173l1.895,1.549l0.518,2.414l-1.38,2.41v2.93l0.346,4.996l2.239,2.24h2.584l1.379,2.412
			l2.585,0.344l2.929,4.308l5.341,3.101l1.549,2.067l0.69,5.599l0.518,2.498l1.721,1.207l0.174,1.035l-1.551,2.583l0.172,2.413
			l1.895,2.928l1.896,0.862l2.239,0.343l1.012,1.041L477.927,165.691L477.927,165.691z"/>
		<path id="NC" fill="#DADED9" stroke="#AFB5AA" stroke-width="0.75" d="M643.649,238.747l1.569,3.703l2.68,4.875l1.83,1.827
			l0.486,1.704l-1.829,0.125l0.608,0.483l-0.24,3.17l-1.949,0.974l-0.489,1.586l-0.976,2.19l-2.801,1.216l-1.827-0.241l-1.097-0.119
			l-1.218-0.978l0.245,0.978v0.729h1.462l0.607,0.977l-1.461,4.746h3.167l0.485,1.22l1.707-1.702l0.975-0.366l-1.462,2.679
			l-2.314,3.655h-0.976l-0.854-0.363l-2.07,0.486l-3.897,1.827l-4.873,4.021l-2.557,3.53l-1.465,4.874l-0.365,1.828l-3.531,0.364
			l-4.108,1.006l-7.496-6.178l-9.503-5.728l-2.193-0.609l-9.501,1.096l-3.225,0.569l-1.22-2.438l-2.235-1.598l-12.427,0.366
			l-5.483,0.608l-6.82,3.412l-4.631,1.948l-15.956,1.951l0.377-3.057l1.34-1.096l2.072-0.488l0.484-2.8l3.168-2.072l2.924-1.096
			l3.169-2.681l3.287-1.582l0.489-2.316l2.923-2.925l0.486-0.122c0,0,0,0.854,0.61,0.854c0.608,0,1.462,0.243,1.462,0.243
			l1.705-2.68l1.583-0.487l1.706,0.243l1.219-2.68l2.191-1.948l0.368-1.584l0.138-2.751l3.225-0.016l5.424-0.646l11.875-1.693
			l11.405-1.576l16.307-3.557l15.059-3.206l8.422-1.812L643.649,238.747L643.649,238.747z M646.864,263.771l1.95-1.89l2.376-1.948
			l1.159-0.488l0.121-1.523l-0.49-4.628l-1.094-1.766l-0.49-1.4l0.552-0.181l2.07,4.139l0.303,3.35l-0.12,2.559l-2.559,1.16
			l-2.131,1.823l-0.854,0.917l-0.791-0.123H646.864z"/>
		<path id="DC" fill="#DADED9" stroke="#AFB5AA" stroke-width="0.75" d="M621.675,205.988l-1.401-1.375l-0.93-0.518l1.085-1.522
			l2.179,1.468L621.675,205.988L621.675,205.988z"/>
		<path id="MA" fill="#DADED9" stroke="#AFB5AA" stroke-width="0.75" d="M692.359,147.518l1.636-0.517l0.348-1.292l0.773,0.086
			l0.775,1.722l-0.946,0.345l-2.93,0.086L692.359,147.518z M685.295,148.122l1.725-1.981h1.205l1.379,1.12l-1.81,0.775l-1.638,0.775
			L685.295,148.122L685.295,148.122z M659.074,131.552l13.297-3.497l1.705-0.487l1.442-2.106l2.815-1.254l2.179,3.326l-1.828,3.898
			l-0.245,1.097l1.464,1.949l0.852-0.609h1.339l1.706,1.95l2.925,4.508l2.68,0.364l1.705-0.73l1.34-1.341l-0.61-2.069l-1.581-1.218
			l-1.097,0.608l-0.729-0.975l0.362-0.365l1.585-0.122l1.34,0.609l1.46,1.827l0.734,2.193l0.241,1.828l-3.164,1.095l-2.928,1.462
			l-2.921,3.411L683.68,148v-0.729l1.825-1.098l0.368-1.339l-0.611-2.316l-2.192,1.097l-0.608,1.096l0.365,1.707l-1.558,0.754
			l-2.068-3.413l-2.559-3.289l-1.56-1.365l-4.925,1.413l-3.836,0.791l-15.581,3.461l-0.502-3.592l0.486-7.98l3.232-0.67
			L659.074,131.552L659.074,131.552z"/>
		<path id="TN" fill="#DADED9" stroke="#AFB5AA" stroke-width="0.75" d="M539.429,256.789l-39.106,3.773l-11.876,1.339l-3.481,0.389
			l-2.917-0.021l-0.165,3.091l-6.169,0.198l-5.238,0.487l-6.097-0.092l-1.065,5.327l-1.278,4.128l-2.481,2.075l-1.018,3.302
			l-0.242,1.949l-3.046,1.706l1.097,2.679l-0.729,3.291l-0.73,0.595l81.502-7.845l0.307-2.979l1.362-1.124l2.137-0.563l0.505-2.8
			l3.091-2.041l3.049-1.125l3.077-2.692l3.343-1.525l0.395-2.31l3.062-3.003l0.414-0.089c0,0,0.022,0.855,0.633,0.855
			c0.607,0,1.463,0.264,1.463,0.264l1.705-2.698l1.56-0.49l1.714,0.223l1.206-2.663l2.224-1.992l0.321-1.461l0.233-2.797l-1.62-0.15
			l-1.959,1.527l-5.271,0.023l-13.834,1.799L539.429,256.789L539.429,256.789z"/>
		<path id="AR" fill="#DADED9" stroke="#AFB5AA" stroke-width="0.75" d="M461.92,275.474l-2.998,0.539l-3.854-0.477l0.317-1.205
			l2.245-1.936l0.711-2.757l-1.379-2.241l-59.092,1.897l1.207,5.168v6.203l1.033,8.267l0.171,28.518l1.724,1.46l2.24-1.032
			l2.068,0.862l0.512,4.953l41.914-0.859l0.863-1.575l-0.217-2.675l-1.375-2.241l1.205-1.118l-1.205-1.892l0.516-1.893l1.032-4.225
			l1.897-1.552l-0.519-1.723l2.757-4.049l2.068-1.03l-0.086-1.125l-0.262-1.378l2.154-4.217l1.811-0.948l0.29-2.583l1.334-0.935
			l-2.369-0.369l-1.011-3.019l2.113-1.791l0.414-1.521l0.966-3.05L461.92,275.474L461.92,275.474z"/>
		<path id="MO" fill="#DADED9" stroke="#AFB5AA" stroke-width="0.75" d="M435.256,203.932l-1.898-2.328l-0.863-1.723l-48.495,1.809
			l-1.724,0.088l0.946,1.894l-0.171,1.724l1.895,2.93l2.327,3.1l2.325,2.066l1.627,0.174l1.129,0.688v2.239l-1.377,1.207
			l-0.346,1.723l1.551,2.584l1.895,2.238l1.896,1.379l1.033,8.787l0.235,27.184l0.174,3.53l0.345,4.059l16.904-0.654l17.486-0.517
			l15.677-0.604l8.784-0.173l1.634,2.582l-0.515,2.49l-2.326,1.812l-0.431,1.386l4.053,0.348l2.935-0.521l1.294-4.14l0.491-4.414
			l1.58-1.924l1.956-1.122l0.04-2.296l0.766-1.461l-1.278-1.916l-1.003,0.739l-1.5-1.677l-0.969-3.584l0.603-1.9l-1.464-2.583
			l-1.38-3.447l-3.618-0.602l-5.25-4.221l-1.295-3.1l0.603-2.411l1.552-4.565l0.346-2.158l-1.47-0.778l-5.165-0.601l-0.773-1.289
			l-0.087-3.188l-4.133-2.586l-5.257-5.857l-1.724-5.513l-0.173-3.185L435.256,203.932L435.256,203.932z"/>
		<path id="GA" fill="#DADED9" stroke="#AFB5AA" stroke-width="0.75" d="M521.051,284.894v1.644l0.121,1.582l0.488,2.559
			l2.558,5.971l1.826,7.43l1.097,4.631l1.219,3.653l1.096,5.239l1.586,4.749l1.946,2.559l0.368,2.561l1.46,0.609l0.125,1.582
			l-1.343,3.656l-0.365,2.438l-0.121,1.462l1.22,3.287l0.242,4.021l-0.608,1.828l0.484,0.607l1.099,0.61l0.153,2.423l1.685,2.526
			l1.694,1.629l5.97,0.12l8.154-0.486l16.209-0.976l4.103-0.507l3.451,0.02l0.123,2.193l1.947,0.609l0.243-3.287l-1.217-3.413
			l0.854-1.219l4.386,0.61l3.752,0.238l-0.586-4.744l1.707-7.553l1.096-3.17l-0.366-1.947l2.513-4.705l-0.384-1.019l-1.441,0.53
			l-1.951-0.975l-0.485-1.583l-0.978-2.683l-1.704-1.581l-1.949-0.487l-1.219-3.654l-2.205-4.776l-3.164-1.462l-1.586-1.46
			l-0.973-1.95l-1.585-1.462l-1.706-0.975l-1.705-2.193l-2.314-1.703l-3.411-1.342l-0.366-1.096l-1.825-2.193l-0.368-1.096
			l-2.559-3.747l-2.651,0.074l-2.83-1.776l-1.066-0.974l-0.246-1.339l0.658-1.463l1.676-0.834l-0.476-1.583L521.051,284.894
			L521.051,284.894z"/>
		<path id="SC" fill="#DADED9" stroke="#AFB5AA" stroke-width="0.75" d="M590.869,324.541l-1.339,0.73l-1.947-0.976l-0.489-1.584
			l-0.975-2.681l-1.706-1.583l-1.95-0.487l-1.216-3.654l-2.072-4.507l-3.168-1.463l-1.581-1.462l-0.977-1.949l-1.583-1.463
			l-1.706-0.973l-1.705-2.194l-2.314-1.705l-3.411-1.339l-0.364-1.097l-1.828-2.192l-0.367-1.097l-2.558-3.896l-2.557,0.12
			l-3.047-1.826l-0.975-0.979l-0.241-1.338l0.608-1.461l1.704-0.732l-0.385-1.723l4.348-1.763l6.867-3.458l5.859-0.609l12.143-0.319
			l1.988,1.416l1.266,2.531l3.243-0.463l9.501-1.095l2.192,0.61l9.503,5.728l7.616,6.117l-4.084,4.116l-1.949,4.627l-0.365,4.751
			l-1.219,0.608l-0.853,2.071l-1.826,0.488l-1.584,2.681l-2.071,2.07l-1.705,2.558l-1.22,0.611l-2.682,2.557l-2.189,0.12
			l0.728,2.438l-3.773,4.143L590.869,324.541L590.869,324.541z"/>
		<path id="KY" fill="#DADED9" stroke="#AFB5AA" stroke-width="0.75" d="M561.518,239.465l-1.729,1.812l-2.695,3.008l-3.712,4.12
			l-0.915,1.293l-0.047,1.585l-3.301,1.631l-4.264,2.559l-5.449,1.354l-39.086,3.692l-11.876,1.342l-3.481,0.384l-2.916-0.021
			l-0.172,3.182l-6.162,0.109l-5.239,0.488l-6.019-0.046l0.912-0.998l1.881-1.158l0.172-2.415l0.689-1.375l-1.211-1.913l0.604-1.438
			l1.705-1.343l1.585-0.484l2.07,0.973l2.68,0.976l0.854-0.245l0.121-1.703l-0.975-1.829l0.244-1.706l1.463-1.095l1.947-0.487
			l1.22-0.488l-0.611-1.342l-0.485-1.46l1.135-0.751c0.002-0.026,0.945-2.653,0.934-2.757l2.301-1.115l4.01-0.729l3.386-0.363
			l1.05,1.227l1.149,0.654l1.2-2.343l2.402-0.967l1.662,1.12l0.309,0.754l0.883-0.201l-0.121-2.227l2.359-1.317l1.618-0.808
			l1.151,1.25l2.503-0.032l0.442-1.184l-0.277-1.707l1.959-3.013l3.602-2.588l0.529-3.645l2.205-0.346l2.857-1.242l1.839-1.284
			l-0.147-1.18l-0.861-1.096l0.429-2.257l3.15-0.091l1.735-0.56l2.522,1.075l1.547,3.289l3.868,0.01l1.543,1.662l1.219-0.112
			l1.962-0.961l3.947,0.431l1.94,0.163l1.268-1.548l1.977-1.074l1.419-0.532l0.484,2.136l1.542,0.8l1.99,1.568l0.089,4.273
			l0.609,1.185l1.951,1.174l0.583,1.728l3.134,2.59l1.359,2.731L561.518,239.465L561.518,239.465z"/>
		<path id="AL" fill="#DADED9" stroke="#AFB5AA" stroke-width="0.75" d="M490.166,363.915l-1.125-10.795l-2.07-14.13l0.121-10.599
			l0.609-23.39l-0.121-12.548l0.123-4.837l33.523-2.725l-0.112,1.642l0.124,1.582l0.484,2.562l2.561,5.966l1.827,7.431l1.097,4.633
			l1.218,3.653l1.096,5.238l1.583,4.751l1.95,2.559l0.366,2.56l1.459,0.61l0.123,1.581l-1.34,3.653l-0.364,2.438l-0.122,1.462
			l1.218,3.289l0.243,4.02l-0.607,1.83l0.487,0.607l1.095,0.606l0.248,2.179l-4.219-0.269l-5.115,0.489l-19.248,2.192l-7.848,1.06
			l-0.166,2.167l1.34,1.342l1.949,1.462l0.439,5.98l-4.178,1.938l-2.07-0.241l2.07-1.466v-0.728l-2.314-4.508l-1.705-0.488
			l-1.098,3.29l-0.974,2.07l-0.487-0.121H490.166L490.166,363.915z"/>
		<path id="LA" fill="#DADED9" stroke="#AFB5AA" stroke-width="0.75" d="M472.578,362.968l-2.476-2.383l0.761-4.146l-0.498-0.673
			l-6.979,0.759l-18.86,0.345l-0.514-1.805l0.686-6.37l2.499-4.478l3.792-6.552l-0.432-1.81l0.945-0.513l0.347-1.47l-1.723-1.55
			l-0.085-1.463l-1.381-3.277l-0.109-4.775l-41.803,0.696l0.021,7.214l0.517,7.063l0.516,2.929l1.896,3.104l0.688,3.789l3.274,4.134
			l0.171,2.412l0.517,0.519l-0.517,6.373l-2.238,3.789l1.205,1.552l-0.516,1.894l-0.519,5.515l-1.034,2.411l0.094,2.726l3.531-1.146
			l9.128,0.155l7.796,2.681l4.873,0.854l2.804-1.099l2.435,0.854l2.437,0.729l0.61-1.584l-2.437-0.852l-1.95,0.366l-2.07-1.22
			c0,0,0.122-0.976,0.609-1.097c0.486-0.122,2.314-0.729,2.314-0.729l1.34,1.094l1.34-0.73l2.437,0.486l1.096,1.829l0.245,1.706
			l3.41,0.244l1.34,1.338l-0.609,1.22l-0.975,0.608l1.219,1.215l6.335,2.684l2.681-0.976l0.729-1.826l1.951-0.488l1.338-1.095
			l0.975,0.731l0.611,2.192l-1.707,0.608l0.488,0.485l2.559-0.972l1.704-2.56l0.61-0.364l-1.584-0.244l0.609-1.22l-0.122-1.093
			l1.583-0.369l0.854-0.975l0.486,0.608c0,0-0.12,2.314,0.488,2.314c0.609,0,3.168,0.489,3.168,0.489l3.045,1.461l0.73,1.098h2.192
			l0.854,0.731l1.705-2.314v-1.096h-0.976l-2.557-2.074l-4.386-0.609l-2.437-1.703l0.854-2.072l1.706,0.243l0.119-0.486l-1.339-0.73
			v-0.366h2.437l1.339-2.316l-0.973-1.459l-0.244-2.071l-1.097,0.122l-1.462,1.582l-0.486,1.951l-2.316-0.487l-0.729-1.339
			l1.339-1.465l1.436-2.596l-0.801-1.818L472.578,362.968L472.578,362.968z"/>
		<path id="MS" fill="#DADED9" stroke="#AFB5AA" stroke-width="0.75" d="M490.356,363.108l-0.192,0.944h-3.898l-1.097-0.607
			l-1.585-0.246l-5.114,1.465l-1.341-0.611l-1.949,3.168l-0.83,0.585l-0.848-1.875l-0.86-2.929l-2.585-2.41l0.862-4.179
			l-0.519-0.688l-1.377,0.169l-5.968,0.659l-18.496,0.282l-0.58-1.678l0.657-6.311l2.349-4.274l3.938-6.893l-0.335-1.832
			l0.933-0.495l0.327-1.449l-1.746-1.564l-0.087-1.612l-1.383-3.105l-0.082-4.495l1-1.869l-0.168-2.575l-1.332-2.322l1.148-1.116
			l-1.183-1.883l0.345-1.244l1.188-4.92l1.874-1.533l-0.484-1.786l2.757-3.995l2.134-1.022l-0.166-1.259l-0.218-1.27l2.168-4.196
			l1.768-0.927l0.113-0.675l28.142-2.924l0.141,4.734l0.121,12.548l-0.61,23.391l-0.121,10.599l2.071,14.129L490.356,363.108
			L490.356,363.108z"/>
		<path id="IA" fill="#DADED9" stroke="#AFB5AA" stroke-width="0.75" d="M443.357,167.361l0.199,2.098l1.676,0.437l0.719,0.923
			l0.378,1.396l2.857,2.533l0.517,1.802l-0.508,2.58l-1.191,2.437l-0.604,2.064l-1.637,1.208l-1.293,0.432l-4.204,1.402
			l-1.049,2.899l0.55,1.035l1.387,1.268l-0.213,3.042l-1.33,1.157l-0.582,1.24l0.097,2.09l-1.421,0.347l-1.225,0.831l-0.211,1.021
			l0.211,1.592l-1.17,0.842l-1.861-2.361l-0.951-1.846l-49.536,1.895l-0.69,0.125l-1.549-3.404l-0.172-4.995l-1.205-3.101
			l-0.518-3.963l-1.723-2.758l-0.689-3.617l-2.065-5.686l-0.862-4.049l-1.035-1.637l-1.205-2.065l1.473-3.652l1.034-4.307
			l-2.067-1.55l-0.346-2.068l0.69-1.895h1.291l62.285-0.956l0.628,3.152l1.697,1.176l0.194,1.073l-1.53,2.554l0.145,2.416
			l1.895,2.861l1.904,0.976l2.321,0.38L443.357,167.361z"/>
		<path id="MN" fill="#DADED9" stroke="#AFB5AA" stroke-width="0.75" d="M372.557,114.038l-0.344-6.374l-1.378-5.513l-1.38-10.166
			l-0.344-7.407l-1.378-2.585l-1.206-3.79v-7.753l0.517-2.929l-1.371-4.107l22.705,0.026l0.245-6.213l0.486-0.122l1.707,0.366
			l1.461,0.609l0.608,4.142l1.097,4.627l1.219,1.219h3.654l0.243,1.097l4.751,0.243v1.584h3.656l0.242-0.974l0.854-0.853
			l1.706-0.488l0.974,0.731h2.193l2.924,1.95l4.02,1.828l1.828,0.365l0.363-0.73l1.098-0.366l0.366,2.194l1.948,0.974l0.365-0.366
			l0.975,0.122v1.583l1.95,0.733h2.313l1.219-0.609l2.436-2.437l1.95-0.366l0.608,1.34l0.365,0.973h0.732l0.73-0.608l6.701-0.245
			l1.338,2.315h0.488l0.537-0.816l3.348-0.281l-0.463,1.719l-2.969,1.383l-6.967,3.062l-3.598,1.512l-2.314,1.95l-1.826,2.681
			l-1.707,2.923l-1.34,0.607l-3.41,3.776l-0.975,0.123l-3.263,2.079l-1.854,2.413l-0.172,2.406l0.07,6.061l-1.038,1.272
			l-3.829,2.835l-1.681,4.508l2.165,1.683l0.514,2.432l-1.4,2.44l0.129,2.825l0.279,5.071l2.281,2.262h2.51l1.425,2.36l2.546,0.38
			l2.908,4.273l5.341,3.103l1.614,2.167l0.506,4.852l-61.199,0.863l-0.254-26.884l-0.344-2.24l-3.102-2.584l-0.861-1.379v-1.206
			l1.551-1.205l1.033-1.034L372.557,114.038L372.557,114.038z"/>
		<path id="OK" fill="#DADED9" stroke="#AFB5AA" stroke-width="0.75" d="M301.048,258.723l-12.573-0.963l-0.664,8.255l15.422,0.872
			l24.155,0.982l-1.758,18.401l-0.344,13.437l0.171,1.206l3.274,2.756l1.55,0.862l0.517-0.172l0.517-1.55l1.035,1.377h1.549v-1.032
			l2.067,1.032l-0.346,2.931l3.102,0.172l1.896,0.858l3.101,0.52l1.895,1.377l1.723-1.55l2.583,0.516l1.895,2.586h0.69v1.721
			l1.722,0.516l1.723-1.721l1.378,0.518h1.896l0.688,1.895l4.747,1.567l1.036-0.517l1.378-3.102h0.861l0.859,1.551l3.103,0.517
			l2.757,1.034l2.238,0.688l1.379-0.688l0.518-1.895h3.272l1.55,0.689l2.068-1.552h0.861l0.518,1.206h3.101l1.206-1.551l1.379,0.345
			l1.55,1.895l2.412,1.379l2.411,0.689l1.463,0.843l-0.294-28.043l-1.032-8.273l-0.121-6.685l-1.086-4.928l-0.585-5.407l-0.052-2.88
			l-9.146,0.242l-34.975-0.347l-33.939-1.548L301.048,258.723L301.048,258.723z"/>
		<path id="TX" fill="#DADED9" stroke="#AFB5AA" stroke-width="0.75" d="M286.821,266.071l17.099,0.817l23.431,0.86l-1.758,17.675
			l-0.224,13.681l0.05,1.57l3.273,2.876l1.498,1.092l0.892-0.423l0.282-1.372l0.858,1.363l1.593,0.031l-0.002-1.09l1.256,0.728
			l0.859,0.311l-0.271,2.99l3.081,0.069l2.205,0.9l2.979,0.396l1.795,1.566l1.602-1.564l2.806,0.462l1.675,2.432l0.81,0.24
			l-0.121,1.483l1.667,0.596l1.757-1.549l1.605,0.464l1.681,0.026l0.703,1.837l4.768,1.594l1.203-0.579l1.121-3.147h0.257
			l0.683,0.061l0.928,1.56l2.961,0.502l2.513,0.847l2.583,0.899l1.385-0.734l0.539-1.895l3.356,0.034l1.362,0.702l2.111-1.592
			l0.83,0.037l0.643,1.208h3.055l1.145-1.53l1.407,0.309l1.468,1.81l2.651,1.542l2.155,0.608l1.14,0.603l1.843,1.505l2.294-0.997
			l2.027,0.857l0.426,4.6l-0.03,7.312l0.518,7.184l0.527,2.718l2.018,3.33l0.677,3.728l3.177,4.175l0.148,2.371l0.562,0.593
			l-0.551,6.316l-2.164,3.771l1.156,1.623l-0.475,1.761l-0.505,5.577l-1.135,2.52l0.223,2.639l-4.27,1.194l-7.43,3.412l-0.73,1.459
			l-1.95,1.463l-1.583,1.096l-0.975,0.608l-4.264,4.023l-2.072,1.581l-4.02,2.438l-4.264,1.825l-4.751,2.562l-1.34,1.094
			l-4.386,2.68l-2.559,0.489l-2.923,4.143l-3.046,0.241l-0.73,1.461l1.705,1.465l-1.097,4.14l-0.975,3.413l-0.853,2.922l-0.609,3.41
			l0.609,1.827l1.34,5.239l0.73,4.627l1.341,2.072l-0.731,1.098l-2.314,1.461l-4.263-2.924l-4.143-0.852l-0.975,0.367l-2.437-0.488
			l-3.167-2.315l-3.898-0.854l-5.726-2.559l-1.584-2.922l-0.975-4.872l-2.436-1.463l-0.487-1.706l0.487-0.487l0.244-2.559
			l-0.975-0.485l-0.487-0.732l0.973-3.29l-1.217-1.705l-2.437-0.974l-2.558-3.29l-2.681-4.994l-3.167-1.949l0.121-1.462l-4.02-9.26
			l-0.608-3.166l-1.34-1.461l-0.123-1.098l-4.508-4.022l-1.949-2.312v-0.852l-1.949-1.584l-5.117-0.854l-5.604-0.485l-2.315-1.707
			l-3.41,1.34l-2.682,1.098l-1.706,2.436l-0.73,2.801l-3.289,4.629l-1.827,1.828l-1.949-0.73l-1.339-0.853l-1.462-0.487
			l-2.924-1.706v-0.487l-1.339-1.463l-3.898-1.581l-5.604-5.851l-1.707-3.532v-6.09l-2.436-4.872l-0.366-2.07l-1.218-0.73
			l-0.852-1.586l-3.777-1.582l-0.974-1.219l-5.362-5.972l-0.973-2.434l-3.534-1.708l-1.095-3.289l-1.949-2.192l-1.462-0.364
			l-0.49-3.526l6.031,0.519l21.879,2.066l21.878,1.204l1.684-14.665l2.929-41.862l1.207-14.127l1.033,0.021 M362.35,439.115
			l-0.426-5.363l-2.071-5.419l-0.425-5.3l1.156-6.212l2.498-5.181l2.62-4.079l2.374-2.678l0.488,0.182l-3.594,4.994l-3.29,4.935
			l-1.522,4.993l-0.244,3.898l0.67,4.628l1.95,5.423l0.365,3.9l0.122,1.094L362.35,439.115L362.35,439.115z"/>
		<path id="NM" fill="#DADED9" stroke="#AFB5AA" stroke-width="0.75" d="M231.576,336.479l-0.585-3.576l6.515,0.397l22.736,2.221
			l20.549,1.271l1.669-14.096l2.907-42.106l1.309-14.613l1.186,0.098l0.622-8.408l-78.374-8.018l-13.186,90.756l11.651,1.499
			l0.975-7.555L231.576,336.479L231.576,336.479z"/>
		<path id="KS" fill="#DADED9" stroke="#AFB5AA" stroke-width="0.75" d="M397.156,261.4l-9.508,0.156l-34.731-0.346l-33.577-1.55
			l-18.562-0.946l2.935-48.677l16.641,0.509l30.36,0.634l33.384,0.744h3.841l1.646,1.629l1.52-0.018l1.236,0.766l-0.048,2.267
			l-1.378,1.302l-0.25,1.68l1.388,2.565l2.226,2.405l1.756,1.218l0.979,8.471L397.156,261.4L397.156,261.4z"/>
		<path id="NE" fill="#DADED9" stroke="#AFB5AA" stroke-width="0.75" d="M380.741,198.346l2.435,5.289l-0.096,1.734l2.605,4.141
			l2.049,2.376h-3.805l-32.768-0.708l-30.736-0.67l-16.768-0.593l0.809-16.071l-24.354-2.199l3.274-33.166l11.714,0.776
			l15.162,0.861l13.439,0.861l17.916,0.862l8.098-0.344l1.549,1.723l3.618,2.24l0.862,0.689l3.274-1.034l2.928-0.344l2.066-0.172
			l1.379,1.034l3.057,1.206l2.242,1.206l0.343,1.205l0.688,1.553h1.38l0.602,0.031l0.674,3.531l2.2,6.381l0.432,2.83l1.9,2.844
			l0.43,3.854l1.211,3.196L380.741,198.346L380.741,198.346z"/>
		<path id="SD" fill="#DADED9" stroke="#AFB5AA" stroke-width="0.75" d="M373.467,170.706l-0.033-0.437l-2.182-3.651l1.4-3.55
			l1.123-4.438l-2.095-1.567l-0.29-2.066l0.598-1.925l2.402,0.011l-0.093-3.772l-0.25-22.738l-0.468-2.84l-3.067-2.508l-0.74-1.265
			l-0.047-1.212l1.523-1.153l1.153-1.254l0.186-2.003l-43.9-1.207l-41.294-2.599l-4.013,47.996l10.994,0.682l15.033,0.908
			l13.371,0.699l17.917,0.983l9.03-0.321l1.482,1.692l3.914,2.452l0.577,0.545l3.422-1.096l4.929-0.464l1.263,1.009l3.167,1.202
			l2.221,1.231l0.301,1.12l0.782,1.688L373.467,170.706L373.467,170.706z"/>
		<path id="ND" fill="#DADED9" stroke="#AFB5AA" stroke-width="0.75" d="M372.608,114.11l-0.465-6.354l-1.263-5.138l-1.426-9.814
			l-0.344-8.279l-1.311-2.319l-1.324-3.916l0.023-7.869l0.469-2.883l-1.381-4.12l-21.584-0.426l-14.009-0.486l-19.978-0.974
			l-17.292-1.609l-5.27,50.623l41.394,2.52L372.608,114.11L372.608,114.11z"/>
		<path id="WY" fill="#DADED9" stroke="#AFB5AA" stroke-width="0.75" d="M286.002,124.929l-80.437-10.141l-10.614,66.658
			l85.353,10.238L286.002,124.929z"/>
		<path id="MT" fill="#DADED9" stroke="#AFB5AA" stroke-width="0.75" d="M292.658,59.892l-23.114-2.116l-22.05-2.68l-22.05-3.046
			l-24.364-4.02l-13.889-2.56l-24.66-5.223l-3.374,16.086l2.583,5.685l-1.035,3.446l1.38,3.446l2.411,1.034l3.484,8.115l2.029,2.394
			l0.344,0.861l2.584,0.862l0.345,1.551l-5.341,13.266v1.895l1.896,2.412h0.688l3.618-2.239l0.518-0.863l1.205,0.518l-0.171,3.963
			l2.067,9.474l2.24,1.896l0.689,0.518l1.378,1.723l-0.346,2.583l0.518,2.584l0.862,0.689l1.722-1.723h2.067l2.413,1.207
			l1.895-0.689h3.101l2.757,1.205l2.067-0.345l0.346-2.239l2.239-0.516l1.033,1.033l0.345,2.413l1.074,0.629l1.422-8.316
			l80.441,10.12L292.658,59.892L292.658,59.892z"/>
		<path id="CO" fill="#DADED9" stroke="#AFB5AA" stroke-width="0.75" d="M300.815,258.828l3.694-65.051l-85.447-9.527l-9.204,66.269
			L300.815,258.828z"/>
		<path id="ID" fill="#DADED9" stroke="#AFB5AA" stroke-width="0.75" d="M126.323,149.953l6.61-26.541l1.035-3.188l1.894-4.478
			l-0.948-1.723l-1.894,0.085l-0.604-0.775l0.344-0.862l0.26-2.324l3.357-4.136l1.38-0.345l0.862-0.86l0.43-2.413l0.689-0.517
			l2.928-4.393l2.93-3.274l0.173-2.843l-2.586-1.981l-1.156-3.314l10.268-47.733l10.186,1.904l-3.321,16.115l2.682,5.64
			l-1.191,3.513l1.484,3.497l2.366,0.945l2.89,7.202l2.647,3.343l0.383,0.861l2.517,0.863l0.278,1.58l-5.253,13.093l-0.124,1.935
			l1.982,2.502l0.682-0.037l3.701-2.279l0.511-0.826l1.177,0.498l-0.209,4.035l2.063,9.482l2.954,2.393l1.267,1.633l-0.54,3.078
			l0.803,2.115l0.801,0.822l1.868-1.771l2.146,0.036l2.2,1.007l2.094-0.515l2.861-0.119l2.999,1.205l2.067-0.224l0.374-2.29
			l2.209-0.575l0.951,1.141l0.333,2.22l1.072,0.913l-6.319,40.398C197.881,163.67,131.593,151.087,126.323,149.953L126.323,149.953z
			"/>
		<path id="UT" fill="#DADED9" stroke="#AFB5AA" stroke-width="0.75" d="M209.984,250.646l-63.111-8.946l15.515-84.808l35.251,6.592
			l-1.118,8.009l-1.744,9.928l5.884,0.699l12.364,1.358l6.187,0.646L209.984,250.646z"/>
		<path id="AZ" fill="#DADED9" stroke="#AFB5AA" stroke-width="0.75" d="M123.635,305.296l-1.979,1.627l-0.243,1.096l0.366,0.732
			l14.252,8.04l9.138,5.726l11.085,6.458l12.668,7.553l9.259,1.826l18.803,2.039l13.003-89.772l-63.101-8.979l-2.33,12.369
			l-1.21,0.011l-1.292,1.979l-1.896-0.084l-0.947-2.067l-2.067-0.26l-0.689-0.86h-0.69l-0.688,0.43l-1.465,0.777l-0.086,5.253
			l-0.172,1.291l-0.432,9.476l-1.12,1.641l-0.431,2.495l2.069,3.706l0.945,4.39l0.604,0.778l0.775,0.431l-0.084,1.723l-1.207,1.034
			l-2.584,1.293l-1.465,1.462l-1.12,2.754l-0.43,3.706l-2.154,2.069l-1.55,0.515l0.102,0.627l-0.345,1.29l0.345,0.602l2.757,0.433
			l-0.43,2.067l-1.119,1.639L123.635,305.296L123.635,305.296z"/>
		<path id="NV" fill="#DADED9" stroke="#AFB5AA" stroke-width="0.75" d="M162.429,156.804l-17.812,97.077l-1.38,0.263l-1.186,1.814
			l-1.788,0.007l-1.11-2.068l-1.973-0.284l-0.581-0.835l-0.783-0.04l-2.093,1.239l-0.233,5.112l-0.273,4.354l-0.262,6.475
			l-1.089,1.575l-1.839-0.81l-52.056-78.521l14.309-50.93L162.429,156.804L162.429,156.804z"/>
		<path id="OR" fill="#DADED9" stroke="#AFB5AA" stroke-width="0.75" d="M126.505,149.235l6.669-26.224l0.793-3.188l1.773-4.238
			l-0.463-0.877l-1.895-0.034l-0.966-1.259l0.344-1.103l0.38-2.447l3.358-4.134l1.378-0.83l0.862-0.86l1.121-2.686l3.05-4.274
			l2.686-2.909l0.172-2.602l-2.463-1.861l-1.345-3.498l-9.542-2.722l-11.369-2.67l-11.63,0.087l-0.345-1.035l-4.134,1.55l-3.36-0.43
			l-1.808-1.205l-0.949,0.515l-3.531-0.171l-1.293-1.035l-3.961-1.55l-0.604,0.086l-3.272-1.122l-1.465,1.381l-4.652-0.259
			l-4.479-3.102l0.517-0.603l0.172-5.858l-1.723-2.929l-3.101-0.431l-0.517-1.895l-1.774-0.352l-4.369,1.552l-1.707,4.872
			l-2.437,7.554l-2.437,4.872l-3.775,10.6l-4.874,10.231l-6.092,9.502l-1.46,2.192l-0.609,6.458l0.291,9.103L126.505,149.235
			L126.505,149.235z"/>
		<path id="WA" fill="#DADED9" stroke="#AFB5AA" stroke-width="0.75" d="M91.353,22.698l3.29,1.096l7.31,2.07l6.457,1.463
			l15.104,4.263l17.3,4.264l11.471,2.418l-10.273,47.914l-9.378-2.656l-11.686-2.69l-11.476,0.024l-0.344-1.014l-4.218,1.644
			l-3.463-0.555l-1.618-1.195l-0.99,0.495l-3.567-0.106l-1.281-1.016l-3.964-1.592l-0.555,0.112l-3.307-1.15l-1.427,1.369
			l-4.722-0.224l-4.465-3.11l0.586-0.704l0.091-5.783l-1.719-2.895l-3.102-0.456l-0.51-1.895l-1.714-0.343l-2.68,0.927l-1.705-2.426
			l0.243-2.192l2.071-0.245l1.219-3.045l-1.95-0.853l0.122-2.802l3.291-0.486l-2.072-2.071l-1.096-5.361l0.487-2.192v-5.969
			l-1.341-2.436l1.707-7.066l1.583,0.365l1.828,2.192l2.072,1.949l2.436,1.462l3.412,1.584l2.315,0.487l2.191,1.096l2.559,0.732
			l1.705-0.123v-1.827l0.976-0.852l1.583-0.976l0.244,0.854l0.244,1.34l-1.707,0.365l-0.243,1.583l1.34,1.096l0.853,1.828
			l0.486,1.46l1.097-0.121l0.122-0.974l-0.731-0.975l-0.366-2.436l0.608-1.341l-0.486-1.097v-1.706l1.339-2.681l-0.853-1.948
			l-1.827-3.655l0.243-0.609L91.353,22.698L91.353,22.698z M84.227,27.203l1.523-0.123l0.365,1.037l1.158-1.218h1.766l0.609,1.156
			l-1.156,1.281l0.486,0.609l-0.548,1.522l-1.035,0.306c0,0-0.67,0.061-0.67-0.184c0-0.244,1.096-1.949,1.096-1.949l-1.278-0.427
			l-0.244,1.097l-0.548,0.487l-1.157-1.706L84.227,27.203z"/>
		<path id="CA" fill="#DADED9" stroke="#AFB5AA" stroke-width="0.75" d="M123.471,304.972l2.97-0.368l1.12-1.514l0.41-2.219
			l-2.676-0.446l-0.387-0.499l0.36-1.535l-0.121-0.442l1.449-0.468l2.292-2.135l0.438-3.765l1.039-2.562l1.466-1.632l2.651-1.2
			l1.247-1.209l0.052-1.587l-0.75-0.44l-0.77-0.807l-0.871-4.405l-2.023-3.641l0.426-2.643l-1.824-0.774l-52.042-78.505
			l14.245-50.943l-50.55-11.829l-1.135,3.566l-0.122,5.604l-3.898,8.893l-2.314,1.951l-0.245,0.852l-1.339,0.609l-1.097,3.167
			l-0.609,2.437l2.072,3.167l1.218,3.168l0.853,2.679l-0.244,4.872l-1.34,2.316l-0.487,4.385l-0.732,2.801l1.341,2.924l2.071,3.411
			l1.706,3.655l0.973,3.045l-0.243,2.437l-0.244,0.366v1.582l4.264,4.753l-0.365,1.827l-0.487,1.703l-0.488,1.464l0.124,6.213
			l1.584,2.801l1.461,1.949l2.069,0.366l0.731,2.07l-0.853,2.682l-1.583,1.219h-0.854l-0.608,2.922l0.365,2.194l2.437,3.288
			l1.218,4.02l1.098,3.531l0.975,2.317l2.558,4.383l1.098,1.953l0.365,2.189l1.219,0.733v1.824l-0.609,1.464l-1.34,5.36
			l-0.365,1.462l1.827,2.069l3.167,0.367l3.412,1.339l2.924,1.585h2.192l2.192,2.314l1.95,3.656l0.852,1.704l2.924,1.583
			l3.655,0.608l1.095,1.584l0.489,2.438l-1.098,0.487l0.244,0.729l2.437,0.609l2.071,0.125l2.382-1.273l2.922,3.167l0.609,1.706
			l1.95,3.167l0.243,2.437v7.065l0.366,1.341l7.552,1.096l14.863,2.071L123.471,304.972L123.471,304.972z M57.056,272.029
			l0.974,1.157l-0.122,0.975l-2.437-0.062l-0.426-0.913l-0.487-1.097L57.056,272.029L57.056,272.029z M58.518,272.029l0.915-0.487
			l2.68,1.585l2.315,0.911l-0.67,0.489l-3.412-0.183l-1.218-1.218L58.518,272.029L58.518,272.029z M74.111,286.951l1.342,1.768
			l0.608,0.729l1.157,0.428l0.426-1.096l-0.73-1.34l-2.01-1.523l-0.792,0.12V286.951z M73.015,293.471l1.34,2.372l0.912,1.466
			l-1.095,0.182l-0.974-0.913c0,0-0.548-1.098-0.548-1.402c0-0.304,0-1.645,0-1.645L73.015,293.471L73.015,293.471z"/>
	</g>
</g>
</svg>
